<?xml version="1.0" encoding="utf-8"?>
<!-- Generator: Adobe Illustrator 22.0.1, SVG Export Plug-In . SVG Version: 6.00 Build 0)  -->
<svg version="1.1" xmlns="http://www.w3.org/2000/svg" xmlns:xlink="http://www.w3.org/1999/xlink" x="0px" y="0px"
	 viewBox="0 0 2880 1800" style="enable-background:new 0 0 2880 1800;" xml:space="preserve">
<style type="text/css">
	.st0{font-family:'ArialMT';}
	.st1{font-size:12px;}
	.st2{fill:none;}
	.st3{fill:#F9F9F9;}
	.st4{fill:#DAD7FF;}
	.st5{font-family:'Iosevka';}
	.st6{font-size:200px;}
	.st7{fill:#9E97FF;}
	.st8{font-size:72px;}
	.st9{fill:#F45DBE;}
	.st10{font-size:300px;}
	.st11{fill:#D8C2F9;}
	.st12{fill:#E1E1FF;}
	.st13{font-size:48px;}
	.st14{fill:#1F1A17;}
	.st15{fill:#FFFCC7;}
	.st16{fill:#D62820;}
	.st17{fill:#D7271C;}
	.st18{fill:#D62620;}
	.st19{fill:#D22822;}
	.st20{fill:#FFFCC8;}
	.st21{fill:#FFF0C0;}
	.st22{fill:#D42821;}
	.st23{fill:#D32922;}
	.st24{fill:#1E1B17;}
	.st25{fill:#D52821;}
	.st26{fill:#1D1B17;}
	.st27{fill:#00923F;}
	.st28{fill:#D72722;}
	.st29{fill:#D8281E;}
	.st30{fill:#D7271E;}
	.st31{fill:#DD231F;}
	.st32{fill:#A47046;}
	.st33{fill:#EBE0ED;}
	.st34{fill:#2A176E;}
	.st35{fill:#C6BAC7;}
	.st36{fill:#29176E;}
	.st37{fill:#DC2B24;}
	.st38{fill:#ECCBD6;}
	.st39{fill:#C0D6F2;}
	.st40{fill:#D52921;}
	.st41{fill:#D92823;}
	.st42{fill:#2D176A;}
	.st43{fill:#BBD4E5;}
	.st44{fill:#1C1F1B;}
	.st45{fill:#152117;}
	.st46{fill:#2B166D;}
	.st47{fill:#BBD8E7;}
	.st48{fill:#00923E;}
	.st49{fill:#EBCAD3;}
	.st50{fill:#D7271F;}
	.st51{fill:#9C8FDF;}
	.st52{fill:#BAD5E9;}
	.st53{fill:#897A66;}
	.st54{fill:#E02520;}
	.st55{fill:#D2CF0D;}
	.st56{fill:#362330;}
	.st57{fill:#926D41;}
	.st58{fill:#BAD9E4;}
	.st59{fill:#004916;}
	.st60{fill:#D32822;}
	.st61{fill:#01923F;}
	.st62{fill:#B9D9E5;}
	.st63{fill:#BECEF3;}
	.st64{fill:#D5CF00;}
	.st65{fill:#C9C837;}
	.st66{fill:#ECCAD6;}
	.st67{fill:#DA2721;}
	.st68{fill:#322129;}
	.st69{fill:#494011;}
	.st70{fill:#FDFFC2;}
	.st71{fill:#C4BD5B;}
	.st72{fill:#BCD5E9;}
	.st73{fill:#B9D9E6;}
	.st74{fill:#D92620;}
	.st75{fill:#A95636;}
	.st76{fill:#FFFEC4;}
	.st77{fill:#746F04;}
	.st78{fill:#D8261E;}
	.st79{fill:#BAD9E5;}
	.st80{fill:#B8DAE7;}
	.st81{fill:#ECCBD4;}
	.st82{fill:#B7D9E7;}
	.st83{fill:#A85F3C;}
	.st84{fill:#361D56;}
	.st85{fill:#BCD7E7;}
	.st86{fill:#019240;}
	.st87{fill:#BBD7EC;}
	.st88{fill:#BAD8E7;}
	.st89{fill:#D52922;}
	.st90{fill:#EAC8DC;}
	.st91{fill:#FFFCC5;}
	.st92{fill:#D82720;}
	.st93{fill:#BCD7EB;}
	.st94{fill:#FDFAC3;}
	.st95{fill:#FFFAC6;}
	.st96{fill:#B9DAE3;}
	.st97{fill:#EBCADA;}
	.st98{fill:#B9D8E9;}
	.st99{fill:#19361F;}
	.st100{fill:#A97040;}
	.st101{fill:#D02B1F;}
	.st102{fill:#404C8B;}
	.st103{fill:#01923E;}
	.st104{fill:#D62621;}
	.st105{fill:#BDD7E8;}
	.st106{fill:#292C75;}
	.st107{fill:#BFDED8;}
	.st108{fill:#36357F;}
	.st109{fill:#B0C0E8;}
	.st110{fill:#384274;}
	.st111{fill:#28196C;}
	.st112{fill:#B4C3EA;}
	.st113{fill:#C2D5E6;}
	.st114{fill:#333680;}
	.st115{fill:#B7DFDE;}
	.st116{fill:#ECCAD4;}
	.st117{fill:#FFF1B7;}
	.st118{fill:#424D8F;}
	.st119{fill:#B1C2ED;}
	.st120{fill:#AFC5E7;}
	.st121{fill:#ACBEE0;}
	.st122{fill:#1E2866;}
	.st123{fill:#BCC9F6;}
	.st124{fill:#252665;}
	.st125{fill:#B6C4EE;}
	.st126{fill:#202B60;}
	.st127{fill:#B7C6EE;}
	.st128{fill:#272E69;}
	.st129{fill:#B0C4E5;}
	.st130{fill:#232F69;}
	.st131{fill:#8F97D3;}
	.st132{fill:#7E83C8;}
	.st133{fill:#8A8BD1;}
	.st134{fill:#8C90D9;}
	.st135{fill:#7D87CB;}
	.st136{fill:#8B96D2;}
	.st137{fill:#8F95D4;}
	.st138{fill:#8F97D6;}
	.st139{fill:#CC2C1F;}
	.st140{fill:#402657;}
	.st141{fill:#A0522C;}
	.st142{fill:#D42824;}
	.st143{fill:#DDAE86;}
	.st144{fill:#BB714E;}
	.st145{fill:#2A176D;}
	.st146{fill:#212C5C;}
	.st147{fill:#351C55;}
	.st148{fill:#B5BBEF;}
	.st149{fill:#DA2622;}
	.st150{fill:#B6DBE5;}
	.st151{fill:#695DB3;}
	.st152{fill:#D92720;}
	.st153{fill:#02913F;}
	.st154{fill:#BAD9E7;}
	.st155{fill:#2A166E;}
	.st156{fill:#00933E;}
	.st157{fill:#EACBD4;}
	.st158{fill:#DB2621;}
	.st159{fill:#B9D9E9;}
	.st160{fill:#D52722;}
	.st161{fill:#B7DAE5;}
	.st162{fill:#FFE5B9;}
	.st163{fill:#EECBDA;}
	.st164{fill:#291770;}
	.st165{fill:#291870;}
	.st166{fill:#EDCBD4;}
	.st167{fill:#D82620;}
	.st168{fill:#D22621;}
	.st169{fill:#BAD8E5;}
	.st170{fill:#B9D8E6;}
	.st171{fill:#B7DBE5;}
	.st172{fill:#271771;}
	.st173{fill:#28176E;}
	.st174{fill:#D32A21;}
	.st175{fill:#00913F;}
	.st176{fill:#EBCCD6;}
	.st177{fill:#D72620;}
	.st178{fill:#EBCDD8;}
	.st179{fill:#28166E;}
	.st180{fill:#FFFACA;}
	.st181{fill:#D3291F;}
	.st182{fill:#D32821;}
	.st183{fill:#FFFBC7;}
	.st184{fill:#D5251F;}
	.st185{fill:#D92621;}
	.st186{fill:#F3C7C6;}
	.st187{fill:#1E3218;}
	.st188{fill:#01913F;}
	.st189{fill:#D92421;}
	.st190{fill:#2A1571;}
	.st191{fill:#D42721;}
	.st192{fill:#FFFBC6;}
	.st193{fill:#D62721;}
	.st194{fill:#FCFFC2;}
	.st195{fill:#D72622;}
	.st196{fill:#D22622;}
	.st197{fill:#E5DCDF;}
	.st198{fill:#776767;}
	.st199{fill:#2A176F;}
	.st200{fill:#D6261F;}
	.st201{fill:#9F663A;}
	.st202{fill:#D82820;}
	.st203{fill:#281771;}
	.st204{fill:#D8261F;}
	.st205{fill:#B2432E;}
	.st206{fill:#FFFAC9;}
	.st207{fill:#988D57;}
	.st208{fill:#1A211A;}
	.st209{fill:#01913E;}
	.st210{fill:#032911;}
	.st211{fill:#0B2D1A;}
	.st212{fill:#00933F;}
	.st213{fill:#E66B32;}
	.st214{fill:#019140;}
	.st215{fill:#312F7D;}
	.st216{fill:#21211F;}
	.st217{fill:#FFFFFF;}
	.st218{fill:#FFFFFE;}
	.st219{fill:#21201E;}
	.st220{fill:#23201D;}
	.st221{fill:#211E1D;}
	.st222{fill:#211D1B;}
	.st223{fill:#201C1B;}
	.st224{fill:#211D1E;}
	.st225{fill:#201C1C;}
	.st226{fill:#201E1F;}
	.st227{fill:#1E1D1B;}
	.st228{fill:#242424;}
	.st229{fill:#252321;}
	.st230{fill:#1E1A19;}
	.st231{fill:#231F1E;}
	.st232{fill:#1F1E1C;}
	.st233{fill:#F7F5F3;}
	.st234{fill:#EA6EBB;}
	.st235{fill:#8157EA;}
	.st236{font-size:130px;}
	.st237{fill:#8B49F2;}
	.st238{font-size:100px;}
	.st239{fill:#FF83C4;}
	.st240{font-family:'Monaco';}
</style>
<g id="Layer_2">
</g>
<g id="Layer_1">
	<g id="Layer_1_1_">
		<g>
			
				<image style="overflow:visible;enable-background:new    ;" width="1902" height="1092" xlink:href="957702DD.png"  transform="matrix(1.6499 0 0 1.6499 0 -4.085588e-02)">
			</image>
		</g>
		<text transform="matrix(1 0 0 1 14.6768 1262.8555)" class="st0 st1">Lorem ipsum</text>
		<rect x="54" y="1221" class="st2" width="324" height="405"/>
	</g>
	<g id="Layer_3">
		<rect class="st3" width="429" height="1800"/>
		<rect x="18" y="1488" class="st2" width="24" height="18"/>
		<text transform="matrix(1 0 0 1 455.7749 200.7611)" class="st4 st5 st6">IETE STUDENTS FORUM</text>
		<text transform="matrix(1 0 0 1 476.7583 296.7894)" class="st7 st5 st8">PRESENT</text>
		<rect x="454" y="334" class="st2" width="2583" height="257"/>
		<text transform="matrix(1 0 0 1 453.7212 554.2743)" class="st9 st5 st10">SMPC</text>
		<text transform="matrix(1 0 0 1 1053.7212 554.2743)" class="st11 st5 st10">’19</text>
		<text transform="matrix(1 0 0 1 476.7334 1679.9155)" class="st12 st5 st13">FOR FURTHER DETAILS, </text>
		<text transform="matrix(1 0 0 1 476.7334 1737.5155)" class="st12 st5 st13">CONTACT : ABHISHEK RAJAN, 9426493007 | ABHISHEK KUMAR, 8160079291</text>
		<text transform="matrix(1 0 0 1 3611.333 924.685)" class="st0 st1">Lorem ipsum</text>
		<rect x="1326" y="927" class="st2" width="1197" height="456"/>
		<text transform="matrix(1 0 0 1 476.7583 657.1072)" class="st7 st5 st8">FEATURING</text>
	</g>
	<g id="Layer_2_1_">
		
			<image style="overflow:visible;enable-background:new    ;" width="960" height="914" xlink:href="957702D9.png"  transform="matrix(0.299 0 0 0.299 76 430)">
		</image>
		
			<image style="overflow:visible;enable-background:new    ;" width="375" height="122" xlink:href="957702D4.png"  transform="matrix(1 0 0 1 28 778)">
		</image>
		<path class="st14" d="M220,76.4c3-0.5,6.2-0.5,9.2-0.1c3.2,1.5,3.6,5.4,4.6,8.4c1.3,2.5,4.5,2.8,7,2.2c0.6-0.4,1.2-0.9,1.8-1.3
			c1.9-3,5.3-6.4,9.2-5.4c1.5,0.1,2.9,0.6,4.3,1.1c2,1.2,3.3,3.2,4.3,5.2c-0.6,2.1-2.2,4.7-0.6,6.7c1.6,2.1,4.6,2,7,1.7
			c1.9-0.9,2.9-3,5-3.4c1.7-0.6,3.4,0.2,5,0.8c3.3,1.9,5.9,5.1,6.6,8.9c-1.3,2.2-2.3,5.8,0.1,7.6c1.8,1.9,4.1,3.4,6.5,4.4
			c3.2-0.2,5.9-3.3,9.2-2.4c3.6,3.4,7.8,6.6,9.4,11.6c-0.6,1.7-1.8,3-3,4.3c-1.8,3.3,0.8,6.9,3.5,8.7c2.7,1.3,5.9-0.5,8.6,0.8
			c2.1,2.2,3,5.3,4.8,7.8c1.4,1.9,0.5,4.6-0.9,6.1c-1.6,0.8-3,2-4.1,3.5c-0.2,3.1,0.9,6.1,2.4,8.7c2.2,1.6,5.2,1.5,7.8,2.4
			c0.9,0.7,1.8,1.6,1.7,2.8c0.3,3.5,1.3,7.4-0.7,10.6c-1.2,1.1-2.8,1.4-4.3,1.9c-1.8,1.1-1.7,3.4-1.9,5.2c-0.1,2.3-0.1,5.4,2.5,6.3
			c1.9,0.7,3.9,1.4,5.4,2.8c1,0.9,0.7,2.2,0.8,3.4c0.1,3-0.2,6.4-2.3,8.8c-2.3,0.8-4.9,0.7-7.2,1.6c-1.8,3.3-1.6,7.3-2.5,10.9
			c2.4,1.6,6.4,1.1,7.6,4.1c0.9,4.3-0.9,8.7-3.5,12c-2.7,0.5-5.5,0.4-8.2,0.4c-1.7,1.9-3.6,4.1-3.3,6.8c0.1,3.4,4.3,4.9,4.5,8.2
			c-0.5,3.7-3.3,6.5-6.1,8.8c-1.4,0.8-3.3,2.1-4.9,1.2c-1.4-0.8-3.1-2-4.7-0.8c-2.7,2.4-5.5,4.9-6.9,8.3c0.3,2.9,4,4.4,3.9,7.5
			c-2.8,3-5.8,6.1-9.6,7.9c-3,1-4.8-2.1-7.1-3.4c-3.5,0.4-6.3,2.9-8.6,5.3c-1.2,3.2,1.9,7.1-0.6,9.9c-2.7,1.9-5.9,3.8-9.2,3.5
			c-2.3-1.6-3.6-4.9-6.7-5.4c-2.2,0.3-4.4,0.6-6.5,1.4c-1,2.5-0.5,5.3-1.1,7.9c-0.2,1.3-1.6,1.8-2.6,2.4c-3.5,1.4-7.4,2.2-11.2,1.8
			c-1.3,0.1-1.5-1.3-1.9-2.2c-0.9-1.9-2.1-3.8-3.9-4.8c-2.8-0.4-5.6-0.4-8.3,0.1c-0.4,0.4-0.7,0.8-1.1,1.2c-0.6,2.2-1,4.6-2.4,6.5
			c-3.9,1.4-8.2,0.4-12.1-0.6c-0.8-2.1-1.1-4.4-1.6-6.6c-1.7-2.5-5.1-3-7.8-2.5c-0.4,0.4-0.8,0.9-1.2,1.3c-1,1.5-2,3.2-2.9,4.8
			c-3.2,0-6.3-0.8-9.3-1.9c-1.6-0.6-3.3-1.3-4.2-2.7c-0.1-2.3,0.4-4.7-0.1-6.9c-2.1-1.4-3.8-3.9-6.6-3.7c-1.2-0.1-2.1,0.8-3,1.3
			c-1,1.6-2.4,3.2-4.5,3c-4.9-0.3-9.6-3.1-12.5-7c-2.4-3.6,3.2-7.1,1.4-10.9c-1.2-2.2-3-3.9-4.9-5.5c-3.2-0.9-6.5-0.4-9.2,1.5
			c-3.2-0.4-5.5-2.8-7.5-5.1c-1.2-1.6-2.4-3.4-2.3-5.4c1.6-2.7,3.5-5.4,4.6-8.4c-0.4-2.4-2.1-4.4-3.9-5.9c-3.2-1.4-6.8,0.5-10.1-0.7
			c-2.3-2.5-4.4-5.7-4.4-9.2c0.6-3.7,5.6-4.2,6.8-7.4c-0.2-2.3,0-6.4-3.2-6.5c-3.1-0.6-7,0.2-9.4-2.3c-1.9-4.2-2.1-9.4,0.1-13.6
			c1.7-0.6,3.8-0.7,5.2-2c1.4-2.9,2-6.6,0.1-9.4c-1.2-2.3-4.2-2.1-6.3-3c-0.3-0.2-1-0.6-1.3-0.8c-1.2-4.1-0.6-8.7,1.6-12.4
			c1.7-0.7,3.7-0.8,5.4-1.5c1.1-0.8,2.4-1.9,2.3-3.4c0.1-2.5,0.4-5.1,0.8-7.6c-0.2-0.3-0.5-0.9-0.7-1.2c-1.8-1.6-3.9-3-5.2-5
			c0.2-3.8,1.2-7.9,3.7-10.8c2.7-1.2,5.6,0,8.3-0.1c2.1-1.9,2.5-4.9,3.8-7.3c-0.8-3.6-4.2-6.2-4.1-10c0.9-4.2,4.3-7.3,7.7-9.6
			c2.8-0.5,5.5,1,8.4,0.7c0.8-1.3,1.5-2.7,2.7-3.7c0.5-0.5,1.5-0.7,1.5-1.6c0.3-3-1.9-5.4-2.6-8.2c0-2.6,2.1-4.4,4-5.8
			c2.2-1.5,4.4-3.1,6.9-4c2.9,0.9,5.4,3.6,8.7,2.7c1.5-1,2.6-2.6,3.4-4.2c0.9-2,0-4.2,0-6.3c2.3-5.3,8.8-7.7,14.3-6.6
			c0.6,2.3,2.4,3.6,4.2,4.9c2.1-0.4,4.3-0.7,6.1-1.8c1.5-3-0.1-7.3,3-9.6c2.6-2.1,6.2-2.3,9.4-2.6c2.7,0.7,4,3.3,5.5,5.4
			c2.1,3.2,6.4,1.9,9.4,0.8C216.1,80.6,216.7,76.9,220,76.4z"/>
		<path class="st15" d="M220.1,80.8c2.9-0.8,6.1-1.3,8.9-0.1c0.7,2.4,0.9,5,2.5,7c2.6,3.9,8.4,3.9,11.9,1.2c2.2-1.4,3.2-4,5.3-5.5
			c2.8-0.1,5.7,0.6,7.9,2.2c1.5,1.9-0.7,4-0.6,6c0.1,2.6,2.6,3.9,4.3,5.5c2.1,1.4,4.8,2.3,7.3,1.8c1.9-1.1,3.1-3.1,5-4.2
			c4.3-1.8,9.7,3.2,7.8,7.5c-0.6,2.1-1.7,4.5-0.5,6.6c2.1,2.3,4.3,4.5,6.8,6.3c0.9,0.5,1.7,1.3,2.8,1.1c3.5-0.2,6.4-2.5,9.9-2.6
			c1.6,2.3,3.3,4.6,5,6.9c0.1,3.4-3.4,5.9-2.6,9.3c1,2.8,2.4,5.4,3.8,7.9c0.7,1.5,2.6,1.9,4.1,1.7c2.3-0.2,4.6-0.4,6.8,0.4
			c1.2,2.3,3,4.7,2.4,7.4c-1.8,1.9-4.6,3-5.3,5.7c0.1,3.5,1.6,6.8,2.5,10.2c0.3,1.7,1.8,2.8,3.4,3.3c2.2,0.6,4.4,0.8,6.7,1.2
			c0.8,2.8,1.3,5.8,0.2,8.6c-1.7,1.3-4.5,1.2-5.4,3.4c-1.4,2.9-0.9,6.2-0.9,9.3c-0.2,2.4,1.5,4.6,3.7,5.5c1.8,0.8,4.1,1.2,5.2,2.9
			c0,2.2,0.3,4.8-1,6.7c-2.4,1.3-5.4,0.5-7.9,1.5c-2.2,3.4-3.1,7.6-3.6,11.6c0,1.8-0.2,4.5,1.9,5.2c1.9,0.9,4.4,1.2,5.6,3.1
			c0.5,2.5-0.6,5.6-3.1,6.6c-2,0.8-4.2,0.1-6.2-0.2c-3.2,2.8-5.7,6.5-7.2,10.5c-0.6,1.5,0.7,2.7,1.6,3.7c1.4,1.6,3.5,2.8,4.1,5
			c0.3,3.7-3.5,7.4-7.2,6.3c-1.3-0.3-2.5-1-3.7-1.5c-3.6,0.7-6.2,3.5-8.5,6.2c-1.4,1.8-3,3.6-3.6,5.9c0.7,2.8,4.4,4.4,3.6,7.6
			c-1.6,2.5-4.3,3.8-6.7,5.3c-2-1.3-3.6-2.9-5.5-4.3c-4.6,0.3-7.7,4-11.7,5.7c-1.3,0.5-1.4,2-1.2,3.2c0.4,2.5,1.4,5,1.1,7.6
			c-2.1,1-4.3,1.9-6.6,2.5c-2.1-1.6-4-3.5-5.8-5.5c-4,0.3-8,1.2-11.3,3.6c-0.7,2.4,0.6,5.2-0.8,7.4c-2.9,2.3-6.8,2.3-10.3,2.3
			c-1.3-2.3-2.3-4.9-4.1-6.8c-4.2-1-8.6-0.8-12.7,0.5c-1.2,2.2-1.7,4.7-3.2,6.8c-1.9,1.2-4.5,0.7-6.6,1.4c-1-0.8-2.4-1.6-2.4-3.1
			c-0.5-2,0.1-4.7-1.6-6.2c-2.7-0.9-5.6-0.9-8.3-1.8c-4-0.2-4.1,5.3-7.6,6.3c-2.6-0.2-4.9-1.6-7.2-2.8c-1-2.6,0.3-5.9-1.9-8.1
			c-2.3-3-6-4.4-9.7-4.8c-2.6,1.1-3.8,4.4-6.9,4.4c-3.5,0.2-6.6-1.9-9.3-3.8c0.2-3,1.6-5.7,2-8.7c0.2-2.1-1.3-3.8-2.5-5.4
			c-1.4-1.7-2.6-3.7-4.7-4.5c-2.9-1.3-6,0.2-8.8,1.1c-1.1,0.6-2.2-0.2-3.1-0.7c-2-1.4-3.6-3.2-4.8-5.2c-0.4-3.9,4.2-5.6,5-9.2
			c-1.3-3.7-2.9-7.8-6.5-9.8c-2.7-0.5-5.5,0.5-8.2,0.6c-2.1-1.7-3.9-3.9-4.4-6.6c1-2.6,4.4-2.6,6.2-4.5c1.1-2.2,1.7-4.9,1-7.4
			c-0.8-2.4-2.3-4.4-3.6-6.5c-3.1-0.6-6.5,0.7-9.3-1c-2.6-2-1.5-5.6-1.8-8.4c1.9-1.3,4.2-1.5,6.3-2.3c0.9-0.3,1.6-1,1.7-2
			c0.7-4.1-0.6-8.1-1.5-12c-2.4-1.5-5-2.4-7.5-3.7c-1-2-0.4-4.3,0.4-6.3c1-3.9,6.7-0.9,8.4-4c1.8-4.2,2.6-8.9,2.3-13.5
			c-1.1-2.9-4.4-4-6.3-6.3c-0.4-2.4,0.9-4.7,2.4-6.4c2.3-0.8,4.7,0,7,0.4c3.8-2.9,6.2-7.5,6.3-12.2c-0.3-3-3.8-4.5-4.3-7.5
			c-0.2-3.1,2.5-5.2,4.6-7.1c2.5-1.4,5.3,0.4,7.7,1.2c4.2-1.9,8.2-5.2,9.2-9.8c0.1-2.8-2.5-5.1-2-8.1c0.1-0.9,1.1-1.3,1.7-1.9
			c1.7-1.2,3.5-2.9,5.7-2.4c2.3-0.1,3.8,2.6,6.2,1.8c3.5-0.8,6-3.9,7.6-7c1.2-2.1,1.2-4.6,1.3-7c0.9-2.7,4-4.2,6.7-4
			c3.5,0.3,3.7,5.2,7.1,5.7c2.4-0.3,4.6-1.3,6.7-2.4c1.5-0.9,3.2-1.7,4.1-3.3c0.4-2.2,0.5-4.4,1-6.6c1.8-2.1,4.8-1.8,7.3-1.7
			c1.2,1.8,2,3.8,3.5,5.4c0.9,1,2.4,0.9,3.6,1c2.1,0,4.3,0,6.4,0.1c1.3,0.2,2.3-0.8,3.1-1.7C218,84.5,219,82.6,220.1,80.8z"/>
		<path class="st16" d="M208.3,96h2.1c1.5,2.4,2.9,5.2,4.6,7.8c-0.1-2.8-0.3-5.6-0.4-7.8h1.7c0.9,3.6,0.6,8,0.9,12.3
			c-0.5,0.1-1.5,0.2-2,0.2c-1.7-2.5-3-5.3-4.5-7.9c-0.1,2.7,0.2,5.4,0.2,8.1c-0.5,0-1.5-0.1-1.9-0.2
			C208.7,104.2,208.5,99.9,208.3,96z"/>
		<path class="st17" d="M223,95.4c0.8,0.1,1.6,0.1,2.3,0.2c1,4.4,2.4,8.7,3.3,13.1c-0.7-0.1-1.5-0.1-2.2-0.2c-0.2-1-0.4-1.9-0.7-2.9
			c-1.4-0.1-2.8-0.2-4.2-0.3c-0.4,1-0.7,2-1.1,3c-0.5-0.1-1.6-0.2-2.1-0.2C219.8,103.8,221.6,99.7,223,95.4z"/>
		<path class="st18" d="M200,96.6c2.2-0.6,4.5,0.7,5.4,2.7c1.3,3.1,1.7,7.3-1.1,9.7c-2.6,1.8-6.4,0.4-7.3-2.7
			C195.6,103.1,195.7,97.5,200,96.6z"/>
		<path class="st19" d="M233.3,96c0,3.6-1,7.2-1.2,10.8c1.6,0.2,3.2,0.5,4.9,0.7v2.1c-2.4-0.2-4.9-0.6-7.3-0.9
			c0.4-4.3,1.2-8.5,1.6-12.7C232.6,96,232.1,96,233.3,96z"/>
		<path class="st19" d="M190.6,99.1c0.7-0.1,1.4-0.3,2.1-0.4c0.9,4.2,2.1,8.4,3,12.6c-0.7,0.1-1.3,0.3-2,0.4
			C192.6,107.5,191.6,103.3,190.6,99.1z"/>
		<path class="st20" d="M198.6,100.6c0.4-1.9,3.3-2.4,4.5-0.9c1.4,2.3,1.7,5.4,0,7.6c-1.1,0-2.4,0.5-3.2-0.5
			C198.5,105.1,198.1,102.6,198.6,100.6z"/>
		<path class="st21" d="M224,98.6c0.5,1.6,0.8,3.2,1.2,4.8c-0.9,0-1.8-0.1-2.7-0.1C222.8,101.7,223.4,100.1,224,98.6z"/>
		<path class="st22" d="M245.1,98.8c0.7,0.1,1.4,0.3,2.1,0.4c-1,4.2-2,8.4-3,12.6c-0.7-0.1-1.3-0.2-2-0.3
			C242.9,107.2,244.2,103,245.1,98.8z"/>
		<path class="st23" d="M180.9,102.5c2.6-0.8,5.1-1.9,7.8-2.5c0.1,0.7,0.1,1.4,0.2,2.1c-0.8,0.4-1.7,0.5-2.4,1.1
			c0.7,3.6,2.3,6.8,3.2,10.4l-0.8-0.3c-0.3,0.1-0.9,0.3-1.2,0.4l-0.1,0.1c-1.1-3.3-2.3-6.6-3.3-9.9c-1,0.3-2.1,0.6-3.1,0.9
			C181.1,104,181,103.3,180.9,102.5z"/>
		<path class="st24" d="M95.5,107.3c4.4-4.4,10.6-6.6,16.7-7.2c-2.1,6.8-5,13.6-10.4,18.5c-3.7,3.9-8.8,5.8-13.8,7.5
			c-1.6,3.5-3,7.1-4.1,10.7c5-2,11-2.9,15.9,0.1c-2,0.8-4.1,1.4-5.6,3c-2.8,2.7-5,6-8.4,7.9c-1.8,1-3.9,1.1-6,1.2
			c-1.3,4.2-2.4,8.5-3.2,12.9c1-0.6,2-1.3,3-1.9c0.6-0.3,1.2-0.6,1.8-0.9c0.8-0.3,1.6-0.5,2.4-0.7c-2.4,1.3-5.4,1.9-7.1,4.2
			c-1.1,2.7-1,5.6-1.8,8.4c0,0.1-0.1,0.3-0.1,0.5c-0.7,3.3-1.1,6.7-1.1,10.1c4-4.5,9.8-7.9,16-6.6c-1.2,1.1-2.6,2-3.5,3.3
			c-2.1,3.1-2.9,7-5,10.1c-1.8,2.9-5,4.6-8.4,4.9c-0.1,6.4,0.5,12.8,1.1,19.2c0.2-4.7,2-9.4,5.4-12.7c2.4-2.2,5.5-4.4,9-4.1
			c-3.7,3.5-3,8.9-4.1,13.4c-0.7,3.5-2.8,6.8-6.2,8.2c-2.2,0-3.1-2.7-3.6-4.4c0.1,5.9,1.8,11.6,3.2,17.3c2.6,7.6,4.9,15.5,9.2,22.4
			c0.8-6.4,4.6-12.6,10.7-15c-2.1,4.7-0.9,9.9-0.9,14.9c0.1,3.8-2,7.2-4.8,9.5c2.1,3.2,4,6.6,6.7,9.3c-0.5-6.9,3.2-14.2,9.6-17
			c-2.7,5.8,0.8,12-0.3,18c-0.4,2.6-2.1,4.6-3.8,6.5c3.8,4.1,7.5,8.3,11.8,11.9c4.8,5.1,10.5,9.3,16.1,13.4
			c5.5,3.2,10.4,7.3,16.1,10.3c7.9,4.2,15.8,8.5,24.2,11.7c3,0.9,6,2.1,8.9,3.3c5.7,2.2,11.5,4,17.5,5.3c2.9,0.6,5.6,1.8,8.6,2.1
			c1.4-6.3,5.6-11.5,9.6-16.4c3.5,3.3,7,6.6,9.2,10.9c2.3,4,3.2,9.2,1.1,13.5c-2,4.2-5.5,7.4-9.4,9.9c-0.7,0.5-1.5-0.2-2.1-0.5
			c-3.2-2.4-6.3-5.3-7.8-9.1c-0.8-1.8-0.8-3.8-1.2-5.7c-0.3-0.2-1-0.5-1.3-0.6c-0.7,2.1-1.8,4.2-4,5.1c-4.6,2.1-9.9,1.7-14.5,3.8
			c-1.4,0.6-2.6,1.4-3.9,2.2c1.2-6.2,6.6-10.6,11.9-13.6c-4.7-1.5-9.4-2.8-14-4.5c-1.3,2-3,3.9-5.4,4.6c-6.1,1.8-12.8-1.5-18.6,1.5
			c0.2-1.8,1.9-2.9,3-4.1c2.8-2.9,6.4-4.5,10.1-5.9c-3.5-2-7.3-3.4-10.9-5.1c-1.9,1.7-4.1,3.3-6.8,3.3c-5.8,0.2-11.6-2.7-17.3-0.8
			c2.9-4.6,8.2-6.7,13.1-8.4c-3.2-1.7-6.2-3.7-9.3-5.5c-1.8,1.6-4.1,3-6.7,2.8c-6.5-0.4-11.7-5.7-18.4-5c4-3.5,9.4-4.7,14.6-4.9
			c-3.2-2.7-6.4-5.4-9.8-7.9c-2.2,1.2-4.7,1.9-7.2,1.2c-5.7-1.6-10.3-6.4-16.6-6.4c3.8-3.3,9.3-3.7,14.2-3.7
			c-3.1-3.9-6.6-7.5-9.9-11.3c0.4,1.6,0.6,3.2,0.7,4.8c-2,0.5-4.2,0.9-6.3,0.1c-5.6-2.1-8.5-8.1-14.1-10.2c-0.6-0.3-1.4-0.4-1.8-1
			c5.2-1.8,11.1-1.4,16,1.1c0.6,1,1.2,0.2,1.6-0.3c-3.6-4.9-6.8-10.1-9.8-15.4c-2-4.7-4.4-9.2-6.1-14c-1.9-0.2-3.9-0.3-5.6-1.3
			c-5.3-3.1-7.1-9.8-12.4-12.8c-0.5-0.4-1.4-0.5-1-1.3c5.3-0.6,10.4,1.1,14.9,3.6c-0.7-3.6-1.7-7.2-2.3-10.8
			c-1.9-0.3-3.9-0.3-5.5-1.5c-5.7-3.9-6.8-12.1-13.2-15.3v-0.3c6.4-0.6,12.5,2.4,16.9,6.8c-0.3-7.5-0.7-15-0.4-22.5
			c1.2-9.9,2-20,4.8-29.7c0.7-3.6,2.2-7,2.5-10.6c0.1-2.9,2.2-5.1,3-7.8c1.7-5.1,4.1-9.9,5.5-15.1C88.2,117.1,91.1,111.5,95.5,107.3
			z"/>
		<path class="st25" d="M250,100.6c0.7,0.1,1.4,0.3,2,0.4c0.4,3.2,0.8,6.4,1.4,9.6c0.8-2.7,1.8-5.4,2.6-8c0.6,0.2,1.3,0.4,1.9,0.6
			c-1.4,4.1-2.8,8.2-4.1,12.3c-0.7-0.3-1.4-0.6-2.1-0.9c-0.4-3-0.6-6-1.2-9c-0.9,2.5-1.8,5-2.5,7.5c-0.7-0.2-1.3-0.3-2-0.5
			C247.3,108.6,248.8,104.7,250,100.6z"/>
		<path class="st26" d="M325.6,100.2c5.1,0.4,10.1,2.2,14.2,5.3c6,4.6,9.5,11.6,11.3,18.8c3.4,5.8,5,12.5,7.6,18.7
			c1.8,6.2,3.3,12.5,5.1,18.7c0.1,0.8,0.1,1.5,0.2,2.3c0-2.3-0.4-4.6,0.2-6.8c1.2-5.1,4.4-9.6,8.4-13c0.3,0.3,0.3,0.2,0.6,0.5
			c-2.9,6.3,0.8,13.4-1.7,19.9c-0.6,1.7-1.9,2.9-3.2,4.2c-1.9-0.8-3.4-2.3-4.1-4.3c1.1,6.9,1.9,13.9,2.7,20.9
			c0.3,7.6,0.1,15.2-0.6,22.8c4.5-4.1,10.4-7.4,16.7-6.4v0.1c-6.5,3-7.4,11.5-13.2,15.3c-1.5,0.9-3.3,1.2-5.1,1.5
			c-0.6,3.6-1.6,7.1-2.4,10.7c4.4-2.5,9.4-3.9,14.4-3.6c0.1,0.5,0.1,0.4,0.2,0.9c-6,2.7-7.8,10-13.3,13.3c-1.6,1-3.5,1-5.3,1.5
			c-2.1,5-4.5,9.8-6.7,14.7c4.9-5.3,12.9-6.9,19.7-5.1c-1.8,1-3.7,1.8-5.2,3.2c-3.2,2.9-5.7,6.6-9.5,8.7c-1.9,1.1-4.2,1-6.3,0.9
			c-0.6-1.7-0.5-3.6,0-5.3c-2.9,4.4-5.7,8.8-8.6,13.2c5.5-3,12.3-4.3,18.3-1.9c-3.3,1.1-6.2,3-8.5,5.5c-3.3,3.4-7.7,7.1-12.8,5.8
			c-0.4-0.6-0.7-1.1-1-1.7c0.2-1.2,0.5-2.3,0.8-3.5c-3.4,3.8-6.8,7.6-10.2,11.4c4.9-0.1,10.5,0.3,14.4,3.6
			c-6.5-0.1-11.2,5.3-17.4,6.5c-2.3,0.6-4.5-0.3-6.5-1.4c-3.3,2.6-6.7,5.1-9.8,8c5.2,0.1,10.4,1.5,14.6,4.5c-1.9,0.6-3.9,0.3-5.7,1
			c-3.2,1.2-6.3,2.8-9.6,3.8c-2.9,1-6,0.5-8.5-1.1c-0.1-0.4-0.4-1.3-0.5-1.8c-3.4,2.1-6.8,4-10.2,6.2c5.1,1.3,10.3,3.7,13.2,8.2
			c-2.8-0.7-5.7-1-8.5-0.3c-4.2,0.6-9,2.3-12.9-0.2c2.4-0.6,4.8,0,7.3-0.2c3.6-0.3,7.1-1,10.7-1.4c-3.3-2.8-7.5-5-11.9-4.4
			c-2.6,0.6-4.8,2.2-7.2,3.4c0.5,0.8,1.3,1.6,1.1,2.7c-0.9-0.6-1.8-1.3-2.7-1.9c-3.8,1.2-7.2,3.3-11,4.6c0,0.3,0,0.2,0,0.6
			c5.5,1.2,10.2,4.9,13.5,9.4c-0.5,0-0.9-0.1-1.4-0.2c-5.6-2.1-11.7,0.6-17.3-1c-2.3-0.7-4.7-2.3-5-4.8c-4.6,1.6-9.5,2.7-14,4.7
			c5.2,2.9,9.9,7.3,11.5,13.2c-4-2.5-8.6-3.6-13.2-4.3c-3.7-0.5-8.3-1.9-9-6.2c-1.2,0.1-2.5,0.3-3.7,0.5c-0.2-1.3-0.1-0.7-0.4-2.1
			c2.7-0.6,5.4-1.1,8-1.9c0-0.3,0-0.2,0-0.4c-1.4-0.5-2.8-0.6-4.2-0.9c0.1-2.8,0.4-5.7,2.2-8c3.3-4.7,10.4-6.2,12-12.2
			c2,3.5,1.3,8,0,11.6c-1.4,4.1-4.6,7.5-8.6,9.3c5.9-0.7,11.5-2.9,17.1-4.7c-0.3-2.8-0.5-5.8,0.9-8.4c2.6-5.3,9.3-7.8,10-14.1
			c1.9,2.1,2.2,5.1,2.2,7.8c0.1,3.8-1.5,7.4-3.3,10.6c1.7-0.5,3.4-1.1,5-1.8c4-1.8,7.9-3.5,11.7-5.7c6.2-3.1,12.4-6.4,17.9-10.5
			c-1.1,0.3-2.2,0.5-3.3,0.8c-0.9-2.1-1.9-4.3-1.7-6.7c0.1-4.5,3-8.2,4.6-12.2c0.8-1.9,0.6-4.1,0.8-6.1c6.4,6.1,7.3,18.1,0.1,23.9
			c7.9-4.9,15.3-10.5,21.8-17.1c4.2-3.7,8.3-7.6,11.6-12c-1.4-1.6-2.8-3.3-3.3-5.4c-1.3-4.4,0.3-8.8,0.5-13.2c0.2-2-0.7-3.9-1.2-5.8
			c6.6,2.8,10.2,10.2,9.7,17.1c2.7-2.7,4.6-6.1,6.7-9.3c-1.8-1.6-3.5-3.4-4.2-5.8c-1.6-4.9,0.3-10-0.5-15c-0.4-1.3-0.9-2.5-1.3-3.7
			c4.3,1.6,7.7,5.2,9.4,9.4c0.8,1.9,1,4.1,1.7,6.1c2.9-5.5,5.5-11.2,7.2-17.2c3.1-7.5,4.8-15.5,5.6-23.5c1.3-6.3,1.5-12.7,1.4-19.1
			c-3-0.1-6.1-1.4-8-3.8c-2.7-3.3-3.5-7.6-5.8-11.2c-1-1.4-2.4-2.2-3.6-3.4c6.8-1.2,13.5,2.7,17,8.3c-0.6-4-0.5-8.1-1.5-12.1
			c-2.4-0.3-5,0-7.1-1.5c2,0.7,4.2,1,6.3,1.2c0-2.7-0.4-5.5-0.8-8.2c-0.7-4.7-2.1-9.3-3.4-13.8c-2.3,0.2-4.6,0.1-6.6-1.1
			c-5.1-2.5-7.2-9-13-10.3c-1.1-0.2-0.4-1.2,0.4-1.2c5-2.3,10.6-1.1,15.4,1.2c-1.1-3.8-2.9-7.5-4.3-11.2c-7-1.5-13.4-5.4-17.8-11.1
			C329.1,110.6,326.5,105.5,325.6,100.2z"/>
		<path class="st27" d="M100.7,104.6c2.9-1.5,6.1-2.9,9.4-2.8c-2.3,7.9-6.9,15.3-14.1,19.5c-2.8,1.6-5.8,3.1-9.1,3.3
			C89,116.8,93.3,108.8,100.7,104.6z"/>
		<path class="st27" d="M327.1,101.7c6.2,0.5,12.1,3.8,16,8.6c3.6,4.1,5.5,9.4,7.1,14.6c-1-0.3-2.2-0.3-2.9-1.2
			c-1.3-0.2-2.7-0.3-3.8-1.2c-6.7-2.8-11.5-8.6-14.5-15.1C328.1,105.7,327.5,103.7,327.1,101.7z"/>
		<path class="st28" d="M174.5,105.5c0.6-0.3,1.3-0.6,2-0.9c2.9,2.9,5.5,6,8.3,9c0.9,0.7-0.2,1.6-0.9,1.8c-1-0.4-1.7-1.5-2.4-2.2
			c-1.2,0.6-2.4,1.2-3.7,1.7c0.1,1.1,0.2,2.1,0.3,3.2c-0.7,0.2-1.4,0.5-2,0.7C175.6,114.4,175,109.9,174.5,105.5z"/>
		<path class="st29" d="M260.2,110c-0.1-2.1,1.8-3.5,3.6-4c1.3,0.6,2.7,1.1,3.5,2.4c0.9,1.2,0.5,2.8-0.1,4.1c-0.4-0.2-1.3-0.7-1.7-1
			c0.6-1.7-1.1-3.8-2.9-2.8c-0.6,2.4,2.4,3.6,2.7,5.8c0.4,2.1-1.1,4.1-3,4.8c-1.9,0.3-3.8-0.8-4.8-2.3c-0.8-1.4-0.3-3,0-4.4
			c0.7,0.2,1.4,0.4,2.1,0.7c-0.1,0.5-0.4,1.4-0.5,1.9c0.5,1.5,2.9,2.8,3.8,1C263.4,113.7,259.9,112.5,260.2,110z"/>
		<path class="st15" d="M176.8,108.1c1.1,1.1,2.2,2.2,3.2,3.4c-0.9,0.4-1.7,0.7-2.6,1C177.2,111.1,177,109.6,176.8,108.1z"/>
		<path class="st30" d="M167,109.6c0.6-0.2,1.1-0.4,1.7-0.7c2,3.7,4.3,7.3,6.4,11.1c-0.6,0.4-1.2,0.7-1.8,1c-2.6-1.5-5-3.3-7.6-4.7
			c1.1,2.2,2.6,4.3,3.7,6.5c0.3,0.8-0.9,1-1.3,1.5c-2.1-3.8-4.5-7.4-6.5-11.2c0.6-0.3,1.1-0.7,1.7-1c2.6,1.6,5.1,3.3,7.7,4.9
			C169.8,114.4,167.9,112.2,167,109.6z"/>
		<path class="st31" d="M270.3,111.6c0.2-0.4,0.7-1.1,0.9-1.4c2.2,1.6,4.4,3.2,6.6,4.9c-0.3,0.6-0.7,1.2-1,1.8
			c-0.9-0.6-1.8-1.2-2.7-1.8c-2,2.9-4,5.9-6.2,8.6c-0.4-0.3-1.2-0.9-1.6-1.2c2-3,4.1-5.8,6.1-8.8
			C271.8,113.1,270.2,112.8,270.3,111.6z"/>
		<path class="st32" d="M187.7,113.6c0.3-0.1,0.9-0.3,1.2-0.4l-0.1,0.5C188.5,113.7,188,113.7,187.7,113.6z"/>
		<path class="st33" d="M219.8,114c1.6-1.1,3.5-0.4,5.2,0c-0.4,0.1-1.1,0.3-1.5,0.3c-1-0.1-2.1-0.2-3.1-0.3H219.8z"/>
		<path class="st34" d="M187.7,121.2c9.8-4.1,31.3-7.1,31.3-7.1s0,50.1,0,77.5c-25.4,0.1-50.9,0-76.3,0.1c0.3-7,1.2-13.9,2.8-20.7
			c0.3,0,0.9,0,1.2,0c0.2,0.2,0.6,0.8,0.8,1.1c-1.2,5.4-1.8,11-2.1,16.6c5.4,0,10.8,0.1,16.2,0c-0.1-3.6,0-7.1,0-10.7
			c0.5,0,1.8,0,2.3,0c-1.1-4.9-3.8-9.6-2.6-14.7c0.8-4.2,3.6-7.9,7.6-9.6c4.1-1.7,9.3-1.5,12.8,1.6c3.7,3,4.9,8.1,4.5,12.7
			c-0.7,3.4-1.8,6.7-2.8,10.1c0.5,0,1.4,0.1,1.7,0.1V193c1.4,0,0.8,0,2.1,0.1c0.3-5.1,0.3-10,0.3-15.1c1.4,0,2.8,0,4.2,0
			c1.6-13.7,3.1-27.2,4.7-40.9c6.5,0.2,4,0.2,10.5,0.4c0.5,13.5,0.9,27.1,1.4,40.5c1,0,3,0,3,0v10h4.8v-70.9
			c-9.4,0.6-18.6,2.6-27.3,6C188.3,122.5,187.9,121.6,187.7,121.2z"/>
		<path class="st35" d="M219.4,113.5l0.6,0.1c0,19.9,0,39.9,0,59.8c-0.1,5.5,0.2,10.9-0.1,16.4c-0.7-3.7-0.1-7.5-0.3-11.3
			c0-20.5-0.1-41,0-61.6C219.5,115.8,219.5,114.7,219.4,113.5z"/>
		<path class="st36" d="M220.4,113.8c1,0.1,2,0.2,3.1,0.3c16.4,1.6,32.9,7.1,45.8,17.6c10.6,8.5,18.5,20.2,22.8,33.1
			c2.9,8.1,4.2,16.7,4.7,25.2c-25.5,0-50.9,0-76.4,0c0.3-5.5,0.1-10.9,0.1-16.4C220.4,153.7,220.3,133.7,220.4,113.8z"/>
		<path class="st37" d="M271.6,126.2c2.5-3.5,4.8-7.1,7.6-10.4c0.5,0.4,1,0.9,1.5,1.3c-2.5,3.5-4.9,7-7.4,10.5
			C272.6,127.2,272,126.8,271.6,126.2z"/>
		<path class="st38" d="M189.6,125c8.4-3.3,17.4-5.2,26.4-5.8c0,22.8,0,72.7,0,72.7c-3,0.1-1.6,0-4.6,0.1c-0.2-4.7,0.1-9.2-0.1-14
			c-1,0-2.3,0-3.3,0c-0.5-13.5-0.9-27.1-1.4-40.5c-6.5-0.2-4-0.1-10.5-0.4c-1.6,13.7-3.1,27.2-4.7,40.9c-1.4,0-1.7,0-3,0
			c0,4.2,0,8.3-0.2,12.4c-1.5,0-0.8,0-2.3,0c-0.1-4.1,0-8.1,0-12.3c-0.5,0-1.4-0.1-1.7-0.1c1-3.3,2.1-6.7,2.8-10.1
			c0.5-4.6-0.8-9.7-4.5-12.7c-3.5-3-8.6-3.3-12.8-1.6c-3.9,1.6-6.8,5.4-7.6,9.6c-1.2,5.1,1.6,9.9,2.6,14.7h-1.9c0,3.2-0.1,6.4,0,9.6
			c-5.2,0.1-10.5,0.1-15.7,0c0.3-5,0.9-10,2-14.9c3.2-14.1,10.6-27.5,21.8-36.8C176.6,131.4,182.9,127.7,189.6,125z"/>
		<path class="st39" d="M231.2,117.1c2.4,0,5-0.2,7,1.4C236,120.3,232.4,120,231.2,117.1z"/>
		<path class="st40" d="M154.8,118.4c3,3.1,5.5,6.5,8.4,9.7c-0.5,0.6-1.1,1.1-1.7,1.5c-2.7-3.3-5.4-6.5-8.2-9.6
			C153.9,119.4,154.4,118.9,154.8,118.4z"/>
		<path class="st41" d="M281.3,120.4c0.4-0.3,1.1-1,1.5-1.3c2.1,1.9,4.1,3.7,6.1,5.6c-0.5,0.5-1,1-1.6,1.5c-0.7-0.7-1.5-1.3-2.2-1.9
			c-2.4,2.5-4.5,5.2-6.9,7.7c-0.7-0.3-1.2-0.6-1.8-1.1c2.2-2.6,4.7-5.1,6.7-7.8C283,121.9,281.9,121.3,281.3,120.4z"/>
		<path class="st42" d="M159.8,141.4c7.4-9,17.2-15.9,27.9-20.4c0.2,0.4,0.6,1.3,0.8,1.7c-6.9,2.8-13.4,6.6-19.1,11.4
			c-11.5,9.6-19.2,23.3-22.5,37.9c-0.2-0.2-0.6-0.7-0.8-1c-0.3,0-0.9,0-1.2,0C147.7,160.2,152.6,149.9,159.8,141.4z"/>
		<path class="st43" d="M243.6,120.6c2.2,0.1,4,1.5,6,2.3c3.5,1.7,7.2,3.3,9.8,6.3c-3.9-0.6-7.6-2.5-10.1-5.5
			C247,123.6,244.6,122.9,243.6,120.6z"/>
		<path class="st44" d="M68.4,121.8c2.3,0.6,3.6,2.8,5.1,4.5c3.1,4.1,5.4,9.6,4,14.8c-0.5,2.2-2.1,3.8-3.7,5.3
			c-1.6-1.3-3.1-2.8-3.7-4.7C67.9,135.3,71.4,128.1,68.4,121.8z"/>
		<path class="st45" d="M366.5,122.9c0.5-0.6,1.3-0.8,2.1-1.1c-2.6,5.6-0.2,11.8-1.1,17.7c-0.4,2.7-1.8,5.7-4.6,6.6
			c-1.3-1.5-3.1-2.8-3.3-5c-1-3.5-0.2-7.1,1.3-10.4C362.3,127.9,364.2,125.2,366.5,122.9z"/>
		<path class="st46" d="M198.7,127.9c2.9-3.4,7.6-4,11.8-4.4c-0.2,3.6-1,7.3-3.6,10c-2.6,2.8-6.5,3.6-10.2,3.6
			C196.4,133.9,196.5,130.4,198.7,127.9z"/>
		<path class="st18" d="M147.1,126.2c0.5-0.5,1-1.1,1.6-1.6c4,1.8,8,3.8,12,5.6c-0.5,0.6-1,1.1-1.5,1.7c-0.9-0.4-1.9-0.9-2.8-1.3
			c-0.9,1-1.8,2.1-2.7,3.1c0.5,0.8,0.9,1.7,1.4,2.6c-0.5,0.6-0.9,1.1-1.4,1.7C151.5,134.2,149.4,130.1,147.1,126.2z"/>
		<path class="st27" d="M70.9,125.5c0.8,0.5,1.6,1,2.1,1.9c2.2,3.2,3.9,6.9,3.8,10.9c0,2.5-1,5.3-3.3,6.6c-2-2.1-3.2-4.9-3.1-7.9
			C70.6,133.2,70.7,129.3,70.9,125.5z"/>
		<path class="st47" d="M240.3,125.7c2.2,0.3,4.3,1.4,5.6,3.3C243.9,128.2,241.8,127.3,240.3,125.7z"/>
		<path class="st48" d="M364.3,127c0.4-0.7,1.2-1.1,1.9-1.5c0,4.1,0.4,8.1,0.4,12.2c0,2.7-1.2,5.2-3,7.2c-2.2-1.4-3.4-4.1-3.4-6.6
			C360.1,134.2,362.1,130.4,364.3,127z"/>
		<path class="st49" d="M199.5,134c-0.2-4.2,3.8-6.8,7.6-7.2C206.3,130.6,203.3,133.5,199.5,134z"/>
		<path class="st50" d="M283.1,133.8c2-2.8,4.7-5,7.1-7.4c0.3,0.3,0.9,1,1.2,1.3c-1.6,2.9-4.9,4.5-6.5,7.4c-0.4,1.5,1.2,3.1,2.7,2.3
			c2.6-1.9,4.6-4.5,7-6.6c0.4,0.7,1.7,1.7,0.6,2.4c-2.3,2.2-4.3,4.6-6.9,6.4C285.1,141.4,281,136.8,283.1,133.8z"/>
		<path class="st15" d="M150.2,127.6c1.5,0.7,2.9,1.4,4.3,2.1c-0.6,0.6-1.3,1.3-1.9,1.9C151.7,130.3,150.9,128.9,150.2,127.6z"/>
		<path class="st51" d="M224.4,127.7c0.6-0.5,1.8,0.3,1.4,1.1C225.2,129.2,224,128.4,224.4,127.7z"/>
		<path class="st52" d="M251.3,129.6c7.9,3,15.7,6,23.6,8.9c0,0.4-0.1,1.2-0.1,1.6c-8.2-3-16.6-5.6-24.6-9.2
			C250.5,130.6,251,129.9,251.3,129.6z"/>
		<path class="st53" d="M234.8,130.7c0.6-0.9,1.9-0.6,2.9-0.8c0.1,0.2,0.2,0.7,0.2,0.9c0.2,1.7,0.2,3.3-0.9,5v0.4
			c0-0.1-1.1-0.1-2.1-0.2h0.2c0.8-0.1,1.7-0.2,2.9-0.3v-4.8C236.6,130.8,235.7,130.7,234.8,130.7z"/>
		<path class="st54" d="M142.7,130.6c2.2,1.3,4,3.1,5.9,4.7l0.1,0.1c1.2,0.9,2.4,1.8,3.4,2.8c1,0.6,0.1,1.9-0.8,2
			c-1.5-1-2.8-2.2-4.2-3.2c-0.8,1.1-1.7,2.2-2.5,3.2c1.4,1.2,2.8,2.3,4.3,3.5c-0.4,0.5-0.7,1.1-1.3,1.5c-3.5-2.4-6.5-5.3-9.8-8
			c0.3-0.4,0.9-1.2,1.1-1.7c1.4,1,2.7,2,4,3.2c0.9-1,1.8-2.1,2.7-3.2c-1.2-1.1-2.4-2.1-3.7-3C142.1,131.9,142.4,131.2,142.7,130.6z"
			/>
		<path class="st47" d="M224.2,130.6c1-0.3,1.4,0.1,1,1.1C224.2,132,223.9,131.6,224.2,130.6z"/>
		<path class="st55" d="M235.2,130.7c0.9,0.1,1.9,0.1,2.8,0.1c0,1.6,0,3.2,0,4.8c-0.8,0.1-1.7,0.2-2.5,0.3
			C235.4,134.2,235.4,132.4,235.2,130.7z"/>
		<path class="st56" d="M238.2,130.9l0.8-0.1c0,1.7,0,3.5,0,5.2h-0.7C238.3,134.2,238.4,132.5,238.2,130.9z"/>
		<path class="st57" d="M148.6,135.3l0.1,0.1C148.7,135.4,148.6,135.3,148.6,135.3z"/>
		<path class="st58" d="M251.6,135.2c1.9,0.2,3.5,1.2,5.3,1.9c7.1,2.6,14.4,4.4,21.4,7.3c1.9,0.5,2.8,2.4,3.8,3.9
			c-0.7,0.4-1.5,0.7-2.3,0.3c-3.7-1.2-7.2-3-10.9-4.1c-0.7-0.3-1.5-0.2-2.2,0.1c0.6,0.9,1,2.1,2.1,2.5c2,0.7,4.2,0.6,6.1,1.6
			c3.9,2,8.5,2.9,11.6,6.2c-1.5,0.5-3.1,1.4-4.6,0.5c-9.3-3.9-18.9-7.3-27.3-12.9c-1.6-1.1-3.2-2.1-4.3-3.6c5.6,0.9,9.9,6,15.7,5.7
			c0-0.2,0.1-0.6,0.1-0.9c-3.8-2.1-7.8-4.1-11.6-6.1C253.5,136.8,252.1,136.5,251.6,135.2z"/>
		<path class="st59" d="M88.1,136c2.7-0.2,5.6-0.7,8.2,0.4c-2.7,0-5.4-0.2-8,0.3L88.1,136z"/>
		<path class="st60" d="M296.5,136.8c0.6-0.4,1.2-0.7,1.8-1.1c1.7,2.2,3,4.7,4.5,7c-0.6,0.4-1.2,0.8-1.8,1c-0.6-0.7-1.1-1.6-1.6-2.3
			c-3.1,1.7-5.9,4-9,5.7c-0.3-0.6-0.6-1.3-0.9-1.9c2.9-2,5.8-3.8,8.7-5.8C297.6,138.6,297,137.7,296.5,136.8z"/>
		<path class="st61" d="M88.2,136.7c2.7-0.5,5.4-0.4,8-0.3c-3,2.6-5.6,5.5-8.3,8.3c-2,2-4.7,3.2-7.6,3c0.6-3.1,1.7-6.1,2.9-8.9
			C84.9,137.9,86.5,137,88.2,136.7z"/>
		<path class="st62" d="M222,138.3c-0.1-1.7,1.9-2.2,3.2-2.3c0,2-0.5,4.1,0.3,6.1c1.8,1.1,2.9-1.4,4.4-2.1c1.2,0.1,1.9,1.2,2.4,2.2
			c-0.9,0.1-1.7,0.1-2.6,0.2c0,3.6,0.3,7.2,0.3,10.8c-0.8,4.4-2.4,8.7-3,13.2c-0.3,2.1-0.4,4.4-1.4,6.4c-1,0.8-2.1,1.3-3.1,2
			C222.3,162.6,222.1,150.5,222,138.3z"/>
		<path class="st63" d="M240.8,136.4c2.4,1,4.6,2.3,6.8,3.7c-2.4,0.6-4.6-0.4-6.7-1.4C240.8,137.9,240.8,137.1,240.8,136.4z"/>
		<path class="st48" d="M341,136.6c4.7-1.2,10.1-0.1,13.7,3.1c1.3,2.4,2.1,5.2,2.5,7.9c-2.4,0-4.9-0.2-6.7-1.8
			C347,143.1,344.5,139.4,341,136.6z"/>
		<path class="st64" d="M232.9,137.2c2.2-0.2,4.4-0.2,6.7-0.2c0,1.7,0.1,3.4,0,5c-2.1,0-4.1,0-6.2,0c0-1.3-0.1-2.7,0-4
			c1.7,0.1,3.4,0.1,5.2,0.1c0.1,1,0.3,2,0.4,3.1c0.1-1.2,0.2-2.5,0.3-3.7C237.1,137.4,235,137.3,232.9,137.2z"/>
		<path class="st65" d="M232.9,137.5c2.1,0.2,4.2,0.2,6.3,0.3c-0.1,1.2-0.2,2.5-0.3,3.7c-0.1-1-0.3-2-0.4-3.1c-1.7,0-3.4,0-5.2-0.1
			L232.9,137.5z"/>
		<path class="st66" d="M203.7,141.6c0.3,11.8,0.8,23.6,1.2,35.4h-10.3c1.5-11.8,2.7-23.8,4.1-35.6
			C201.8,141.5,200.6,141.5,203.7,141.6z"/>
		<path class="st67" d="M135.3,141.8c2.1-1,4.2,0.6,4.9,2.6c2.5-0.8,5.5,1.1,5.3,3.9c-0.8,2.2-2.3,4.1-3.4,6.1
			c-3.6-2.4-7.1-4.7-10.7-7.1C132.6,145.5,133.6,143.3,135.3,141.8z"/>
		<path class="st68" d="M233,142.7c2.1,0.1,4.3-0.1,6.3,0.4c-2.1-0.1-4.2,0-6.3,0V142.7z"/>
		<path class="st69" d="M230.6,143.8c0.9-0.6,2-0.6,3.1-0.6c2.1,0,4.2-0.1,6.3,0c0.7,0.1,1.5,0.2,2.2,0.3c0,2.5,0.6,5-0.2,7.4v-0.5
			c-0.2-2.2-0.2-4.4-0.2-6.5C238.1,144,234.3,144,230.6,143.8z"/>
		<path class="st26" d="M63.7,144.7c0.2-0.1,0.6-0.3,0.8-0.4c4.8,4.2,8.7,10.1,8.8,16.7c0.4,3.2-1.9,5.9-3.9,8.1
			c-2.7-1.5-4.3-4.4-4.6-7.4C63.8,156,66.4,150,63.7,144.7z"/>
		<path class="st70" d="M134.3,146.6c0.8-1.1,1.6-2.2,2.6-3.2c0.6,0.6,1.2,1.1,1.8,1.7c-0.6,1.1-1.3,2.2-2.1,3.3
			C135.8,147.8,135,147.2,134.3,146.6z"/>
		<path class="st71" d="M230.4,143.8c3.7,0.2,7.5,0.2,11.2,0.1c0,2.2,0,4.4,0.2,6.5c-3.6-0.1-7.2-0.2-10.8-0.2v-0.7
			c3.7,0.1,7.6,0.4,11.3,0.1c-0.1-3.3-0.1-1.8-0.2-5.1c-3.7-0.1-7.5,0.2-11.1-0.2L230.4,143.8z"/>
		<path class="st64" d="M231,144.4c3.5,0.4,7.2,0.2,10.7,0.2c0.1,3.3,0.1,1.8,0.2,5.2c-3.6,0.2-7.3-0.2-10.8-0.2
			C231,147.8,230.9,146.1,231,144.4z"/>
		<path class="st72" d="M243.9,144.2c7.1,3.1,13.8,7.1,20.7,10.7c4.6,2.6,9.4,4.8,14,7.3c2.2,1,4.6,1.4,6.3,3.2
			c1.9,1.7,4.3,2.6,6.6,3.4c-0.5,0.4-1,0.8-1.6,0.4c-15.5-5.6-29.4-14.7-43.7-22.7C245.3,146,243.9,145.5,243.9,144.2z"/>
		<path class="st73" d="M251.9,145.1c1.2-1.6,3.1-0.2,4.4,0.6c9.4,7.4,21.6,9.5,32,15c1.6,0.7,1.8,2.6,2.1,4
			c-11.9-4.6-23-11.1-34.4-16.9C254.6,147.1,252.8,146.6,251.9,145.1z"/>
		<path class="st74" d="M296.9,148.8c2.5-1.2,4.9-2.9,7.6-3.6c1,2.3,2.3,4.6,3.3,7c-0.6,0.2-1.3,0.4-1.9,0.6
			c-1.1-1.4-1.7-3.2-2.6-4.8c-0.8,0.4-1.6,0.8-2.5,1.1c0.7,1.6,1.5,3.2,2.3,4.8c-0.6,0.3-1.2,0.7-1.9,1c-0.8-1.6-1.6-3.2-2.4-4.7
			c-1,0.5-2,1-3,1.5c0.9,1.9,1.8,3.7,2.6,5.6l-1.1-0.1c-0.3,0.1-0.8,0.1-1,0.2c-1.1-2.1-2.5-4.2-3.1-6.5
			C294.3,149.9,295.7,149.5,296.9,148.8z"/>
		<path class="st75" d="M141,146l0.5-0.3l0.5,0.3v0.5c-0.2,0-0.7,0-1,0.1V146z"/>
		<path class="st76" d="M140.8,146.5c0.2,0,0.7,0,1-0.1c2.6,0.9,0.4,3.5-0.5,4.9c-0.8-0.8-2.5-1-2.5-2.4
			C139.3,148.1,139.9,147.1,140.8,146.5z"/>
		<path class="st27" d="M66.1,147.6c4.9,4.7,8.3,13.2,3.8,19.3c-1.4,0.9-2.6-0.5-3.1-1.8C64.3,159.6,66.5,153.4,66.1,147.6z"/>
		<path class="st48" d="M365.2,162.1c-0.6-5.4,2-10.8,5.8-14.5c-0.3,5.6,1.6,11.5-0.5,16.9c-0.6,1.2-1.3,3.1-3,2.5
			C366.2,165.7,365.3,163.9,365.2,162.1z"/>
		<path class="st73" d="M244,149.3c0.3-0.1,1-0.2,1.3-0.3c6.7,4.3,13.5,8.4,20.3,12.6c8.2,5.1,17,9.3,26.3,12.1
			c1.7,3.5,2.6,7.4,2.9,11.3c-0.6,0.6-1.1,1.3-1.8,1.8c-3.2,0.5-6.5,0.7-9.7,0.5c-10.2,0-20.3,0.6-30.5,0.4
			c-0.5-2.1-1.1-4.3-1.6-6.4c0-0.1-0.1-0.3-0.1-0.4C248.4,170.4,245.2,160,244,149.3z"/>
		<path class="st77" d="M231.2,150.2c3.6,0,7.2,0.1,10.8,0.2v0.5c-3.6-0.1-7.2-0.1-10.7-0.1L231.2,150.2z"/>
		<path class="st78" d="M129.3,151.8c4,1.5,7.9,3.1,11.8,4.6c-0.1,0.5-0.4,1.5-0.6,2c-1.8-0.6-3.5-1.3-5.3-1.9
			c-0.5,1.3-0.9,2.6-1.4,3.9c1.6,0.7,3.3,1.3,4.9,1.9c-0.2,0.7-0.3,1.4-0.5,2.1c-4-1.5-7.9-3.1-11.9-4.6c0.2-0.5,0.5-1.5,0.7-2
			c1.6,0.6,3.1,1.2,4.6,1.8c0.5-1.3,1-2.5,1.5-3.8c-1.5-0.7-3-1.3-4.5-1.8C128.9,153.2,129.1,152.5,129.3,151.8z"/>
		<path class="st79" d="M231.7,152c1.5,0,2.9,0,4.3,0c0,2.3,0,4.7,0,7c-1.1,0-2.3,0-3.3,0C232.3,156.7,231.9,154.3,231.7,152z"/>
		<path class="st80" d="M237.1,152c1.4,0,2.9,0,4.3,0c-0.3,2.2-0.7,4.5-1,6.8c-1.1,0-2.2,0.1-3.3,0.1C237,156.6,237,154.3,237.1,152
			z"/>
		<path class="st81" d="M167.4,154.5c3.7-2.6,9.2-2.5,12.7,0.5c1.6,1.3,2.4,3.2,3.1,5c-6.7,0-13.5,0-20.2,0
			C163.9,157.9,165.3,155.8,167.4,154.5z"/>
		<path class="st82" d="M239.2,176.7c1.4-7.8,2-15.7,3.5-23.5c0.7,3.5,1.7,6.9,2.5,10.3c-1.8,4.1-2.6,8.5-3.9,12.8
			C240.6,176.5,239.9,176.6,239.2,176.7z"/>
		<path class="st83" d="M296.4,157.4c0.3,0,0.8-0.1,1-0.2C297.2,158.2,296.9,158.3,296.4,157.4z"/>
		<path class="st84" d="M169.3,157h7.7v2h-7.7C169.4,158.7,169.3,157.9,169.3,157z"/>
		<path class="st85" d="M229.4,164c0.4-2.2,1.1-4.2,1.4-6.4c1.4,6.3,2,12.7,2.9,19c-0.4-0.1-1.1-0.3-1.4-0.3
			C231.4,172.2,230.1,168.2,229.4,164z"/>
		<path class="st27" d="M83.6,158.4c3.7-1,7.7-0.3,11.2,1.4c-1,0.1-2.1,0.2-3.1,0.2c-3.1,2.6-5.8,5.7-8.7,8.4
			c-2.2,2-5.3,2.8-8.3,2.6c0.8-2.7,0.6-5.7,1.8-8.4C78.2,160.3,81.2,159.7,83.6,158.4z"/>
		<path class="st86" d="M342.2,159.7c3-1.2,6.2-2.2,9.4-1.7c3.8,0.2,7,2.3,9.9,4.6c0.4,2.7,0.8,5.4,0.8,8.2
			c-2.1-0.2-4.3-0.5-6.3-1.2c-3.7-2.2-6.1-6-9.5-8.7C345.3,159.9,343.7,159.9,342.2,159.7z"/>
		<path class="st87" d="M236.8,160c1.1,0,2.2,0,3.3,0c-0.3,2.3-0.7,4.7-1.1,7c-0.7,0-1.6,0-2.3,0C236.8,164.7,236.8,162.4,236.8,160
			z"/>
		<path class="st88" d="M233.1,160c1,0,1.9,0,2.9,0c0,2.5,0,4.9,0,7.4c-0.4,0-1.4-0.1-1.8-0.2C233.8,164.8,233.5,162.4,233.1,160z"
			/>
		<path class="st89" d="M304.9,161.3c2.3-0.6,5.2-0.7,6.8,1.3c1.8,2.1,1.4,5.5-0.8,7.2c-2.6,1.8-6.4,2.8-9.2,0.9
			c-2-1.5-2.5-4.7-1-6.7C301.8,162.6,303.3,161.8,304.9,161.3z"/>
		<path class="st90" d="M165.3,162H181v2h-15.6C165.2,163.7,165.3,162.9,165.3,162z"/>
		<path class="st38" d="M165.4,175.8c-1-4.4-3.2-8.5-2.8-13c0.1,1.1,0.1,2.1,0.2,3.2c6.8,0,13.7,0,20.5,0c0.1-0.9,0.1-1.7,0.2-2.6
			c0.2,4.4-1.8,8.4-2.9,12.6c-0.9,0-1.7,0-2.7,0c-0.7-3.2-1.3-6.5-1.9-9.7c-1.3,0-2.5,0-3.8,0.1c-1,3.2-1.8,6.4-2.9,9.5
			C167.9,175.8,166.7,175.8,165.4,175.8z"/>
		<path class="st91" d="M305.3,163.6c1.3-0.4,2.8-0.7,4.1,0c1.6,0.9,1.6,3.6,0,4.5c-2,1.2-5.2,2.2-6.9,0
			C301.3,166,303.3,164,305.3,163.6z"/>
		<path class="st92" d="M125.1,164.9c1.7-1.6,4.3-0.6,5.4,1.2c2.1-1.9,6-0.5,6.1,2.4c-0.2,2.2-1,4.3-1.5,6.4c-4.1-1-8-2.4-12-3.3
			C123.4,169.2,123.8,166.8,125.1,164.9z"/>
		<path class="st93" d="M245.7,165.8c0.5,1.8,1,3.5,1.3,5.3c-0.2,2-1.1,3.7-1.7,5.6c-0.9,0-1.9,0-2.8-0.1
			C243.6,172.9,244.5,169.3,245.7,165.8z"/>
		<path class="st94" d="M125.6,169.9c0.5-1.4,0.4-4.3,2.6-3.6c1.8,1,0.4,3,0.2,4.4C127.4,170.4,126.5,170.2,125.6,169.9z"/>
		<path class="st95" d="M130.3,171c0.6-1.4,0.9-4.8,3.2-3.8c1.8,0.9,0.3,3.2,0.2,4.7c-0.3-0.1-0.9-0.2-1.2-0.3
			c-0.5-0.4-1-0.6-1.7-0.6L130.3,171z"/>
		<path class="st96" d="M228.6,167.2c1,3.1,1.7,6.3,2.5,9.4c-0.7,0-1.4-0.1-2.2-0.1c-0.5-1.6-1.2-3.2-1.4-4.9
			C227.6,170.1,228.1,168.6,228.6,167.2z"/>
		<path class="st97" d="M171.4,177c0.8-2.9,1.6-5.8,2.7-8.6c0.7,2.8,1.2,5.7,1.7,8.6C174.3,177,172.9,177,171.4,177z"/>
		<path class="st98" d="M234,168c1.8,0,3.4,0,5.2,0c-0.3,2.3-0.7,4.7-1,7c-1.1,0-2.2,0-3.3,0C234.5,172.7,234.2,170.3,234,168z"/>
		<path class="st99" d="M55.3,171c5.5,1.6,10.5,5.4,13.2,10.5c1,2.2,2.1,4.6,1.5,7.1c-0.4,1.5-1.1,2.8-1.7,4.2
			c-2.1-0.7-4.3-1.7-5.6-3.7c-3.1-4.5-2.9-10.4-5.6-15.1C56.5,173,55.6,172.2,55.3,171z"/>
		<path class="st26" d="M367.3,184.1c2.3-6.3,8-11.2,14.4-13c-0.5,1.5-1.7,2.7-2.5,4.1c-1.7,4.5-2.2,9.4-4.7,13.6
			c-1.1,2-3.2,3.1-5.3,3.9C366.5,190.7,367.1,187.1,367.3,184.1z"/>
		<path class="st100" d="M130.8,171.3c0.6,0,1.2,0.2,1.7,0.6C131.5,172.6,131,172.4,130.8,171.3z"/>
		<path class="st101" d="M301.9,174.7c4.2-0.5,8.4-1.7,12.7-1.7c0.2,2.3,0.5,4.7,0.9,7c-0.5,0-1.6,0.1-2.2,0.1
			c-0.2-1.7-0.5-3.3-0.8-5c-0.9,0.2-1.9,0.4-2.8,0.5c0.2,1.5,0.3,3,0.4,4.5c-0.7,0-1.4,0-2,0.1c-0.2-1.4-0.4-2.8-0.6-4.2
			c-1.8,0.3-3.5,0.6-5.2,0.9C302.2,176.1,302,175.4,301.9,174.7z"/>
		<path class="st61" d="M368.8,183.7c1.7-4.6,5.5-8.1,9.9-10.2c-1.6,4.2-2.4,8.6-4,12.8c-1,2.3-2.7,4.8-5.4,5
			C368.2,188.9,367.7,186.1,368.8,183.7z"/>
		<path class="st47" d="M226.2,176.7c-0.7-0.7,0.5-3.6,1.1-1.8c0,0.4,0.1,1.1,0.1,1.4C227.2,176.4,226.5,176.6,226.2,176.7z"/>
		<path class="st47" d="M247.7,173.9c0.4,1,0.7,1.9,0.9,2.9c-0.6-0.1-1.2-0.1-1.8-0.1C247,175.8,247.3,174.8,247.7,173.9z"/>
		<path class="st61" d="M58.9,174.2c2.9,0.6,4.9,3.1,6.8,5.2c2.7,3.2,4.1,7.9,2.1,11.7c-2.9-0.4-4.8-3.2-5.7-5.8
			C60.9,181.7,60,177.9,58.9,174.2z"/>
		<path class="st48" d="M77.9,179.1c2.4-1.7,5.2-3.1,8.2-3.1c-1.2,2.1-2.6,4.2-3.4,6.6c-0.9,2.5-2,5-3.9,6.9c-1.3,1.4-3.2,2-4.9,2.9
			c-1.5-1.5-0.8-3.8-0.8-5.7C73.2,183.4,75.6,181,77.9,179.1z"/>
		<path class="st102" d="M227.5,176.3c0.3,0,1,0.1,1.4,0.1c0.7,0.1,1.4,0.1,2.2,0.1c0.3-0.1,1-0.2,1.3-0.3c0.4,0.1,1.4-0.2,1.4-0.2
			h5.5c0,0,1.4,0.3,2.1,0.1c0.3,0.1,0.9,0.2,1.3,0.2c0.9,0.1,2.8-0.3,2.8-0.3h1.4c0,0,1.2,0.5,1.8,0.5c0.2,0.3,0.6,0.9,0.7,1.2
			c-1,0-2.9-0.7-2.9-0.7H245c0,0-1.9,0.7-2.8,1h-1.3c-0.7-0.3-2.1-1-2.1-1h-1.3h-1.9h-1.4c-0.3,0.6-1,0.6-1.4,0.7
			c-0.3,0-1.3,0.3-1.3,0.3h-2.2h-1.4h-2.3c-1.2-0.3-3.4-1-3.4-1h4C226.2,177,227.2,176.4,227.5,176.3z"/>
		<path class="st103" d="M350.9,176c5.1,0.1,9.8,3.5,12.4,7.8c1.4,2.3,1.1,5.1,0.9,7.6c-3.9,0.8-6.9-2.5-8.4-5.7
			C354.4,182.4,353,179,350.9,176z"/>
		<path class="st104" d="M122,178.3c4.3-0.7,8.6-1.7,13-2.3c-0.1,0.5-0.3,1.6-0.4,2.1c-0.9,0.5-2,0.5-3,0.8
			c-0.1,1.5-0.2,2.9-0.3,4.4c0.8,0.3,1.6,0.6,2.4,1c-0.1,0.6-0.2,1.8-0.3,2.3c-4-1.9-8-4-12-5.9C121.6,179.8,121.8,179,122,178.3z"
			/>
		<path class="st105" d="M225.6,178c0.8,0,1.5,0,2.3,0c0.3,0.9,0.6,1.8,0.9,2.7c-0.6,0.1-1.2,0.1-1.9,0.2
			C226.5,179.9,226,179,225.6,178z"/>
		<path class="st106" d="M227.8,178c0.3,0,1.1,0,1.5,0c0.3,1,0.6,1.9,1,3h-0.6c-0.2,0-0.6,0-0.9,0C228.5,179.9,228.1,179,227.8,178z
			"/>
		<path class="st107" d="M229.2,178c0.7,0,1.4,0,2.2,0c0.1,0.4,0.3,1.2,0.3,1.6c0.1,0.3,0.2,0.9,0.3,1.2c-0.6,0-1.2-0.1-1.8-0.1
			C229.9,179.9,229.6,179,229.2,178z"/>
		<path class="st108" d="M231.4,178.1c0.3,0,1,0,1.3-0.1c0.3,1,0.5,2,0.8,3.1c-0.3-0.1-0.8-0.2-1.1-0.2c-0.2-0.3-0.5-0.9-0.7-1.2
			C231.7,179.3,231.5,178.5,231.4,178.1z"/>
		<path class="st109" d="M232.7,178c0.3,0,1,0,1.4-0.1c0.2,1.1,0.3,2.2,0.5,3.3l-1.1-0.2C233.3,180.1,233,179,232.7,178z"/>
		<path class="st110" d="M234.1,178c0.3,0,1,0,1.4,0c0.1,0.4,0.3,1.3,0.4,1.8c-0.2,0.7-0.6,1.3-1.3,1.5
			C234.5,180.2,234.3,179.1,234.1,178z"/>
		<path class="st47" d="M235.5,178c0.5,0,1.4,0,1.9,0c-0.1,0.4-0.3,1.3-0.5,1.8c-0.1,0.4-0.3,1.1-0.4,1.5c-0.2-0.5-0.4-1-0.6-1.5
			C235.8,179.3,235.6,178.4,235.5,178z"/>
		<path class="st111" d="M237.4,178c0.3,0,1,0,1.3,0c-0.2,1.1-0.4,2.2-0.6,3.3c-0.4-0.5-0.8-1-1.2-1.5
			C237,179.3,237.3,178.4,237.4,178z"/>
		<path class="st112" d="M238.7,178c0.7,0,1.4,0.1,2.1,0.1c-0.2,0.8-0.5,1.7-0.7,2.5c-0.5,0.2-1.5,0.5-2,0.7
			C238.3,180.2,238.5,179.1,238.7,178z"/>
		<path class="st111" d="M240.8,178c0.4,0,0.9,0,1.3,0l-0.2,0.8c-0.3,0.6-0.5,1.3-0.8,1.9c-0.2-0.1-0.7-0.2-1-0.2
			C240.3,179.7,240.6,178.8,240.8,178z"/>
		<path class="st113" d="M242.1,178.1c0.9,0,1.9-0.1,2.8-0.1c-0.4,0.9-0.7,1.9-1,2.8c-0.8,0-1.7,0.1-2.5,0.1
			c0.1-0.5,0.3-1.5,0.4-2.1L242.1,178.1z"/>
		<path class="st114" d="M244.9,178c0.4,0,1.1,0,1.5,0c-0.4,0.9-0.7,1.9-1.1,2.8c-0.5,0-0.9,0.1-1.4,0.1
			C244.2,179.9,244.5,178.9,244.9,178z"/>
		<path class="st115" d="M246.4,178c1,0,2,0,2.9,0.1c-0.5,0.9-0.9,1.9-1.4,2.8c-0.9,0-1.7-0.1-2.6-0.1
			C245.7,179.8,246,178.9,246.4,178z"/>
		<path class="st66" d="M163.1,178.6c6.3-0.2,12.6,0.1,18.9,0.1c0,2.7,0,5.3,0,8c-6.3,0-12.6,0.1-18.9-0.1
			C163.1,183.9,163.2,181.3,163.1,178.6z"/>
		<path class="st116" d="M190.1,178.5c6.3,0.1,12.6-0.1,18.9,0c0,2.7,0,5.4,0,8.2c-6.3-0.2-12.7-0.2-19,0
			C190.1,184,190.1,181.3,190.1,178.5z"/>
		<path class="st117" d="M124.9,180.1c1.5-0.5,3-0.7,4.5-0.9c-0.1,1-0.2,1.9-0.3,2.9C127.7,181.3,126.3,180.7,124.9,180.1z"/>
		<path class="st118" d="M241.1,180.8c0.3-0.6,0.5-1.3,0.8-1.9c-0.1,0.5-0.3,1.5-0.4,2.1c0.8,0,1.6-0.1,2.5-0.1
			c0.5,0,0.9-0.1,1.4-0.1c0.9,0.1,1.7,0.1,2.6,0.1c1,0,2.1-0.5,3.1,0c0,0.1,0.1,0.3,0.1,0.4c-0.3,0.4-0.8,1.2-1,1.7
			c-0.2-0.3-0.4-0.8-0.6-1c-0.3,0.2-0.9,0.6-1.2,0.8c-0.6-0.1-1.1-0.1-1.6,0l0.1-0.7c-0.8,0.2-1.6,0.4-2.3,0.8
			c-0.5-0.7-1-0.6-1.5,0.2l0.2-1c-0.8,0.2-1.6,0.4-2.4,0.7c-0.6-0.4-1.1-0.3-1.5,0.2c-0.2-0.2-0.5-0.6-0.7-0.8l-0.5,0.1
			c-0.6,0.2-1.2,0.6-1.7,1c-0.2-0.2-0.7-1.3-0.7-1.3h-1h-0.4c-0.1,0.8-0.2,1.4-0.3,1.7c-0.1-0.7-1.1-1.4-1.5-0.4
			c-0.1-0.2-0.3-0.6-0.4-0.8c-0.4,0-1.2-0.1-1.7-0.2c0.2,0.7,0.5,1.4,0.7,2.1c0.5,0,1.5-0.1,2-0.1c0.2,0,0.7-0.1,0.9-0.1
			c0.2-0.3,0.6-0.9,0.9-1.1c0.4,0.7,0.8,1.5,1.7,1.6c0.4-0.5,0.7-1.1,1-1.7c0,0.9,1.4,1,1.4,1h1c0,0,1.7,0.4,2.6,0.4
			c0.5,0,0.9,0,1.4-0.1c0.5,0,1.5,0.1,2,0.1c0.3,0,1.2-0.4,1.2-0.4h3.1c0,0,0.4,1.5,0.6,1.9c-1.5-0.4-3.2-0.4-4.7,0.1
			c-0.3,0-1,0.1-1.3,0.1c-0.5-0.9-2.2-0.4-1.5,0.7c-0.5-0.3-1-0.7-1.5-0.9c-0.7-0.3-1.5-0.3-2.2-0.1c-0.4,0-1.1-0.1-1.5-0.1
			c-0.3,0-0.8,0.1-1.1,0.1c-0.6,0.1-1.1,0.2-1.7,0.3c-1-0.3-1.2-0.1-0.7,0.8c-0.5-0.3-1-0.6-1.5-1c-0.7-0.4-1.3-0.4-2,0.2
			c-0.3,0-0.9-0.1-1.1-0.2c-0.3,0-1.1,0.1-1.1,0.1s-0.9,0-1.3,0c-1.5,0-2.9,0-4.3,0c-1,0-2.3,0.1-2.3-1.2c2.2-0.1,5.6,1.5,6.8-1.1
			c0.2,0.5,1.6,1.7,1.7,0.5c0.2-1-1.2-2.3-1.8-1.2c-0.6,0-1.3-0.1-1.8-0.1c-0.2-0.2-0.5-0.6-0.7-0.9c-0.2,0.2-0.6,0.6-0.9,1
			c-1.1-0.3-2.2-0.6-3.3-1.1c1-1,2.7-0.7,3.9-1.2c0.4,0.1,1.4,0.3,1.8,0.3c0.6,0,1.3-0.1,2-0.2c0.2,0,0.6,0,0.6,0h0.6
			c0.6,0.1,1.2,0.2,1.8,0.2c-0.1-0.3-0.2-0.9-0.3-1.2c0.2,0.3,0.5,0.9,0.7,1.2c0.3,0.1,0.8,0.2,1.1,0.2l1.1,0.2
			c0.7-0.3,1.1-0.8,1.3-1.5c0.2,0.5,0.4,1,0.6,1.5c0.1-0.4,0.3-1.1,0.4-1.5c0.4,0.5,0.7,1,1.2,1.5c0.5-0.2,1.5-0.5,2-0.7
			C240.3,180.6,240.8,180.7,241.1,180.8z"/>
		<path class="st119" d="M224.6,182.4c0.2-0.2,0.6-0.6,0.8-0.9c0.2,0.2,0.5,0.6,0.7,0.8c0.3,0.4,0.8,1.3,1.1,1.7c-1.1,0-2.2,0-3.2,0
			C224.2,183.6,224.5,182.8,224.6,182.4z"/>
		<path class="st120" d="M227.9,182.7c0.7-1.1,1.9,0.2,1.7,1.1c-0.1,1.1-1.4,0-1.6-0.5L227.9,182.7z"/>
		<path class="st121" d="M230.5,182.2c0.4,0,1.2,0.1,1.7,0.2c0.1,0.2,0.3,0.6,0.4,0.8c0.2,0.3,0.5,0.8,0.6,1c-0.5,0-1.5,0.1-2,0.1
			C231,183.5,230.8,182.8,230.5,182.2z"/>
		<path class="st122" d="M232.6,183.1c0.4-1,1.4-0.3,1.5,0.4l0.1,0.4c-0.2,0-0.7,0.1-0.9,0.1C233.1,183.9,232.8,183.4,232.6,183.1z"
			/>
		<path class="st123" d="M234.3,182h0.4l0.3,0.5c-0.2,0.3-0.6,0.9-0.9,1.1l-0.1-0.4C234.1,182.9,234.3,182.3,234.3,182z"/>
		<path class="st124" d="M234.8,182c0.2,0,0.7,0,1,0c0.2,0.2,0.5,0.6,0.7,0.8c0.5-0.4,1.1-0.8,1.7-1l-0.3,0.5
			c-0.3,0.6-0.7,1.1-1,1.7c-0.9-0.1-1.3-0.9-1.7-1.6L234.8,182z"/>
		<path class="st125" d="M238.1,182.2l0.5-0.1c0.2,0.2,0.5,0.6,0.7,0.8c0,0.3-0.1,0.9-0.1,1.2c-0.9,0.1-1.4-0.4-1.4-1.3L238.1,182.2
			z"/>
		<path class="st126" d="M239,182.8c0.4-0.5,0.9-0.6,1.5-0.2c-0.1,0.3-0.4,1-0.5,1.4c-0.3,0-0.8,0-1,0
			C239,183.7,239,183.1,239,182.8z"/>
		<path class="st127" d="M240.8,182.7c0.8-0.2,1.6-0.5,2.4-0.7l-0.2,1c0,0.3-0.1,0.9-0.2,1.2c-0.9,0-1.7-0.1-2.6-0.1
			C240.4,183.7,240.7,183.1,240.8,182.7z"/>
		<path class="st128" d="M243,183.1c0.5-0.8,1-0.9,1.5-0.2c-0.1,0.3-0.2,1-0.3,1.3c-0.5,0.1-0.9,0.1-1.4,0.1
			C242.9,183.9,243,183.3,243,183.1z"/>
		<path class="st129" d="M244.5,182.9c0.7-0.4,1.5-0.6,2.3-0.8l-0.1,0.7c-0.1,0.4-0.3,1.1-0.4,1.5c-0.5,0-1.5-0.1-2-0.1
			C244.3,183.8,244.5,183.2,244.5,182.9z"/>
		<path class="st130" d="M246.6,182.7c0.5-0.1,1.1-0.1,1.6,0c-0.3,0.5-0.6,1.1-0.9,1.6c-0.3,0-0.9,0-1.2-0.1
			C246.3,183.9,246.5,183.1,246.6,182.7z"/>
		<path class="st47" d="M248.3,182.5c0.3-0.2,0.9-0.6,1.2-0.8c0.1,0.3,0.4,0.8,0.6,1c0.1,0.3,0.4,1,0.5,1.3c-1,0-2.1,0-3.1,0
			C247.7,183.6,248,183.1,248.3,182.5z"/>
		<path class="st131" d="M223.8,185.8c1.3,0,2.7-0.1,4,0c0.1,0.3,0.3,0.9,0.4,1.2c-1.6,0-3.2,0-4.8,0
			C223.5,186.6,223.7,186.1,223.8,185.8z"/>
		<path class="st132" d="M229.3,185.5c0.3,0,0.8,0.1,1.1,0.1C231.6,187.1,228.1,187,229.3,185.5z"/>
		<path class="st133" d="M231.5,185.7c0.6-0.5,1.3-0.6,2-0.2C234.4,187,231.3,187.2,231.5,185.7z"/>
		<path class="st134" d="M235,186.5c-0.5-0.8-0.2-1.1,0.7-0.8C235.5,186,235.2,186.3,235,186.5z"/>
		<path class="st135" d="M237.4,185.5c0.3,0,0.8-0.1,1.1-0.1C239.6,186.9,236.2,187.1,237.4,185.5z"/>
		<path class="st136" d="M240,185.5c0.8-0.2,1.5-0.2,2.2,0.1C242.9,187.2,239,187.1,240,185.5z"/>
		<path class="st137" d="M243.7,186.5c-0.7-1.1,1-1.6,1.5-0.7c-0.2,0.2-0.7,0.6-0.9,0.9L243.7,186.5z"/>
		<path class="st138" d="M246.5,185.8c1.5-0.5,3.1-0.5,4.7-0.1l0.2,0.8c-1.8,0.1-3.6,0.1-5.3,0L246.5,185.8z"/>
		<path class="st139" d="M314.5,186.4c0.6-0.1,1.3-0.1,1.9,0c0.1,2.8,0.3,5.7,0.5,8.5c-0.6,0-1.7,0.1-2.2,0.1c0-1-0.1-2.1-0.1-3.1
			c-3.5,0.1-7.1,0.4-10.6,0.5c0-0.6,0-1.7,0-2.2c3.5-0.1,7-0.3,10.5-0.5c-0.1-1-0.1-2-0.1-2.9C315.7,188.6,316.6,186,314.5,186.4z"
			/>
		<path class="st140" d="M189.6,186.7c6.3-0.2,12.7-0.2,19,0c-3.5,1-7.2,0.3-10.8,0.5C195.1,187.1,192.2,187.9,189.6,186.7z"/>
		<path class="st141" d="M314.2,186.4c2.1-0.5,1.2,2.1-0.2,0.4L314.2,186.4z"/>
		<path class="st142" d="M131,192.2c0.1-1.7,0.2-3.5,0.5-5.2c0.5,0,1.5,0,2,0c-0.1,2.5-0.3,5.1-0.5,7.6c-1.8-0.1-3.6-0.2-5.5-0.4
			c1-0.1,2-0.2,3-0.3c-3.3-0.1-6.7-0.5-10-0.2c-0.1-0.5-0.2-1.5-0.2-2c3.3,0.3,6.5,0.7,9.8,0.6C130.4,192.2,130.8,192.2,131,192.2z"
			/>
		<path class="st143" d="M120.4,191.7c3.2-0.5,6.6-0.3,9.8,0.6C126.9,192.3,123.6,191.9,120.4,191.7z"/>
		<path class="st144" d="M120.6,193.7c3.3-0.3,6.7,0.1,10,0.2c-1,0.1-2,0.3-3,0.3C125.2,194.4,122.9,194,120.6,193.7z"/>
		<path class="st111" d="M142.1,193.6c22.4,0.1,44.7,0,67.1,0.1c1.9,0,3.9,0.2,5.8-0.4c1.2,0.2,2.3,0.3,3.5,0.5
			c0,25.4-0.1,50.8,0.1,76.2c-1.8-0.3-3.7-0.5-5.5-0.6c-18.3-2.2-36.5-9.4-49.4-22.7C149.8,232.6,142.8,213,142.1,193.6z"/>
		<path class="st145" d="M220.3,193.7c25.5-0.1,50.9-0.1,76.4-0.1c-0.7,13.4-4,26.8-10.7,38.5c-3.9,6.7-8.9,12.8-14.7,18
			c-1.6,1.7-3.5,3.2-5.6,4.5c-13.4,9.4-29.5,14.1-45.6,15.9c-0.2-10.8,0.2-21.6,0.1-32.4C220.3,223.3,220.3,208.5,220.3,193.7z"/>
		<path class="st146" d="M160.5,195.4c0.9-0.4,1.8-0.6,2.8-0.6c12.6,0,25.2,0.1,37.7-0.1c1.3,0.1,2.8-0.2,4,0.7c-1.5,0-3,0-4.6,0.1
			C187.1,195.4,173.8,195.5,160.5,195.4z"/>
		<path class="st147" d="M222.1,195.5c0.6-0.6,1.3-0.9,2.1-0.8c20.5,0.1,41,0.1,61.5,0.1c2.2,0.1,4.6-0.6,6.5,0.7
			C268.9,195.5,245.5,195.6,222.1,195.5z"/>
		<path class="st148" d="M144.8,195c4,0,7.9,0,11.9,0c-0.4,0.4-0.8,0.8-1.2,1.2c-1.8-0.6-3.9-1.2-5.7-0.3c-1.4,1-2.9-0.1-4.2-0.6
			c0.1,2.6,0.1,5.2,0.1,7.9C145,200.6,145.1,197.8,144.8,195z"/>
		<path class="st73" d="M159.4,195c0.3,0,0.8,0,1,0c13.3,0.1,26.6,0,39.9,0.1l-0.4,0.3c-3,2.9-5.3,6.4-7.9,9.6
			c-2.5-2.2-5.1-4.3-7.6-6.5c-2.2,2-4.4,4.2-6.7,6.2c-2.2-2.8-4.3-5.7-6.7-8.3c-1.9,2.1-3.8,4.3-6,6.2
			C163.1,200.1,161.3,197.5,159.4,195z"/>
		<path class="st62" d="M200.4,195.5c1.5,0,3-0.1,4.6-0.1c2.7,0.1,5.4,0,8.1,0.1c-2.3,3.3-4.6,6.6-7,9.9c-2.1-3.2-4.1-6.3-6-9.6
			L200.4,195.5z"/>
		<path class="st38" d="M222.1,196c23.4,0.2,46.8,0.1,70.1,0h0.6c-0.6,16.1-5.8,32.4-16.2,44.9c-2.9,3.6-6.3,6.8-9.9,9.7
			c-2.4-0.5-5-0.6-7-2.1c-1.8-1.4-3.3-3.2-4.8-4.9c-2.9,4.1-6.7,7.7-11.5,9.3c-3.7,1.3-7.8,1.8-11.6,0.9c-2.1-0.5-4.5-0.5-6.2-2
			c-1.3-1.3-2.3-2.9-3.4-4.4C222.1,230.3,222.3,213.1,222.1,196z"/>
		<path class="st26" d="M349,195.5c8,0.6,14.1,8.5,14.1,16.2c0,2.4-1.6,4.4-3.1,6.1c-1.9-1.1-3.8-2.2-5-4.1
			C351.2,208.3,353.8,200.6,349,195.5z"/>
		<path class="st149" d="M131,196h2.1c0.1,2.4,0.3,4.8,0.6,7.2c-4.2,0.6-8.5,0.8-12.7,0.7c0-1.1,0-0.6-0.1-1.7
			c3.4-0.3,6.9-0.5,10.4-0.7C131.1,199.6,131,197.8,131,196z"/>
		<path class="st150" d="M145.6,195.9c1.4,0.4,2.8,1.5,4.2,0.6c1.8-1,3.8-0.4,5.7,0.3c-3.2,3.2-6.2,6.5-9.6,9.5
			c-0.1-0.8-0.1-1.7-0.2-2.5C145.7,201.1,145.7,198.5,145.6,195.9z"/>
		<path class="st151" d="M216.1,196.3C218.2,196.3,215.1,198.2,216.1,196.3z"/>
		<path class="st152" d="M303.7,196.9c4.2,0.5,8.3,1.3,12.5,2c-0.4,2.6-0.8,5.1-1.2,7.7c-0.7-0.1-1.4-0.2-2.1-0.3
			c0.2-1.9,0.5-3.7,0.9-5.5c-0.9-0.3-1.8-0.5-2.6-0.7c-0.4,1.8-0.7,3.5-1,5.3c-0.7-0.1-1.4-0.2-2.1-0.3c0.3-1.8,0.6-3.5,0.8-5.3
			c-1.1-0.2-2.3-0.4-3.4-0.5c-0.3,1.9-0.6,3.8-0.8,5.7c-0.5,0-1.6-0.1-2.2-0.2C302.8,202.2,303.3,199.5,303.7,196.9z"/>
		<path class="st73" d="M146.8,208.5c4-3.7,7.5-7.9,11.4-11.6c2.2,3,4.5,6,6.5,9c2.2-1.9,4-4.3,6.3-6.3c2.1,2.8,4.2,5.5,6.4,8.2
			c2.2-2.2,4.4-4.4,6.7-6.5c2.6,2.2,5.1,4.6,7.7,6.7c2.2-3.1,4.7-6,7-9.1c1.7,2.7,3.3,5.3,4.9,8c-2.9,4.2-5.8,8.5-8.8,12.6
			c-0.1-3.4-0.4-6.7-0.5-10.1c2.4-0.5,4.8-1,7.1-1.6c-0.3-1.3-0.2-0.7-0.5-2c-3,0.6-5.9,1.3-8.9,1.9c0.1,3.6,0.4,7.3,0.6,10.9
			c-2.7-0.3-5.4-0.6-8.1-0.8c0.3-0.7,0.7-1.4,1-2c-0.6-0.3-1.1-0.7-1.7-1c-0.4,0.5-0.7,1.1-1.1,1.6c0-1.1,0-2.3,0-3.4h-13v3.6
			c4.2-0.1,8.5,0,12.7-0.1c-6.1,9.1-12.5,18-18.7,27.1C155,234.2,149.5,221.5,146.8,208.5z"/>
		<path class="st48" d="M351.8,197.3c3.7,1.1,6.5,4.1,8.4,7.3c2.1,3.5,2.2,8.1,0,11.6c-2.5,0-3.9-2.3-5-4.2
			C353,207.4,353.9,201.9,351.8,197.3z"/>
		<path class="st153" d="M75.2,211.1c-0.1-5.9,4.1-11.3,9.4-13.7c-0.3,4-1,7.9-1.7,11.8c-0.8,3-2.6,6.5-6,7
			C76.1,214.6,75.2,213,75.2,211.1z"/>
		<path class="st154" d="M187.2,260c9.9-20.3,19.8-40.5,29.7-60.8c0.3,8.4-0.4,16.7,0.1,25.1c0,14.2,0,28.5,0,42.7
			C206.8,266.3,196.7,264.1,187.2,260z"/>
		<path class="st155" d="M252.9,206.5c3.3-3.8,8.6-6.1,13.6-5c-0.7,4.4-1.8,8.9-4.8,12.3c2,4.1,1,8.7,1.7,13.1
			c0.5,4.8-0.8,9.6-2.3,14.1c-3.8-1.1-7.1-3.3-9.9-6c-1.3-1.5-3.5-0.8-5,0.1c-4.6,2.6-9.9,3.2-15,3.5c-0.6-6,2.5-11.4,4.2-16.9
			c-3-1.5-6.5-2.3-8.7-5.1c0.3-0.3,0.8-0.8,1.1-1.1c-0.2-0.3-0.6-0.8-0.8-1c4.6-3.5,9.6-7.2,15.5-8
			C245.9,206.3,249.4,205.7,252.9,206.5z"/>
		<path class="st156" d="M57.8,203.1c4.8,0.7,9.6,2.9,12.5,6.9c1.6,2.2,1.4,5,1.6,7.5c-2.9,0-5.4-1.8-7.1-4
			C62.3,210.1,60.5,206.3,57.8,203.1z"/>
		<path class="st27" d="M367.1,209.6c2.9-3.7,7.5-5.9,12.2-6.5c-3.3,3.9-5.3,8.8-8.9,12.5c-1.3,1.3-3.2,1.7-5,2.1
			C365.7,214.9,365.7,212,367.1,209.6z"/>
		<path class="st157" d="M256,207.6c1.9-1.9,4.4-3.2,7.1-3.4c-0.6,2.5-1.5,4.9-3,7C258.8,209.9,257.4,208.7,256,207.6z"/>
		<path class="st158" d="M123.1,212.4c3.8-2.3,7.2-5.2,11-7.4c0.1,0.5,0.4,1.6,0.6,2.1c-0.8,0.6-1.7,1.1-2.5,1.7
			c0.4,1.4,0.8,2.8,1.3,4.2c1,0,2,0,3,0c0.2,0.7,0.3,1.4,0.5,2.1c-4.2-0.2-8.3-0.2-12.5-0.3C123.1,214.8,123.5,213.2,123.1,212.4z"
			/>
		<path class="st159" d="M210.3,207.4c-0.8,2.7-2.4,5.1-3.5,7.6c-7.2,14.7-14.4,29.4-21.6,44.2c-0.8-0.4-1.6-0.7-2.4-1.1
			C191.8,241.2,201.3,224.4,210.3,207.4z"/>
		<path class="st160" d="M302.4,209c2.7-2.2,6.6-1,9.3,0.6c2.3,1.4,2.9,4.7,1.2,6.7c-0.8,1.3-2.5,1.3-3.9,1.6c0-0.7,0-1.4,0-2.1
			c1.1-0.4,2.7-0.8,2.7-2.3c-0.2-2.6-3.3-3.2-5.3-3.5c-1.5-0.4-2.5,0.7-3.5,1.7c0.3,1.3,1.1,2.3,2.2,3.1c-0.4,0.6-0.8,1.1-1.2,1.7
			c-1.1-0.8-2.5-1.7-2.8-3.2C300.7,211.9,301.1,210.1,302.4,209z"/>
		<path class="st161" d="M181,252.1c8.7-14.3,17.5-28.5,26.2-42.8c-8.4,16.1-17.4,31.8-25.9,47.8c-0.8-0.4-2.1-0.4-2.3-1.4
			C179.4,254.4,180.3,253.3,181,252.1z"/>
		<path class="st38" d="M246.3,209.3c6.2-1.8,13.1,3,13.8,9.3c0.8,5.4-3.1,11.1-8.5,12.3c-6.7,1.8-13.9-4.1-13.7-11
			C237.9,215.1,241.5,210.5,246.3,209.3z"/>
		<path class="st162" d="M126.3,213.2c1.3-1,2.7-1.9,4.1-2.8c0.2,0.9,0.5,1.9,0.7,2.8C129.5,213.3,127.9,213.2,126.3,213.2z"/>
		<path class="st163" d="M229.9,215.8c2.5-2,5.2-3.7,8.1-5.1c-1.8,2.4-3.3,5.1-3.4,8.1c-0.2-0.2-0.5-0.7-0.6-1
			C232.5,217.2,231.2,216.6,229.9,215.8z"/>
		<path class="st164" d="M210.5,218.7c1.9-2.4,3.6-5,5.5-7.4c0.2,3.5,0.2,7,0.2,10.5C213.7,222.5,211.7,220.8,210.5,218.7z"/>
		<path class="st165" d="M151,212.9c3.7,0,7.5-0.1,11.2,0.1c0,1.2,0,2.3-0.1,3.5c-3.7,0-7.4,0.1-11.1-0.1
			C151,215.3,151,214.1,151,212.9z"/>
		<path class="st34" d="M247.1,213.3c4.2-1.4,9.1,2.1,9,6.6c0.4,4.7-4.9,8.6-9.3,6.9c-4.1-1.2-6.2-6.5-4-10.2
			C243.7,215,245.3,213.8,247.1,213.3z"/>
		<path class="st26" d="M80.2,231.8c0.1-7.1,5.4-13.7,12.2-15.6c-0.2,1.1-0.7,2-1.4,2.9c-1.7,5.5,0.4,11.7-2.9,16.8
			c-1.1,1.5-2.5,3.4-4.6,3.5C81.3,237.6,80.2,234.6,80.2,231.8z"/>
		<path class="st166" d="M193.5,299.3c2.9-1.4,6.5,1.8,5.5,4.9c-0.7,2.7-4.4,4.2-6.6,2.1C189.9,304.5,190.7,300.3,193.5,299.3z"/>
		<path class="st26" d="M344.7,216.2c6.9,1.9,12.1,8.5,12.2,15.6c0,3.1-1.4,5.9-3.6,8c-2.2-1.3-4.2-3.1-5.1-5.5
			c-1.7-4.2-0.9-8.8-1.5-13.1C346.4,219.4,345.1,218,344.7,216.2z"/>
		<path class="st167" d="M299.5,217.2c4,1.5,7.9,3.1,11.9,4.6c-0.2,0.6-0.4,1.3-0.6,1.9c-1.7-0.5-3.3-1.1-4.9-1.6
			c-0.4,1.3-0.9,2.6-1.3,3.9c1.2,0.5,2.5,0.9,3.7,1.5c1.1,0.3,0.2,1.7,0.3,2.4c-4-1.5-8-3.1-12-4.7c0.2-0.5,0.5-1.5,0.7-2
			c1.7,0.7,3.5,1.4,5.3,1.8c0.5-1.3,0.9-2.5,1.4-3.7c-1.7-0.7-3.4-1.3-5-2C299.1,218.6,299.3,217.9,299.5,217.2z"/>
		<path class="st48" d="M81.6,234.4c-1.4-6.3,2.4-13.1,8.1-15.9c-1.3,5.6,0.6,11.8-2.6,16.9c-0.8,1.1-2,2.8-3.6,2.4
			C82.5,236.9,81.8,235.7,81.6,234.4z"/>
		<path class="st168" d="M124.5,219.6c4.4-0.8,8.8-0.7,13.2-1.2c0.3,0.7,0.5,1.5,0.8,2.2c-3.6,2.6-6.9,5.6-10.6,8.1
			c-0.1-0.8-1.2-2-0.1-2.6c2.3-1.8,4.7-3.5,6.9-5.3c-3.1,0.2-6.2,0.5-9.4,0.9C125.2,221,124.7,220.1,124.5,219.6z"/>
		<path class="st156" d="M347.4,218.6c5.3,2.6,9,8.6,8.3,14.5c-0.2,1.7-0.9,3.3-1.9,4.7c-1.7,0.7-2.8-1.3-3.7-2.4
			C346.9,230.3,348.6,224.1,347.4,218.6z"/>
		<path class="st164" d="M164.7,219.4c4.4-0.2,8.9,0,13.3-0.1c0,1.2,0,2.4,0,3.6c-4.4,0-8.9,0.1-13.3,0
			C164.8,221.7,164.7,220.6,164.7,219.4z"/>
		<path class="st169" d="M196.5,222.3c0.6-0.8,1.2-1.6,1.9-2.4c-7.1,11.6-14.2,23.3-21.4,34.9c-0.8-0.5-1.6-1-2.4-1.7
			C181.9,242.8,189.3,232.6,196.5,222.3z"/>
		<path class="st170" d="M184.5,220.3c3.4,0.3,6.8,0.6,10.2,1c-2.8,3.7-5.1,7.9-8.3,11.3C185.7,228.4,185.2,224.4,184.5,220.3z"/>
		<path class="st171" d="M175.3,232.1c2.4-3.5,4.9-6.9,7.4-10.4c0.5,3.4,1.1,6.7,1.5,10.1C181.2,231.9,178.2,232,175.3,232.1z"/>
		<path class="st172" d="M208.8,225c1.2,0.4,1.3,1.9,2.1,2.7c1.1,1.7,3.1,2.4,5.1,2.3c-0.1,1-0.3,2.1-0.4,3.2
			c-3.6,0.8-7.3-1-10.2-3.1C206.4,228.3,207.5,226.6,208.8,225z"/>
		<path class="st173" d="M159.1,229.7c0-1.2,0-2.4,0.1-3.6c4.3,0.1,8.6-0.1,12.9,0.1c0.6,1,0.2,2.4,0.3,3.6
			C168,229.6,163.6,229.6,159.1,229.7z"/>
		<path class="st174" d="M295.3,227c3.8,1.9,7.7,3.9,11.4,6c-0.3,0.6-0.7,1.2-1,1.9c-2.9,0-5.9-0.1-8.8,0c2.2,1.5,4.6,2.5,6.9,3.8
			c-0.2,0.5-0.6,1.4-0.8,1.8c-3.8-1.9-7.6-3.9-11.4-5.9c0.3-0.6,0.7-1.2,1-1.9c2.8,0,5.6,0.1,8.4-0.1c-1.9-1.6-4.2-2.4-6.4-3.6
			C294.9,228.3,295.1,227.6,295.3,227z"/>
		<path class="st175" d="M63.8,227.3c1.4-0.1,2.9,0,4.1,0.8c2.8,0.4,5.6,1.6,7.5,3.8c1.3,2.6,1.9,5.4,2.8,8.1c-4,0.4-6.7-3-9-5.7
			C67.4,232,65.5,229.7,63.8,227.3z"/>
		<path class="st176" d="M236.4,227.3c2,2.3,4.2,4.4,6.7,6c-2.9,1.2-5.9,1.9-9,2.1C234.5,232.6,235.4,229.9,236.4,227.3z"/>
		<path class="st86" d="M364.6,229.6c2.7-1.5,5.8-2.4,8.9-2.3c-3.2,3.7-5.7,8-9.6,11.1c-1.3,1.2-3.1,1.6-4.8,1.6
			c0.9-2.5,1.8-5,2.6-7.5C362.1,231,363.5,230.3,364.6,229.6z"/>
		<path class="st177" d="M141,228.1c0.5,0.6,1,1.3,1.5,1.9c-0.7,2.2-3.2,4.4-2.1,6.7c1.9-0.2,3.2-2,5-2.4c0.2,0.6,0.5,1.1,0.7,1.7
			c-3.5,2.4-7,4.7-10.6,7c-1.2-2-2.9-3.9-3.4-6.2c-0.1-2.3,2.2-3.5,4.1-3.9c0.7,0.3,1.4,0.6,2.1,0.9C139,231.8,140,229.9,141,228.1z
			"/>
		<path class="st178" d="M254.5,233.7c2.3-1.4,4.4-3.1,6.2-5.2c-0.2,2.9-0.5,5.8-1.4,8.5C257.6,236.1,255.5,235.3,254.5,233.7z"/>
		<path class="st47" d="M175.1,234.5c3.6-0.2,7.1-0.2,10.7-0.4c-3.2,4.2-6.1,8.6-9.2,12.9c-0.2,0-0.5,0-0.6,0
			C175.1,242.9,175.5,238.6,175.1,234.5z"/>
		<path class="st179" d="M204.2,233.7c1.6,3.2,3.9,6.9,8,6.8c-0.2,1-0.5,2.1-0.7,3.1c-4.2,0.8-8.1-1.2-11.7-3
			C201.2,238.3,202.7,236,204.2,233.7z"/>
		<path class="st180" d="M135.2,235.6c1.7-1.4,2.9,1.4,3.6,2.6c-0.7,0.7-1.6,1.3-2.6,1.7C135.4,238.8,133.5,236.8,135.2,235.6z"/>
		<path class="st62" d="M165.6,245.7c2.5-3.4,4.7-7,7.4-10.2c0.1,3.9,0.5,7.9,0.6,11.8c0.7,0.1,1.4,0.2,2.1,0.3
			c-0.2,1.4-2,2.9-2.7,4.4C170.3,250.2,167.9,247.9,165.6,245.7z"/>
		<path class="st181" d="M146.6,237.1c0.5,0.6,1.1,1.2,1.6,1.9c-0.6,0.8-1.1,1.6-1.7,2.4c0.9,1.1,1.7,2.2,2.6,3.3
			c0.9-0.4,1.9-0.8,2.8-1.1c0.4,0.6,0.8,1.2,1.2,1.9c-4.1,1.5-8.2,3.1-12.1,4.9c-0.4-0.7-1.8-1.2-1.3-2.2
			C141.9,244.5,144.5,240.9,146.6,237.1z"/>
		<path class="st182" d="M289.7,238.4c3.7-0.8,7.2,2.1,8.6,5.3s-1.7,7.2-5.1,6.5c-2.7-0.6-5.1-2.5-6.4-5
			C285.5,242.7,287,239.2,289.7,238.4z"/>
		<path class="st183" d="M289.8,240.9c2.1-1.2,4.5,0.8,5.9,2.4c1.3,1.4,0.9,4-1.1,4.5c-2.3,0.3-4.2-1.4-5.4-3.1
			C288.3,243.6,288.3,241.6,289.8,240.9z"/>
		<path class="st27" d="M341.9,248.2c0.3-2.7,0-5.4,0.1-8.1c3.9,2.7,6.6,7.1,7.1,11.9c0.3,3.1-0.6,6.5-3.1,8.5
			c-1.2,0.1-1.9-1.3-2.6-2.1C341.4,255.3,341.5,251.6,341.9,248.2z"/>
		<path class="st153" d="M88.3,256.1c-1.3-5.4,1.2-11.3,5.3-14.9c0.4-0.1,1.1-0.3,1.4-0.5c-0.3,4.4,0.6,8.9,0.2,13.3
			c-0.4,2.6-1.7,5.3-4.1,6.5C89.9,259.3,88.7,257.9,88.3,256.1z"/>
		<path class="st15" d="M142.7,247.5c0.8-1.3,1.6-2.7,2.5-4c0.5,0.7,1.8,1.2,1.6,2.2C145.4,246.4,144,246.9,142.7,247.5z"/>
		<path class="st164" d="M198.2,243.7c2.8,3.8,7.5,5.9,12.2,5.3c-0.3,1.6-0.5,3.1-0.8,4.7c-5.6,0.6-10.5-2.7-15.6-4.4
			C195.4,247.4,196.8,245.6,198.2,243.7z"/>
		<path class="st184" d="M283.4,245.8c3.1,3,6.2,5.9,9,9c-0.5,0.5-1,0.9-1.6,1.4c-2.4-2.5-4.9-5-7.5-7.4c-1.1,1.3-2.3,2.6-3.6,3.8
			c-0.5-0.5-1-1-1.4-1.5C280.1,249.3,281.7,247.5,283.4,245.8z"/>
		<path class="st185" d="M146.6,254.5c1-3.2,3.9-5.8,7.2-6.5c2.7,0.2,4.2,2.8,5.9,4.6c-3.1,2.9-6.1,6-9.4,8.8
			C148.9,259.3,145.8,257.5,146.6,254.5z"/>
		<path class="st186" d="M245.6,254.6c3.7-1.5,6.8-4,9.4-7c2.1,2.4,4.9,4.4,8.2,4.8c-2.9,2.3-6.4,3.8-9.7,5.5
			c-9.6,4.5-19.8,8-30.4,9.1c0-4.2,0.1-8.4,0-12.6C230.3,257,238.5,257.6,245.6,254.6z"/>
		<path class="st183" d="M153.1,250.5c1.6-0.9,2.7,1.1,3.8,2c-1.9,1.8-3.8,3.7-5.8,5.5c-1.1,0.5-1.6-1-2.1-1.7
			C148.3,253.6,151.1,251.7,153.1,250.5z"/>
		<path class="st187" d="M65.9,251.1c6-1.3,12.7-0.4,17.6,3.5c1.9,1.2,2.3,3.6,3.6,5.3c0.3,1.2,0.5,2.7,0,3.8c-2.4,1-5.3,0.4-7.4-1
			c-3.7-2.5-6.2-6.4-9.7-9.1C68.7,252.6,67,252.3,65.9,251.1z"/>
		<path class="st156" d="M70.1,251.7c3.7-0.2,7.4,0.8,10.7,2.5c3.2,1.6,5.3,5,5.3,8.6c-4.1,0.9-7.3-2.1-9.9-4.8
			C74.2,255.8,72,254,70.1,251.7z"/>
		<path class="st188" d="M357.2,253.6c2.7-1.4,5.9-1.5,8.9-1.6c-0.4,1.4-1.5,2.3-2.4,3.2c-2.6,2.4-4.7,5.4-7.9,7.1
			c-1.6,0.8-3.4,0.6-5.1,0.6C350.8,258.8,353.6,255.2,357.2,253.6z"/>
		<path class="st189" d="M160.5,253.8c0.7,0.4,1.4,0.8,2.1,1.2c-0.2,1.9-0.6,3.8-0.5,5.8c0.1,0.7,0.9,1.5,1.5,0.9
			c1.1-1.2,1.9-2.6,2.8-3.9c0.6,0.5,1.1,1,1.7,1.5c-2.7,3.3-4.7,7.1-7.7,10.3c-1.5-1.3-3.2-2.4-4.7-3.8c-2.3-2.6,1.1-6.8,4.2-5.8
			C159.8,257.9,160.1,255.8,160.5,253.8z"/>
		<path class="st190" d="M189.3,256.6c1.2-1.2,2.6-2.2,4-3.2c4.4,4.8,11.5,5.8,17.7,5.8c0,1.4,0,2.7,0,4.1
			C203.3,263.5,195.5,261.1,189.3,256.6z"/>
		<path class="st191" d="M274.8,254.3c1.7-0.8,3.8-0.3,5.2,0.9c1.9,1.6,3.6,3.6,3.8,6.2c0.2,2.1-1.3,3.9-3.1,4.7
			c-1.7,0.6-3.6,0.1-5-1c-2.1-1.6-3.9-4.1-3.8-6.9C272,256.4,273.3,255.1,274.8,254.3z"/>
		<path class="st192" d="M275.2,256.6c2.3-1.3,4.5,0.9,5.6,2.7c1.2,1.4,1,3.9-0.8,4.7c-2.3,0.7-4.1-1.5-5.2-3.2
			C273.9,259.5,273.9,257.6,275.2,256.6z"/>
		<path class="st48" d="M101.1,262.7c1.2-2,2.2-4.4,4.5-5.2c-0.3,5.2,2,10.3,0.7,15.4c-0.7,1.8-1.6,4.6-4,4
			C98.6,273.2,98.6,267,101.1,262.7z"/>
		<path class="st103" d="M331.4,257.1c2.5,1.5,4,4.2,5.2,6.8c2,4.5,1.5,10.6-2.7,13.7c-2.1-1.6-3.4-4.1-3.6-6.8
			C329.9,266.2,331.8,261.8,331.4,257.1z"/>
		<path class="st193" d="M169,259.9c0.7,0.4,1.3,0.8,2,1.2c-0.2,0.9-0.5,1.9-0.6,2.8c1,1,2.3,1.6,3.5,2.3c0.8-0.7,1.5-1.5,2.3-2.2
			c0.5,0.5,1.1,1,1.6,1.5c-3.4,2.8-6.5,5.9-9.8,8.7c-0.7-0.3-1.3-0.7-2-1C167,268.8,168.1,264.4,169,259.9z"/>
		<path class="st50" d="M261.4,265.7c0.4-2.3,2.5-4.4,4.9-4.6c3.1-0.2,5.4,2.6,6.4,5.2c1.4,2.6,0.4,6.2-2.4,7.3
			c-1.8,1-3.8,0.1-5.1-1.3c0.3-0.3,1-1,1.4-1.3c1.1,0.3,2.3,1.1,3.4,0.2c1.5-1,1.5-3.2,0.6-4.6c-0.8-1.4-1.8-3.1-3.6-3.2
			c-1.9-0.3-3.8,2.1-2.6,3.7c0.9-0.3,1.7-0.6,2.6-0.9c0.2,0.7,0.4,1.3,0.6,2c-1.2,0.7-2.4,1.4-3.7,2.1
			C263,268.7,261.9,267.3,261.4,265.7z"/>
		<path class="st194" d="M158.4,262.1c1.3-0.3,2.4,0.8,3.4,1.5c0.3,1.1-0.9,2-1.6,2.8C158.6,265.7,156,263.6,158.4,262.1z"/>
		<path class="st15" d="M169.7,266.3c0.8,0.5,1.6,0.9,2.4,1.4c-1,1.1-2.1,2.1-3.2,3.1C169.1,269.3,169.4,267.8,169.7,266.3z"/>
		<path class="st195" d="M177.3,273.1c-1.5-2.4,0.3-5.9,3-6.3c1.5-0.1,3,0.8,4,1.9c1.1,1.2,0.6,3,0.6,4.5c-0.5-0.1-1.5-0.3-2-0.4
			c0-1.3-0.1-3.2-1.7-3.5c-1.2-0.5-2.7,0.8-2.1,2.1c0.9,1.2,2.1,2.1,3,3.3c0.9,1.8,0.2,4.3-1.7,5.3c-2.8,1.1-6.6-1.7-5.4-4.8
			c0.3,0,0.8,0,1,0.1l0.7-0.2c0.4,0.8,0.1,2.1,1,2.5c0.9,0.7,1.9,0.2,2.9-0.3C179.9,275.5,178.4,274.4,177.3,273.1z"/>
		<path class="st196" d="M254.5,267.5c0.5-0.1,1.4-0.4,1.8-0.6c0.8,1.6,1.4,3.2,2.2,4.7c1.7,1.9,4,3.2,5.8,5c0.1,1-1.1,1-1.8,1.4
			c-1.3-1.3-2.7-2.5-4.2-3.5c-0.1,1.7,0,3.5-0.2,5.2c-0.4,0.8-1.5,0.8-2.1,1.2c-0.1-2.8,0.4-5.5,0.3-8.3
			C255.9,270.9,255,269.3,254.5,267.5z"/>
		<path class="st26" d="M120.2,268.4c0.2,0.2,0.5,0.5,0.7,0.6c-1.4,4.4,1.5,8.4,2.7,12.5c1.3,3.4,1.2,7.6-1,10.7
			c-1.4,1.8-3.4-0.4-4.8-1.1C112.1,284.6,113.9,273.9,120.2,268.4z"/>
		<path class="st26" d="M316.5,268.2c5.4,4.3,7.7,12.2,5.4,18.8c-0.9,1.9-1.7,4.1-3.7,5c-1,0.5-2,0.9-3,1.4
			c-2.3-3.2-3.2-7.4-1.8-11.2c1.1-4,3.9-7.7,3.1-11.9C316.3,269.5,316.3,268.8,316.5,268.2z"/>
		<path class="st197" d="M211.1,269.9c0.7-0.2,1.3-0.4,2-0.6c1.8,0.1,3.7,0.3,5.5,0.6C216.1,270.6,213.6,269.9,211.1,269.9z"/>
		<path class="st27" d="M80.9,270.4c3.6-0.6,7.4-0.5,10.7,1.1c3.4,1.4,6.4,4.4,6.7,8.2c-0.9,1.4-3.3,0.6-4.7,0.4
			C88.5,278,85.6,273,80.9,270.4z"/>
		<path class="st61" d="M344.6,271.9c3.5-1.7,7.6-2.4,11.3-1.4c-4.3,2.6-7.2,6.9-11.6,9.3c-1.7,0.8-3.7,0.6-5.5,0.6
			C338.8,276.7,341.4,273.4,344.6,271.9z"/>
		<path class="st27" d="M115.5,283.4c-0.5-4.3,0.8-8.7,3.5-12.1c0.8,3.7,2.3,7.2,3.6,10.7c1.1,3.3,1.1,7.3-1.3,10
			C118,290.4,115.8,287,115.5,283.4z"/>
		<path class="st27" d="M318.1,271.2c2.3,3.3,3.9,7.4,3.4,11.5c-0.1,3.8-2.2,8.3-6.3,9.1c-1.6-3.2-1.9-6.9-0.7-10.3
			C315.9,278.2,317.3,274.8,318.1,271.2z"/>
		<path class="st198" d="M95.7,272.2C96,272.5,96,272.5,95.7,272.2z"/>
		<path class="st199" d="M246.3,272.8c2.5-1.5,5.9,0.8,5.9,3.6c0.1,3-3.8,5.3-6.3,3.3C243.3,278.2,243.5,274,246.3,272.8z"/>
		<path class="st200" d="M233.7,275.5c2.6-0.7,5.1-1.5,7.8-2.1c0.1,0.8,0.1,1.5,0.2,2.3c-0.8,0.2-1.6,0.3-2.4,0.5
			c0.2,3.6,1.7,7,2.3,10.6c-0.7,0.1-1.3,0.2-2,0.3c-0.7-3.3-1.8-6.5-2.4-9.8c-1.1,0.1-2.2,0.2-3.3,0.3
			C233.9,276.9,233.8,276.2,233.7,275.5z"/>
		<path class="st201" d="M175.1,275c0.4-0.9,0.8-0.9,1,0.1C175.9,275,175.4,275,175.1,275z"/>
		<path class="st202" d="M197.8,280.3c-1.9-2-0.4-6.1,2.5-6c2.6,0,4.7,2.3,4.2,5c-0.5-0.1-1.5-0.3-2-0.3c-0.2-0.7-0.4-1.4-0.7-2.1
			c-0.8-0.4-1.7-0.3-2.6-0.3c-0.7,2.4,2.2,3,3.4,4.6c0,0,0,0.1,0.1,0.1c1.5,1.9,0.6,5-1.4,6.2c-1.6,0.6-3.5,0.2-4.8-0.9
			c-1.2-1.1-1.2-2.8-1.3-4.3c0.5,0,1.4,0.1,1.9,0.1c0.2,1.4,0.8,3.4,2.6,3.1c1.2,0,1.4-1.2,1.8-2
			C200.2,282.4,198.9,281.5,197.8,280.3z"/>
		<path class="st203" d="M188.6,275.3c2.7-1.8,6.5,1.1,5.9,4.2c-0.4,2.9-4.3,4.6-6.5,2.5C185.6,280.4,186.1,276.6,188.6,275.3z"/>
		<path class="st74" d="M205.9,285.9c0-3.5,0.4-7,1.1-10.4c0.5,0.1,1.4,0.4,1.9,0.6c-0.3,3.1-0.9,6.1-0.9,9.2
			c-0.2,1.9,3.1,2.3,3.5,0.6c0.8-3.1,0.9-6.3,1.3-9.4c0.5,0,1.5,0,2,0.1c-0.3,3.5-0.5,7-1.4,10.5
			C212.2,290.6,205.9,289.6,205.9,285.9z"/>
		<path class="st204" d="M229,275.3c0.5,0,1.6-0.1,2.2-0.1c1.7,4.1,3.6,8.1,5.4,12.2c-0.5,0.1-1.6,0.4-2.1,0.5
			c-0.4-0.9-0.8-1.9-1.2-2.8c-1.4,0.1-2.8,0.2-4.2,0.4c-0.1,1-0.3,2-0.4,3c-1.9,0-3.8-0.1-5.7,0.2c-1.3-1.9-1.9-5.1-4.7-5.2
			c0.1,1.8,0.2,3.7,0.3,5.5c-0.5,0-1.6,0-2.1,0c-0.2-4.3-0.4-8.5-0.6-12.8c2.3,0,4.7-0.6,7,0.2c2.3,1.6,1.9,5.5-0.6,6.8
			c1.2,1.6,2,3.4,3.3,4.9l1,0.1C227.5,283.9,228.1,279.6,229,275.3z"/>
		<path class="st205" d="M234.5,276.6c0.7-0.5,1.9-0.5,2.7-0.1C237,277.4,234.7,277.5,234.5,276.6z"/>
		<path class="st206" d="M218.1,278.5c1.3,0,2.6,0,3.9,0.1c0.1,0.9,0.1,1.7,0.1,2.6c-1.3,0.3-2.6,0.5-3.9,0.6
			C218.2,280.7,218.1,279.6,218.1,278.5z"/>
		<path class="st15" d="M230.3,278.9c0.7,1.4,1.4,2.8,2,4.2c-0.9,0-1.8,0.1-2.8,0.1C229.8,281.8,230.1,280.3,230.3,278.9z"/>
		<path class="st207" d="M203,281.1C203,281.1,203,281.2,203,281.1C203,281.2,203,281.1,203,281.1z"/>
		<path class="st208" d="M137.1,284.2c0.2,0.1,0.6,0.4,0.8,0.5c-1.1,4.5,2.2,8.2,3.7,12.1c1.8,3.5,1.8,7.8-0.1,11.3
			c-0.4,0.2-1.3,0.5-1.7,0.7c-1.7-0.8-3.4-1.6-4.6-3.1C130.8,299.2,131.9,290,137.1,284.2z"/>
		<path class="st103" d="M133.5,297.8c-0.2-3.7,0.7-7.5,2.7-10.6c1.4,5.8,6.3,10.7,5.6,16.9c-0.1,1.2-0.7,3.4-2.3,2.9
			C135.7,305.8,134,301.5,133.5,297.8z"/>
		<path class="st48" d="M295.6,299.5c1.4-4.3,4.1-8,5.2-12.4c3.2,4.8,3.9,11.5,0.9,16.6c-1.1,2-3.1,3.1-5.1,4
			C295.1,305.3,294.7,302.2,295.6,299.5z"/>
		<path class="st209" d="M101.7,289.1c3.9-0.7,8.2-0.8,11.7,1.4c1.9,1.1,2.9,3.1,3.9,4.9c-1.8,1.6-4.5,1.4-6.7,0.9
			c-4-1.4-7.6-4-11.6-5.5C99.7,289.9,100.6,289.2,101.7,289.1z"/>
		<path class="st27" d="M319.8,295.5c1.4-3.9,5.2-6.5,9.3-6.7c3.2-0.1,6.7-0.3,9.4,1.7c-3.9,1.5-7.5,3.8-11.3,5.6
			C324.9,296.8,321.8,297.2,319.8,295.5z"/>
		<path class="st210" d="M151.6,296.6c0.3-0.6,0.5-1.5,1.4-1.2c0.1,5.2,4.8,8.2,7.3,12.3c2.1,2.8,2.3,6.5,1.5,9.9
			c-0.3,0.2-0.8,0.6-1.1,0.8c-3-0.3-5.9-1.6-7.6-4.1C149.4,309.3,149,302.2,151.6,296.6z"/>
		<path class="st211" d="M284.1,295.2c0.7,0.3,1.2,0.9,1.4,1.6c2.7,5.7,2.2,12.9-1.8,17.9c-1.8,2.6-5,3.8-8.1,3.8
			c-0.8-2.7-1.1-5.6-0.1-8.2c1.7-4.3,5.4-7.2,7.8-11.1C283.6,297.9,283.9,296.5,284.1,295.2z"/>
		<path class="st48" d="M152.1,298.4c2,4.4,6,7.4,8.1,11.8c1,2.1,0.8,4.6,0.6,6.9c-3.3,0.3-6.3-1.9-7.7-4.7
			C150.7,308.1,150.3,302.9,152.1,298.4z"/>
		<path class="st212" d="M277,309.8c2.2-4.1,5.9-7.1,8-11.3c2.1,5.5,1.1,12.5-3.3,16.6c-1.4,1.5-3.5,1.9-5.5,1.9
			C276.1,314.6,275.8,312,277,309.8z"/>
		<path class="st27" d="M117.3,308.2c2.8-1.7,6.2-2.4,9.5-2.6s6,2.2,8.4,4c1.1,0.6,1.4,2.5,0.1,2.9c-2.3,0.8-5,0.7-7.3-0.2
			C124.5,311,121,309.3,117.3,308.2z"/>
		<path class="st26" d="M171.1,305.8c1,1,0.9,2.6,1.7,3.8c2.6,4,7.2,6.5,9.1,11c1,2.1,0.8,4.5,0.6,6.8c-2.8,1.8-6.7,0.4-8.6-2.1
			C169.1,320.2,168,312,171.1,305.8z"/>
		<path class="st61" d="M302.5,308.9c2.4-1.8,5.2-3.8,8.3-3.3c3.2,0.6,6.5,0.9,9.4,2.5c-5.6,1.1-10.4,5.3-16.3,5
			c-1.2-0.2-3.3-0.4-3.1-2C300.9,310.1,301.9,309.5,302.5,308.9z"/>
		<path class="st156" d="M171,309c2,3.3,5,5.8,7.6,8.6c1.9,2.1,3.2,4.9,3.1,7.8c-0.1,2.3-3,1.5-4.3,0.9
			C171.4,323.2,169.4,315.2,171,309z"/>
		<path class="st86" d="M258.7,319c2.6-2.6,5.3-5.1,7.4-8.2c1.2,4.9,0.2,10.5-3,14.5c-1.7,2.2-4.6,2.8-7.1,3.5
			C254.1,325.6,256.5,321.7,258.7,319z"/>
		<path class="st26" d="M190.8,314.1c0.9,1.6,1.5,3.5,3,4.7c3.3,2.9,7.8,4.8,9.9,8.9c1,2.1,1.9,4.7,0.7,6.9
			c-2.7,0.9-5.9,0.4-8.1-1.5C190.8,328.8,188.1,320.7,190.8,314.1z"/>
		<path class="st212" d="M237.8,324c2.8-2.1,5.9-4,8.2-6.7c1,5.1-1.3,10.3-4.9,13.8c-2.1,2-5.1,2.6-7.9,2.1
			C232.9,329.6,234.9,326.1,237.8,324z"/>
		<path class="st61" d="M190.9,317.6c3.2,3.1,7,5.3,10.2,8.3c2.1,1.9,2.6,4.8,2.9,7.5c-2.9,1.1-6-0.2-8.2-2.2
			C192.2,327.7,190.3,322.6,190.9,317.6z"/>
		<path class="st156" d="M138.1,323.3c3.2-2.9,7.5-5.2,12-4.5c2.5,0.8,4.8,2.3,7.1,3.5c-0.8,0.9-1.5,2-2.8,2.1
			C149,325.5,143.6,323.4,138.1,323.3z"/>
		<path class="st61" d="M279.9,322.1c2.4-1.1,4.6-2.8,7.2-3.4c4.4-0.6,8.6,1.6,11.9,4.4c-3.6,0.5-7.1,1.2-10.7,1.4
			c-2.4,0.2-4.9-0.4-7.3,0.2C281.1,323.7,280.4,322.9,279.9,322.1z"/>
		<path class="st213" d="M216.8,324.2c0.3,0.1,0.9,0.4,1.1,0.6c3.6,4.2,7.9,8.7,8,14.6c0,5.7-4.5,10-8.9,13
			c-3.8-2.7-7.5-6.4-7.8-11.4C208.8,334.4,212.9,328.9,216.8,324.2z"/>
		<path class="st214" d="M159.5,335.1c3.3-2.7,6.9-5.6,11.3-6c3-0.4,5.7,1.3,8.2,2.8c-1.4,2.7-4.7,3.9-7.6,3.7
			C167.5,335.5,163.5,335.7,159.5,335.1z"/>
		<path class="st103" d="M258,332.3c2.1-2.1,5.2-3.5,8.2-3.1c4.2,0.8,8.3,2.7,11,6.1c-4.5,0-9,0.6-13.5,0.2
			C261.4,335.5,259.6,333.9,258,332.3z"/>
		<path class="st215" d="M213.3,339.2c-0.5-3.4,4-6.5,6.9-4.3c1.8,0.9,2.6,3,2.3,4.9c0.1,1.9-1.8,2.9-3,4c-0.9,0.1-1.7,0.2-2.6,0.3
			C215,343.2,213.2,341.4,213.3,339.2z"/>
		<path class="st103" d="M234.1,338.5c2.1-0.5,4.3-1.1,6.4-1.5c4.9,1.1,9,4.8,11.2,9.3c-3.3-0.6-6.6-1.7-9.9-2.1
			c-3.2-0.5-6.5-1.5-8.5-4.2C233.5,339.5,233.9,338.8,234.1,338.5z"/>
		<path class="st209" d="M193.2,338.5c2.7-1.6,5.9-0.9,8.7-0.3c0.9,0.1,1.4,0.9,2,1.6c-1.8,3.1-5.4,4.3-8.8,4.6
			c-3.5,0.4-6.7,1.7-10.1,2.3C186.9,343.3,189.8,340.4,193.2,338.5z"/>
		<path class="st216" d="M119.2,343.6c9.6,4.8,18.8,10.2,28.4,15.1c0-1.9,0-3.8,0.1-5.7c2.5,0.8,4.8,2.3,7.1,3.4
			c10.5,5.3,21.5,9.7,32.9,12.2c11.7,2.8,23.8,3.3,35.8,2.4c23.1-2,45.2-9.1,67.5-14.8c0.1,1.5,0.3,3,0.4,4.5
			c9.3-4.8,18.2-10.4,27.5-15.2c-0.7,3.4-2.7,6.4-3.2,9.9c2.9,0.9,5.9,1.7,8.8,2.9c0.2,1-0.9,1.4-1.6,1.9
			c-10.9,6.9-21.6,14.2-32.5,21c-0.2-1.8-0.2-3.5-0.2-5.3c-13.3,5.3-27.2,9.5-41.3,11.9c-7.8,1.5-15.7,1.9-23.5,2.7
			c-3.9-0.3-8-0.7-11.9,0.3c-1.2-0.4-2.5-0.8-3.8-0.8c-12.8-0.7-25.5-3-37.8-6.6c-7.8-2.1-15.3-5.2-22.9-8.2c0,1,0,2,0,3
			c-1.1-0.2-2-0.6-2.9-1.2c-11-6.8-22.2-13.3-33.1-20.3c3.1-1.3,6.3-2.2,9.4-3.2C121.8,350.1,119.9,347,119.2,343.6z"/>
		<path class="st217" d="M120.5,345.7c8.9,4.7,17.7,9.6,26.6,14.3c0.3,5.6-0.2,11.2,0.2,16.7c-10.8-6.7-21.7-13.2-32.6-19.9
			c2.9-1.1,5.9-1.7,8.7-3.1C122.5,351.2,121.4,348.5,120.5,345.7z"/>
		<path class="st217" d="M290.3,362.4c8.7-4.8,17.5-9.8,26.1-14.7c-0.7,2.8-1.9,5.4-2.9,8.1c2.8,1.4,5.8,2,8.7,3.1
			c-10.4,7-21,13.6-31.4,20.5c0.2-2.7-0.6-5.4-0.6-8.1C290.3,368.3,290.3,365.4,290.3,362.4z"/>
		<path class="st218" d="M148.3,354.5c12.2,6.6,25.1,12.2,38.6,15.2c14.5,3.4,29.5,3.6,44.2,1.5c19.9-2.7,39.1-8.6,58.5-13.7
			c0.3,5.6,0.3,11.3,0.3,16.9c-27.7,11.5-58.3,16.9-88.3,13.7c-13-1.4-25.9-4.3-38.3-8.6c-5.3-1.7-10.3-4-15.5-6
			c0.2-5.2-0.5-10.4,0.6-15.5C148.3,356.9,148.3,355.7,148.3,354.5z"/>
		<path class="st219" d="M154.3,360.6c0.1-1,1.3-0.6,1.9-0.3c3,1.4,5.1,4,7.5,6.2c-0.5,0.3-1,0.6-1.5,0.9c1,2.2,0.3,4.7,0.4,7.1
			c-0.4-0.1-1.2-0.4-1.6-0.5c0-0.7,0-1.4,0-2.1c-2.1-0.6-4.2-2-4.7-4.3c-0.3-2.8,4.4-1.4,4.5,0.6c-1.2-0.4-2.5-0.7-3.7-0.9
			c-0.2,2.2,2.2,2.8,3.8,3.2c0.1-1.2,0.1-2.5,0.1-3.7c0.4-0.3,0.8-0.6,1.3-0.9c-2-1.6-3.8-3.7-6.3-4.3c-0.4,3.3-0.2,6.6-0.3,9.9
			c-0.4-0.2-1.2-0.5-1.7-0.6C154.1,367.3,153.9,364,154.3,360.6z"/>
		<path class="st26" d="M278,363.7c0.3,0,1,0,1.4,0.1c0,2.8,0,5.7-0.2,8.5c-0.5-0.2-0.9-0.5-1.3-0.8C277.9,369,278,366.4,278,363.7z
			"/>
		<path class="st220" d="M274.2,365.2c0.4,0.1,0.9,0.3,1.3,0.4c0.1,2.7-0.1,5.4-0.1,8.1c-0.4-0.1-1.1-0.1-1.4-0.2
			C274.1,370.8,274.1,368,274.2,365.2z"/>
		<path class="st221" d="M163.8,370.1c-0.7-1.2,1-2.1,2-1.6c1.4,0.7,2.5,2,3.9,2.8l0.2-1.4c0.6,0.4,1.1,0.8,1.7,1.2
			c-0.1,2.3-0.1,4.6-0.3,6.9c-2.7-0.6-1.1-3.7-1.5-5.6c-2-0.8-3.1-3.3-5.5-3.3c0.7,2.1,4.8,2.1,3.8,4.9c-0.4,0.2-1.3,0.6-1.8,0.8
			c1,0.4,2,0.9,2.5,1.8c-2.5-0.1-3.9-2.6-5.3-4.4c1.5-0.2,2.6,1.2,4.2,1.1C166.7,372,164.2,372,163.8,370.1z"/>
		<path class="st26" d="M180.4,371.5c0.3-1,0.9-1.7,1.9-1.1c0.2,0.4,0.5,1.3,0.7,1.8C182.1,372.3,181.2,371.9,180.4,371.5z"/>
		<path class="st222" d="M265.2,370c0.4,0,1.2,0,1.6,0c0.1,2.3,0,4.5-0.1,6.8c-0.2,0.2-0.7,0.7-1,1c1.2,0.3,2.4,0.5,3.6,0.8
			c-1.4,1-3.2,0.4-4.8,0.3c0.7-1.7,0.5-3.5,0.5-5.2c-1.3,0.5-3.4,0.6-3.5,2.4c0.4,0.8,0.8,1.6,1.3,2.4c-1.5-0.4-3-2-2.3-3.6
			c0.8-1.8,3-2,4.6-2.6C265.2,371.5,265.2,370.8,265.2,370z"/>
		<path class="st223" d="M172.9,370.9c0.5,0.4,1.1,0.8,1.6,1.3c0,2.3,0,4.6-0.1,6.8c-0.6-0.3-1.9-0.3-1.6-1.3
			C172.8,375.4,172.9,373.1,172.9,370.9z"/>
		<path class="st224" d="M257.6,372.6c0.4,0,1.2,0.1,1.7,0.2c0,2.3,0,4.6-0.1,6.9c-0.4,0.1-1.2,0.3-1.7,0.4
			C257.6,377.6,257.6,375.1,257.6,372.6z"/>
		<path class="st225" d="M255,373.4c0.2,0.1,0.8,0.2,1.3,0.3c0,2.2-0.1,4.5-0.1,6.8c-0.4,0.1-1.2,0.3-2.2,0.4v-2.1
			c-0.9,0.7-2.8,1.2-4-0.4l-0.8,0.7c0.1-0.6,0.2-1.2,0.3-1.8c0.9-0.3,1.7-0.8,2-1.7c-0.5-0.5-1-1-1.5-1.4c1,0.1,2,0.2,3,0.5
			c0,1.5-1.1,2.6-2.1,3.6c1.5,0.6,2.7-0.3,4.1-1.2L255,373.4L255,373.4z"/>
		<path class="st226" d="M180.2,373.2c0.4,0.3,1.2,0.9,1.6,1.2c0,2.2-0.1,4.5-0.1,6.7c-0.4-0.1-1.3-0.4-1.7-0.5c0-1.4,0-2.8,0-4.2
			c-0.6-0.2-1.8-0.5-2.4-0.7c-0.1,0.4-0.2,1.2-0.2,1.6c-1.1-0.9-1.9-2.1-2.6-3.4c1.7,0.3,3.4,0.8,5.1,1.3
			C180.1,374.7,180.2,373.7,180.2,373.2z"/>
		<path class="st227" d="M208.2,375.3c0.8-1,2.3-0.7,3.4-0.5c2.3,0.6,4.4,1.8,6.2,3.3c-2.6-0.6-4.6-3-7.5-2.5
			c-0.2,0.2-0.5,0.5-0.7,0.7c-0.2,2.9-0.1,5.8-0.2,8.7c-0.4,0-1.3,0-1.7,0.1C207.9,381.8,207.7,378.5,208.2,375.3z"/>
		<path class="st228" d="M188.6,375.3c2.1-0.4,4.8,1.2,4.4,3.5c0,1.2-1.4,1.3-2.1,1.8c0.7,0.8,1.6,1.4,2.8,1.2
			c0.1,0.6,0.2,1.1,0.2,1.7c-2.5-0.4-3.3-3-5.2-4.2c-0.2-2.2,2.5,0.5,3.3-1.2C192.7,375.6,188.8,377.6,188.6,375.3z"/>
		<path class="st227" d="M244.4,375.9c1.7-0.9,4.1-0.8,4.6,1.4c-0.6,1.2-1.6,2.1-2.2,3.3c0.7,0.5,1.6,0.5,2.5,0.1
			c0.1,0.3,0.4,0.9,0.5,1.2c-1.5,0.7-3,0-3.8-1.4c-0.4-0.1-1.2-0.2-1.6-0.2c0.2-0.6,0.1-1.7,1.1-1.6c1.6,0.2,2.6-1.2,2.4-2.7
			c-1,0.2-1.9,0.5-2.8,0.8C244.9,376.6,244.6,376.1,244.4,375.9z"/>
		<path class="st229" d="M194.7,376.4c0.4,0.2,1.2,0.5,1.5,0.7c0.2,2.3,0.1,4.6,0,6.8c-2.3,0.2-1.6-2-1.6-3.5
			c-2.2,0.3-0.6-1.2,0-1.6C194.6,377.9,194.7,377.2,194.7,376.4z"/>
		<path class="st230" d="M197.8,376.8c0.5,0.3,1.1,0.6,1.7,0.9c0,2.2-0.1,4.3-0.1,6.5c-0.6-0.1-1.1-0.1-1.7-0.2
			C197.7,381.6,197.7,379.2,197.8,376.8z"/>
		<path class="st231" d="M200.5,378.2c1.7-2.3,6.2,0.1,5.1,2.9c-0.7,0.6-1.5,1-2.2,1.5c0.6,1.1,1.9,1,2.9,1.2
			c0.2,0.4,0.4,0.8,0.7,1.3c-2.9,0.5-4-2.7-6.4-3.6c-0.2-1.8,2.1-0.8,2.9-0.4c0.5-0.5,2.3-1.2,1.1-2.1
			C203.3,378.2,201.8,378.6,200.5,378.2z"/>
		<path class="st232" d="M210.1,378.7c1.1-1,3-1.1,3.9,0.3c0.7,1.9-1.5,2.7-2.7,3.7c1.2,0.2,2.5-0.1,2.7-0.5v-3.9
			c1.6,0.2,2.1,0.4,2.7,0.6c0,2.2,0,4.4-0.2,6.5c-0.4,0-1.2-0.1-1.5-0.1v-1.8c-1.9,0.5-3.6-0.1-4.7-1.6
			C211.2,380.9,210.7,379.7,210.1,378.7z"/>
		<path class="st26" d="M232.3,377.6c0.4,0.1,1.2,0.3,1.6,0.5c0,2.2-0.1,4.4-0.1,6.5c-0.4,0-1.3,0.1-1.7,0.2c0-1.4,0-2.7,0.1-4.1
			c-1.3,0.2-3.2-0.2-2.7,1.8c-1-0.6-1.8-1.3-2.6-2.2c1.6-0.8,3.4-0.6,5.2-0.7C232.1,378.9,232.2,378.2,232.3,377.6z"/>
		<path class="st26" d="M235.5,379.3c-0.1-1.4,2.4-2.3,2.4-0.5C237.4,379.8,236.4,379.6,235.5,379.3z"/>
		<path class="st233" d="M211.8,378.9c1-0.3,1.3,0.1,0.9,1.2C211.7,380.3,211.4,379.9,211.8,378.9z"/>
		<path class="st26" d="M219.5,379.1c0.7-0.1,1.2,0.4,1.4,1c-0.6,0.7-1.4,1-2.2,0.4C218.4,379.7,218.7,379.2,219.5,379.1z"/>
		<path class="st26" d="M236.4,381.7c1.5-0.8,1.9,1.4,0.4,1.6C235.6,383.8,235.2,381.9,236.4,381.7z"/>
		<path class="st26" d="M218.7,384.3c-0.8-1.6,1.1-1.6,2.1-1.3C220.7,384.1,219.9,384.8,218.7,384.3z"/>
		<text transform="matrix(1 0 0 1 161.6807 1101.8438)" class="st234 st5 st6">9</text>
		<rect x="480" y="732" class="st2" width="972" height="516"/>
		<rect x="1983" y="1197" class="st2" width="6" height="6"/>
		<text transform="matrix(1 0 0 1 108.6816 1247.877)" class="st235 st5 st236">FEB</text>
		<text transform="matrix(1 0 0 1 115 1461)" class="st237 st5 st238">NEW </text>
		<text transform="matrix(1 0 0 1 115 1581)" class="st237 st5 st238">ECED</text>
		<text transform="matrix(1 0 0 1 115 1701)" class="st237 st5 st238">DEPT.</text>
		<text transform="matrix(1 0 0 1 173.6904 1358.8623)" class="st239 st240 st238">@</text>
		<polygon class="st2" points="65.7,1263 74.7,1263 74.7,1263 		"/>
	</g>
</g>
</svg>
