<?xml version="1.0" encoding="utf-8"?>
<!-- Generator: Adobe Illustrator 22.0.1, SVG Export Plug-In . SVG Version: 6.00 Build 0)  -->
<svg version="1.1" id="Layer_1" xmlns="http://www.w3.org/2000/svg" xmlns:xlink="http://www.w3.org/1999/xlink" x="0px" y="0px"
	 viewBox="0 0 2880 1800" style="enable-background:new 0 0 2880 1800;" xml:space="preserve">
<style type="text/css">
	.st0{fill:#1F1A17;}
	.st1{fill:#FFFCC7;}
	.st2{fill:#D62820;}
	.st3{fill:#D7271C;}
	.st4{fill:#D62620;}
	.st5{fill:#D22822;}
	.st6{fill:#FFFCC8;}
	.st7{fill:#FFF0C0;}
	.st8{fill:#D42821;}
	.st9{fill:#D32922;}
	.st10{fill:#1E1B17;}
	.st11{fill:#D52821;}
	.st12{fill:#1D1B17;}
	.st13{fill:#00923F;}
	.st14{fill:#D72722;}
	.st15{fill:#D8281E;}
	.st16{fill:#D7271E;}
	.st17{fill:#DD231F;}
	.st18{fill:#A47046;}
	.st19{fill:#EBE0ED;}
	.st20{fill:#2A176E;}
	.st21{fill:#C6BAC7;}
	.st22{fill:#29176E;}
	.st23{fill:#DC2B24;}
	.st24{fill:#ECCBD6;}
	.st25{fill:#C0D6F2;}
	.st26{fill:#D52921;}
	.st27{fill:#D92823;}
	.st28{fill:#2D176A;}
	.st29{fill:#BBD4E5;}
	.st30{fill:#1C1F1B;}
	.st31{fill:#152117;}
	.st32{fill:#2B166D;}
	.st33{fill:#BBD8E7;}
	.st34{fill:#00923E;}
	.st35{fill:#EBCAD3;}
	.st36{fill:#D7271F;}
	.st37{fill:#9C8FDF;}
	.st38{fill:#BAD5E9;}
	.st39{fill:#897A66;}
	.st40{fill:#E02520;}
	.st41{fill:#D2CF0D;}
	.st42{fill:#362330;}
	.st43{fill:#926D41;}
	.st44{fill:#BAD9E4;}
	.st45{fill:#004916;}
	.st46{fill:#D32822;}
	.st47{fill:#01923F;}
	.st48{fill:#B9D9E5;}
	.st49{fill:#BECEF3;}
	.st50{fill:#D5CF00;}
	.st51{fill:#C9C837;}
	.st52{fill:#ECCAD6;}
	.st53{fill:#DA2721;}
	.st54{fill:#322129;}
	.st55{fill:#494011;}
	.st56{fill:#FDFFC2;}
	.st57{fill:#C4BD5B;}
	.st58{fill:#BCD5E9;}
	.st59{fill:#B9D9E6;}
	.st60{fill:#D92620;}
	.st61{fill:#A95636;}
	.st62{fill:#FFFEC4;}
	.st63{fill:#746F04;}
	.st64{fill:#D8261E;}
	.st65{fill:#BAD9E5;}
	.st66{fill:#B8DAE7;}
	.st67{fill:#ECCBD4;}
	.st68{fill:#B7D9E7;}
	.st69{fill:#A85F3C;}
	.st70{fill:#361D56;}
	.st71{fill:#BCD7E7;}
	.st72{fill:#019240;}
	.st73{fill:#BBD7EC;}
	.st74{fill:#BAD8E7;}
	.st75{fill:#D52922;}
	.st76{fill:#EAC8DC;}
	.st77{fill:#FFFCC5;}
	.st78{fill:#D82720;}
	.st79{fill:#BCD7EB;}
	.st80{fill:#FDFAC3;}
	.st81{fill:#FFFAC6;}
	.st82{fill:#B9DAE3;}
	.st83{fill:#EBCADA;}
	.st84{fill:#B9D8E9;}
	.st85{fill:#19361F;}
	.st86{fill:#A97040;}
	.st87{fill:#D02B1F;}
	.st88{fill:#404C8B;}
	.st89{fill:#01923E;}
	.st90{fill:#D62621;}
	.st91{fill:#BDD7E8;}
	.st92{fill:#292C75;}
	.st93{fill:#BFDED8;}
	.st94{fill:#36357F;}
	.st95{fill:#B0C0E8;}
	.st96{fill:#384274;}
	.st97{fill:#28196C;}
	.st98{fill:#B4C3EA;}
	.st99{fill:#C2D5E6;}
	.st100{fill:#333680;}
	.st101{fill:#B7DFDE;}
	.st102{fill:#ECCAD4;}
	.st103{fill:#FFF1B7;}
	.st104{fill:#424D8F;}
	.st105{fill:#B1C2ED;}
	.st106{fill:#AFC5E7;}
	.st107{fill:#ACBEE0;}
	.st108{fill:#1E2866;}
	.st109{fill:#BCC9F6;}
	.st110{fill:#252665;}
	.st111{fill:#B6C4EE;}
	.st112{fill:#202B60;}
	.st113{fill:#B7C6EE;}
	.st114{fill:#272E69;}
	.st115{fill:#B0C4E5;}
	.st116{fill:#232F69;}
	.st117{fill:#8F97D3;}
	.st118{fill:#7E83C8;}
	.st119{fill:#8A8BD1;}
	.st120{fill:#8C90D9;}
	.st121{fill:#7D87CB;}
	.st122{fill:#8B96D2;}
	.st123{fill:#8F95D4;}
	.st124{fill:#8F97D6;}
	.st125{fill:#CC2C1F;}
	.st126{fill:#402657;}
	.st127{fill:#A0522C;}
	.st128{fill:#D42824;}
	.st129{fill:#DDAE86;}
	.st130{fill:#BB714E;}
	.st131{fill:#2A176D;}
	.st132{fill:#212C5C;}
	.st133{fill:#351C55;}
	.st134{fill:#B5BBEF;}
	.st135{fill:#DA2622;}
	.st136{fill:#B6DBE5;}
	.st137{fill:#695DB3;}
	.st138{fill:#D92720;}
	.st139{fill:#02913F;}
	.st140{fill:#BAD9E7;}
	.st141{fill:#2A166E;}
	.st142{fill:#00933E;}
	.st143{fill:#EACBD4;}
	.st144{fill:#DB2621;}
	.st145{fill:#B9D9E9;}
	.st146{fill:#D52722;}
	.st147{fill:#B7DAE5;}
	.st148{fill:#FFE5B9;}
	.st149{fill:#EECBDA;}
	.st150{fill:#291770;}
	.st151{fill:#291870;}
	.st152{fill:#EDCBD4;}
	.st153{fill:#D82620;}
	.st154{fill:#D22621;}
	.st155{fill:#BAD8E5;}
	.st156{fill:#B9D8E6;}
	.st157{fill:#B7DBE5;}
	.st158{fill:#271771;}
	.st159{fill:#28176E;}
	.st160{fill:#D32A21;}
	.st161{fill:#00913F;}
	.st162{fill:#EBCCD6;}
	.st163{fill:#D72620;}
	.st164{fill:#EBCDD8;}
	.st165{fill:#28166E;}
	.st166{fill:#FFFACA;}
	.st167{fill:#D3291F;}
	.st168{fill:#D32821;}
	.st169{fill:#FFFBC7;}
	.st170{fill:#D5251F;}
	.st171{fill:#D92621;}
	.st172{fill:#F3C7C6;}
	.st173{fill:#1E3218;}
	.st174{fill:#01913F;}
	.st175{fill:#D92421;}
	.st176{fill:#2A1571;}
	.st177{fill:#D42721;}
	.st178{fill:#FFFBC6;}
	.st179{fill:#D62721;}
	.st180{fill:#FCFFC2;}
	.st181{fill:#D72622;}
	.st182{fill:#D22622;}
	.st183{fill:#E5DCDF;}
	.st184{fill:#776767;}
	.st185{fill:#2A176F;}
	.st186{fill:#D6261F;}
	.st187{fill:#9F663A;}
	.st188{fill:#D82820;}
	.st189{fill:#281771;}
	.st190{fill:#D8261F;}
	.st191{fill:#B2432E;}
	.st192{fill:#FFFAC9;}
	.st193{fill:#988D57;}
	.st194{fill:#1A211A;}
	.st195{fill:#01913E;}
	.st196{fill:#032911;}
	.st197{fill:#0B2D1A;}
	.st198{fill:#00933F;}
	.st199{fill:#E66B32;}
	.st200{fill:#019140;}
	.st201{fill:#312F7D;}
	.st202{fill:#21211F;}
	.st203{fill:#FFFFFF;}
	.st204{fill:#FFFFFE;}
	.st205{fill:#21201E;}
	.st206{fill:#23201D;}
	.st207{fill:#211E1D;}
	.st208{fill:#211D1B;}
	.st209{fill:#201C1B;}
	.st210{fill:#211D1E;}
	.st211{fill:#201C1C;}
	.st212{fill:#201E1F;}
	.st213{fill:#1E1D1B;}
	.st214{fill:#242424;}
	.st215{fill:#252321;}
	.st216{fill:#1E1A19;}
	.st217{fill:#231F1E;}
	.st218{fill:#1F1E1C;}
	.st219{fill:#F7F5F3;}
	.st220{fill:none;}
	.st221{enable-background:new    ;}
	.st222{fill:#E5B7ED;}
	.st223{font-family:'Iosevka';}
	.st224{font-size:180px;}
	.st225{fill:#BEB7EA;}
	.st226{font-size:100px;}
	.st227{fill:#F24EA4;}
	.st228{font-size:500px;}
	.st229{letter-spacing:100;}
	.st230{fill:#B29CF2;}
	.st231{fill:#E9D6ED;}
	.st232{font-size:120px;}
</style>
<g id="Layer_2_1_">
</g>
<g id="Layer_1_2_">
	<g id="Layer_1_1_">
		<g>
			
				<image style="overflow:visible;enable-background:new    ;" width="1762" height="1103" xlink:href="688EA22D.png"  transform="matrix(1.6349 0 0 1.6349 0 -1.6908)">
			</image>
		</g>
	</g>
	<g id="Layer_2_2_">
		<path class="st0" d="M2655,1389.9c3-0.5,6.2-0.5,9.2-0.1c3.2,1.5,3.6,5.4,4.6,8.4c1.3,2.5,4.5,2.8,7,2.2c0.6-0.4,1.2-0.9,1.8-1.3
			c1.9-3,5.3-6.4,9.2-5.4c1.5,0.1,2.9,0.6,4.3,1.1c2,1.2,3.3,3.2,4.3,5.2c-0.6,2.1-2.2,4.7-0.6,6.7c1.6,2.1,4.6,2,7,1.7
			c1.9-0.9,2.9-3,5-3.4c1.7-0.6,3.4,0.2,5,0.8c3.3,1.9,5.9,5.1,6.6,8.9c-1.3,2.2-2.3,5.8,0.1,7.6c1.8,1.9,4.1,3.4,6.5,4.4
			c3.2-0.2,5.9-3.3,9.2-2.4c3.6,3.4,7.8,6.6,9.4,11.6c-0.6,1.7-1.8,3-3,4.3c-1.8,3.3,0.8,6.9,3.5,8.7c2.7,1.3,5.9-0.5,8.6,0.8
			c2.1,2.2,3,5.3,4.8,7.8c1.4,1.9,0.5,4.6-0.9,6.1c-1.6,0.8-3,2-4.1,3.5c-0.2,3.1,0.9,6.1,2.4,8.7c2.2,1.6,5.2,1.5,7.8,2.4
			c0.9,0.7,1.8,1.6,1.7,2.8c0.3,3.5,1.3,7.4-0.7,10.6c-1.2,1.1-2.8,1.4-4.3,1.9c-1.8,1.1-1.7,3.4-1.9,5.2c-0.1,2.3-0.1,5.4,2.5,6.3
			c1.9,0.7,3.9,1.4,5.4,2.8c1,0.9,0.7,2.2,0.8,3.4c0.1,3-0.2,6.4-2.3,8.8c-2.3,0.8-4.9,0.7-7.2,1.6c-1.8,3.3-1.6,7.3-2.5,10.9
			c2.4,1.6,6.4,1.1,7.6,4.1c0.9,4.3-0.9,8.7-3.5,12c-2.7,0.5-5.5,0.4-8.2,0.4c-1.7,1.9-3.6,4.1-3.3,6.8c0.1,3.4,4.3,4.9,4.5,8.2
			c-0.5,3.7-3.3,6.5-6.1,8.8c-1.4,0.8-3.3,2.1-4.9,1.2c-1.4-0.8-3.1-2-4.7-0.8c-2.7,2.4-5.5,4.9-6.9,8.3c0.3,2.9,4,4.4,3.9,7.5
			c-2.8,3-5.8,6.1-9.6,7.9c-3,1-4.8-2.1-7.1-3.4c-3.5,0.4-6.3,2.9-8.6,5.3c-1.2,3.2,1.9,7.1-0.6,9.9c-2.7,1.9-5.9,3.8-9.2,3.5
			c-2.3-1.6-3.6-4.9-6.7-5.4c-2.2,0.3-4.4,0.6-6.5,1.4c-1,2.5-0.5,5.3-1.1,7.9c-0.2,1.3-1.6,1.8-2.6,2.4c-3.5,1.4-7.4,2.2-11.2,1.8
			c-1.3,0.1-1.5-1.3-1.9-2.2c-0.9-1.9-2.1-3.8-3.9-4.8c-2.8-0.4-5.6-0.4-8.3,0.1c-0.4,0.4-0.7,0.8-1.1,1.2c-0.6,2.2-1,4.6-2.4,6.5
			c-3.9,1.4-8.2,0.4-12.1-0.6c-0.8-2.1-1.1-4.4-1.6-6.6c-1.7-2.5-5.1-3-7.8-2.5c-0.4,0.4-0.8,0.9-1.2,1.3c-1,1.5-2,3.2-2.9,4.8
			c-3.2,0-6.3-0.8-9.3-1.9c-1.6-0.6-3.3-1.3-4.2-2.7c-0.1-2.3,0.4-4.7-0.1-6.9c-2.1-1.4-3.8-3.9-6.6-3.7c-1.2-0.1-2.1,0.8-3,1.3
			c-1,1.6-2.4,3.2-4.5,3c-4.9-0.3-9.6-3.1-12.5-7c-2.4-3.6,3.2-7.1,1.4-10.9c-1.2-2.2-3-3.9-4.9-5.5c-3.2-0.9-6.5-0.4-9.2,1.5
			c-3.2-0.4-5.5-2.8-7.5-5.1c-1.2-1.6-2.4-3.4-2.3-5.4c1.6-2.7,3.5-5.4,4.6-8.4c-0.4-2.4-2.1-4.4-3.9-5.9c-3.2-1.4-6.8,0.5-10.1-0.7
			c-2.3-2.5-4.4-5.7-4.4-9.2c0.6-3.7,5.6-4.2,6.8-7.4c-0.2-2.3,0-6.4-3.2-6.5c-3.1-0.6-7,0.2-9.4-2.3c-1.9-4.2-2.1-9.4,0.1-13.6
			c1.7-0.6,3.8-0.7,5.2-2c1.4-2.9,2-6.6,0.1-9.4c-1.2-2.3-4.2-2.1-6.3-3c-0.3-0.2-1-0.6-1.3-0.8c-1.2-4.1-0.6-8.7,1.6-12.4
			c1.7-0.7,3.7-0.8,5.4-1.5c1.1-0.8,2.4-1.9,2.3-3.4c0.1-2.5,0.4-5.1,0.8-7.6c-0.2-0.3-0.5-0.9-0.7-1.2c-1.8-1.6-3.9-3-5.2-5
			c0.2-3.8,1.2-7.9,3.7-10.8c2.7-1.2,5.6,0,8.3-0.1c2.1-1.9,2.5-4.9,3.8-7.3c-0.8-3.6-4.2-6.2-4.1-10c0.9-4.2,4.3-7.3,7.7-9.6
			c2.8-0.5,5.5,1,8.4,0.7c0.8-1.3,1.5-2.7,2.7-3.7c0.5-0.5,1.5-0.7,1.5-1.6c0.3-3-1.9-5.4-2.6-8.2c0-2.6,2.1-4.4,4-5.8
			c2.2-1.5,4.4-3.1,6.9-4c2.9,0.9,5.4,3.6,8.7,2.7c1.5-1,2.6-2.6,3.4-4.2c0.9-2,0-4.2,0-6.3c2.3-5.3,8.8-7.7,14.3-6.6
			c0.6,2.3,2.4,3.6,4.2,4.9c2.1-0.4,4.3-0.7,6.1-1.8c1.5-3-0.1-7.3,3-9.6c2.6-2.1,6.2-2.3,9.4-2.6c2.7,0.7,4,3.3,5.5,5.4
			c2.1,3.2,6.4,1.9,9.4,0.8C2651.1,1394.1,2651.7,1390.4,2655,1389.9z"/>
		<path class="st1" d="M2655.1,1394.3c2.9-0.8,6.1-1.3,8.9-0.1c0.7,2.4,0.9,5,2.5,7c2.6,3.9,8.4,3.9,11.9,1.2c2.2-1.4,3.2-4,5.3-5.5
			c2.8-0.1,5.7,0.6,7.9,2.2c1.5,1.9-0.7,4-0.6,6c0.1,2.6,2.6,3.9,4.3,5.5c2.1,1.4,4.8,2.3,7.3,1.8c1.9-1.1,3.1-3.1,5-4.2
			c4.3-1.8,9.7,3.2,7.8,7.5c-0.6,2.1-1.7,4.5-0.5,6.6c2.1,2.3,4.3,4.5,6.8,6.3c0.9,0.5,1.7,1.3,2.8,1.1c3.5-0.2,6.4-2.5,9.9-2.6
			c1.6,2.3,3.3,4.6,5,6.9c0.1,3.4-3.4,5.9-2.6,9.3c1,2.8,2.4,5.4,3.8,7.9c0.7,1.5,2.6,1.9,4.1,1.7c2.3-0.2,4.6-0.4,6.8,0.4
			c1.2,2.3,3,4.7,2.4,7.4c-1.8,1.9-4.6,3-5.3,5.7c0.1,3.5,1.6,6.8,2.5,10.2c0.3,1.7,1.8,2.8,3.4,3.3c2.2,0.6,4.4,0.8,6.7,1.2
			c0.8,2.8,1.3,5.8,0.2,8.6c-1.7,1.3-4.5,1.2-5.4,3.4c-1.4,2.9-0.9,6.2-0.9,9.3c-0.2,2.4,1.5,4.6,3.7,5.5c1.8,0.8,4.1,1.2,5.2,2.9
			c0,2.2,0.3,4.8-1,6.7c-2.4,1.3-5.4,0.5-7.9,1.5c-2.2,3.4-3.1,7.6-3.6,11.6c0,1.8-0.2,4.5,1.9,5.2c1.9,0.9,4.4,1.2,5.6,3.1
			c0.5,2.5-0.6,5.6-3.1,6.6c-2,0.8-4.2,0.1-6.2-0.2c-3.2,2.8-5.7,6.5-7.2,10.5c-0.6,1.5,0.7,2.7,1.6,3.7c1.4,1.6,3.5,2.8,4.1,5
			c0.3,3.7-3.5,7.4-7.2,6.3c-1.3-0.3-2.5-1-3.7-1.5c-3.6,0.7-6.2,3.5-8.5,6.2c-1.4,1.8-3,3.6-3.6,5.9c0.7,2.8,4.4,4.4,3.6,7.6
			c-1.6,2.5-4.3,3.8-6.7,5.3c-2-1.3-3.6-2.9-5.5-4.3c-4.6,0.3-7.7,4-11.7,5.7c-1.3,0.5-1.4,2-1.2,3.2c0.4,2.5,1.4,5,1.1,7.6
			c-2.1,1-4.3,1.9-6.6,2.5c-2.1-1.6-4-3.5-5.8-5.5c-4,0.3-8,1.2-11.3,3.6c-0.7,2.4,0.6,5.2-0.8,7.4c-2.9,2.3-6.8,2.3-10.3,2.3
			c-1.3-2.3-2.3-4.9-4.1-6.8c-4.2-1-8.6-0.8-12.7,0.5c-1.2,2.2-1.7,4.7-3.2,6.8c-1.9,1.2-4.5,0.7-6.6,1.4c-1-0.8-2.4-1.6-2.4-3.1
			c-0.5-2,0.1-4.7-1.6-6.2c-2.7-0.9-5.6-0.9-8.3-1.8c-4-0.2-4.1,5.3-7.6,6.3c-2.6-0.2-4.9-1.6-7.2-2.8c-1-2.6,0.3-5.9-1.9-8.1
			c-2.3-3-6-4.4-9.7-4.8c-2.6,1.1-3.8,4.4-6.9,4.4c-3.5,0.2-6.6-1.9-9.3-3.8c0.2-3,1.6-5.7,2-8.7c0.2-2.1-1.3-3.8-2.5-5.4
			c-1.4-1.7-2.6-3.7-4.7-4.5c-2.9-1.3-6,0.2-8.8,1.1c-1.1,0.6-2.2-0.2-3.1-0.7c-2-1.4-3.6-3.2-4.8-5.2c-0.4-3.9,4.2-5.6,5-9.2
			c-1.3-3.7-2.9-7.8-6.5-9.8c-2.7-0.5-5.5,0.5-8.2,0.6c-2.1-1.7-3.9-3.9-4.4-6.6c1-2.6,4.4-2.6,6.2-4.5c1.1-2.2,1.7-4.9,1-7.4
			c-0.8-2.4-2.3-4.4-3.6-6.5c-3.1-0.6-6.5,0.7-9.3-1c-2.6-2-1.5-5.6-1.8-8.4c1.9-1.3,4.2-1.5,6.3-2.3c0.9-0.3,1.6-1,1.7-2
			c0.7-4.1-0.6-8.1-1.5-12c-2.4-1.5-5-2.4-7.5-3.7c-1-2-0.4-4.3,0.4-6.3c1-3.9,6.7-0.9,8.4-4c1.8-4.2,2.6-8.9,2.3-13.5
			c-1.1-2.9-4.4-4-6.3-6.3c-0.4-2.4,0.9-4.7,2.4-6.4c2.3-0.8,4.7,0,7,0.4c3.8-2.9,6.2-7.5,6.3-12.2c-0.3-3-3.8-4.5-4.3-7.5
			c-0.2-3.1,2.5-5.2,4.6-7.1c2.5-1.4,5.3,0.4,7.7,1.2c4.2-1.9,8.2-5.2,9.2-9.8c0.1-2.8-2.5-5.1-2-8.1c0.1-0.9,1.1-1.3,1.7-1.9
			c1.7-1.2,3.5-2.9,5.7-2.4c2.3-0.1,3.8,2.6,6.2,1.8c3.5-0.8,6-3.9,7.6-7c1.2-2.1,1.2-4.6,1.3-7c0.9-2.7,4-4.2,6.7-4
			c3.5,0.3,3.7,5.2,7.1,5.7c2.4-0.3,4.6-1.3,6.7-2.4c1.5-0.9,3.2-1.7,4.1-3.3c0.4-2.2,0.5-4.4,1-6.6c1.8-2.1,4.8-1.8,7.3-1.7
			c1.2,1.8,2,3.8,3.5,5.4c0.9,1,2.4,0.9,3.6,1c2.1,0,4.3,0,6.4,0.1c1.3,0.2,2.3-0.8,3.1-1.7C2653,1398,2654,1396.1,2655.1,1394.3z"
			/>
		<path class="st2" d="M2643.3,1409.5h2.1c1.5,2.4,2.9,5.2,4.6,7.8c-0.1-2.8-0.3-5.6-0.4-7.8h1.7c0.9,3.6,0.6,8,0.9,12.3
			c-0.5,0.1-1.5,0.2-2,0.2c-1.7-2.5-3-5.3-4.5-7.9c-0.1,2.7,0.2,5.4,0.2,8.1c-0.5,0-1.5-0.1-1.9-0.2
			C2643.7,1417.7,2643.5,1413.4,2643.3,1409.5z"/>
		<path class="st3" d="M2658,1408.9c0.8,0.1,1.6,0.1,2.3,0.2c1,4.4,2.4,8.7,3.3,13.1c-0.7-0.1-1.5-0.1-2.2-0.2
			c-0.2-1-0.4-1.9-0.7-2.9c-1.4-0.1-2.8-0.2-4.2-0.3c-0.4,1-0.7,2-1.1,3c-0.5-0.1-1.6-0.2-2.1-0.2
			C2654.8,1417.3,2656.6,1413.2,2658,1408.9z"/>
		<path class="st4" d="M2635,1410.1c2.2-0.6,4.5,0.7,5.4,2.7c1.3,3.1,1.7,7.3-1.1,9.7c-2.6,1.8-6.4,0.4-7.3-2.7
			C2630.6,1416.6,2630.7,1411,2635,1410.1z"/>
		<path class="st5" d="M2668.3,1409.5c0,3.6-1,7.2-1.2,10.8c1.6,0.2,3.2,0.5,4.9,0.7v2.1c-2.4-0.2-4.9-0.6-7.3-0.9
			c0.4-4.3,1.2-8.5,1.6-12.7C2667.6,1409.5,2667.1,1409.5,2668.3,1409.5z"/>
		<path class="st5" d="M2625.6,1412.6c0.7-0.1,1.4-0.3,2.1-0.4c0.9,4.2,2.1,8.4,3,12.6c-0.7,0.1-1.3,0.3-2,0.4
			C2627.6,1421,2626.6,1416.8,2625.6,1412.6z"/>
		<path class="st6" d="M2633.6,1414.1c0.4-1.9,3.3-2.4,4.5-0.9c1.4,2.3,1.7,5.4,0,7.6c-1.1,0-2.4,0.5-3.2-0.5
			C2633.5,1418.6,2633.1,1416.1,2633.6,1414.1z"/>
		<path class="st7" d="M2659,1412.1c0.5,1.6,0.8,3.2,1.2,4.8c-0.9,0-1.8-0.1-2.7-0.1C2657.8,1415.2,2658.4,1413.6,2659,1412.1z"/>
		<path class="st8" d="M2680.1,1412.3c0.7,0.1,1.4,0.3,2.1,0.4c-1,4.2-2,8.4-3,12.6c-0.7-0.1-1.3-0.2-2-0.3
			C2677.9,1420.7,2679.2,1416.5,2680.1,1412.3z"/>
		<path class="st9" d="M2615.9,1416c2.6-0.8,5.1-1.9,7.8-2.5c0.1,0.7,0.1,1.4,0.2,2.1c-0.8,0.4-1.7,0.5-2.4,1.1
			c0.7,3.6,2.3,6.8,3.2,10.4l-0.8-0.3c-0.3,0.1-0.9,0.3-1.2,0.4l-0.1,0.1c-1.1-3.3-2.3-6.6-3.3-9.9c-1,0.3-2.1,0.6-3.1,0.9
			C2616.1,1417.5,2616,1416.8,2615.9,1416z"/>
		<path class="st10" d="M2530.5,1420.8c4.4-4.4,10.6-6.6,16.7-7.2c-2.1,6.8-5,13.6-10.4,18.5c-3.7,3.9-8.8,5.8-13.8,7.5
			c-1.6,3.5-3,7.1-4.1,10.7c5-2,11-2.9,15.9,0.1c-2,0.8-4.1,1.4-5.6,3c-2.8,2.7-5,6-8.4,7.9c-1.8,1-3.9,1.1-6,1.2
			c-1.3,4.2-2.4,8.5-3.2,12.9c1-0.6,2-1.3,3-1.9c0.6-0.3,1.2-0.6,1.8-0.9c0.8-0.3,1.6-0.5,2.4-0.7c-2.4,1.3-5.4,1.9-7.1,4.2
			c-1.1,2.7-1,5.6-1.8,8.4c0,0.1-0.1,0.3-0.1,0.5c-0.7,3.3-1.1,6.7-1.1,10.1c4-4.5,9.8-7.9,16-6.6c-1.2,1.1-2.6,2-3.5,3.3
			c-2.1,3.1-2.9,7-5,10.1c-1.8,2.9-5,4.6-8.4,4.9c-0.1,6.4,0.5,12.8,1.1,19.2c0.2-4.7,2-9.4,5.4-12.7c2.4-2.2,5.5-4.4,9-4.1
			c-3.7,3.5-3,8.9-4.1,13.4c-0.7,3.5-2.8,6.8-6.2,8.2c-2.2,0-3.1-2.7-3.6-4.4c0.1,5.9,1.8,11.6,3.2,17.3c2.6,7.6,4.9,15.5,9.2,22.4
			c0.8-6.4,4.6-12.6,10.7-15c-2.1,4.7-0.9,9.9-0.9,14.9c0.1,3.8-2,7.2-4.8,9.5c2.1,3.2,4,6.6,6.7,9.3c-0.5-6.9,3.2-14.2,9.6-17
			c-2.7,5.8,0.8,12-0.3,18c-0.4,2.6-2.1,4.6-3.8,6.5c3.8,4.1,7.5,8.3,11.8,11.9c4.8,5.1,10.5,9.3,16.1,13.4
			c5.5,3.2,10.4,7.3,16.1,10.3c7.9,4.2,15.8,8.5,24.2,11.7c3,0.9,6,2.1,8.9,3.3c5.7,2.2,11.5,4,17.5,5.3c2.9,0.6,5.6,1.8,8.6,2.1
			c1.4-6.3,5.6-11.5,9.6-16.4c3.5,3.3,7,6.6,9.2,10.9c2.3,4,3.2,9.2,1.1,13.5c-2,4.2-5.5,7.4-9.4,9.9c-0.7,0.5-1.5-0.2-2.1-0.5
			c-3.2-2.4-6.3-5.3-7.8-9.1c-0.8-1.8-0.8-3.8-1.2-5.7c-0.3-0.2-1-0.5-1.3-0.6c-0.7,2.1-1.8,4.2-4,5.1c-4.6,2.1-9.9,1.7-14.5,3.8
			c-1.4,0.6-2.6,1.4-3.9,2.2c1.2-6.2,6.6-10.6,11.9-13.6c-4.7-1.5-9.4-2.8-14-4.5c-1.3,2-3,3.9-5.4,4.6c-6.1,1.8-12.8-1.5-18.6,1.5
			c0.2-1.8,1.9-2.9,3-4.1c2.8-2.9,6.4-4.5,10.1-5.9c-3.5-2-7.3-3.4-10.9-5.1c-1.9,1.7-4.1,3.3-6.8,3.3c-5.8,0.2-11.6-2.7-17.3-0.8
			c2.9-4.6,8.2-6.7,13.1-8.4c-3.2-1.7-6.2-3.7-9.3-5.5c-1.8,1.6-4.1,3-6.7,2.8c-6.5-0.4-11.7-5.7-18.4-5c4-3.5,9.4-4.7,14.6-4.9
			c-3.2-2.7-6.4-5.4-9.8-7.9c-2.2,1.2-4.7,1.9-7.2,1.2c-5.7-1.6-10.3-6.4-16.6-6.4c3.8-3.3,9.3-3.7,14.2-3.7
			c-3.1-3.9-6.6-7.5-9.9-11.3c0.4,1.6,0.6,3.2,0.7,4.8c-2,0.5-4.2,0.9-6.3,0.1c-5.6-2.1-8.5-8.1-14.1-10.2c-0.6-0.3-1.4-0.4-1.8-1
			c5.2-1.8,11.1-1.4,16,1.1c0.6,1,1.2,0.2,1.6-0.3c-3.6-4.9-6.8-10.1-9.8-15.4c-2-4.7-4.4-9.2-6.1-14c-1.9-0.2-3.9-0.3-5.6-1.3
			c-5.3-3.1-7.1-9.8-12.4-12.8c-0.5-0.4-1.4-0.5-1-1.3c5.3-0.6,10.4,1.1,14.9,3.6c-0.7-3.6-1.7-7.2-2.3-10.8
			c-1.9-0.3-3.9-0.3-5.5-1.5c-5.7-3.9-6.8-12.1-13.2-15.3v-0.3c6.4-0.6,12.5,2.4,16.9,6.8c-0.3-7.5-0.7-15-0.4-22.5
			c1.2-9.9,2-20,4.8-29.7c0.7-3.6,2.2-7,2.5-10.6c0.1-2.9,2.2-5.1,3-7.8c1.7-5.1,4.1-9.9,5.5-15.1
			C2523.2,1430.6,2526.1,1425,2530.5,1420.8z"/>
		<path class="st11" d="M2685,1414.1c0.7,0.1,1.4,0.3,2,0.4c0.4,3.2,0.8,6.4,1.4,9.6c0.8-2.7,1.8-5.4,2.6-8c0.6,0.2,1.3,0.4,1.9,0.6
			c-1.4,4.1-2.8,8.2-4.1,12.3c-0.7-0.3-1.4-0.6-2.1-0.9c-0.4-3-0.6-6-1.2-9c-0.9,2.5-1.8,5-2.5,7.5c-0.7-0.2-1.3-0.3-2-0.5
			C2682.3,1422.1,2683.8,1418.2,2685,1414.1z"/>
		<path class="st12" d="M2760.6,1413.7c5.1,0.4,10.1,2.2,14.2,5.3c6,4.6,9.5,11.6,11.3,18.8c3.4,5.8,5,12.5,7.6,18.7
			c1.8,6.2,3.3,12.5,5.1,18.7c0.1,0.8,0.1,1.5,0.2,2.3c0-2.3-0.4-4.6,0.2-6.8c1.2-5.1,4.4-9.6,8.4-13c0.3,0.3,0.3,0.2,0.6,0.5
			c-2.9,6.3,0.8,13.4-1.7,19.9c-0.6,1.7-1.9,2.9-3.2,4.2c-1.9-0.8-3.4-2.3-4.1-4.3c1.1,6.9,1.9,13.9,2.7,20.9
			c0.3,7.6,0.1,15.2-0.6,22.8c4.5-4.1,10.4-7.4,16.7-6.4v0.1c-6.5,3-7.4,11.5-13.2,15.3c-1.5,0.9-3.3,1.2-5.1,1.5
			c-0.6,3.6-1.6,7.1-2.4,10.7c4.4-2.5,9.4-3.9,14.4-3.6c0.1,0.5,0.1,0.4,0.2,0.9c-6,2.7-7.8,10-13.3,13.3c-1.6,1-3.5,1-5.3,1.5
			c-2.1,5-4.5,9.8-6.7,14.7c4.9-5.3,12.9-6.9,19.7-5.1c-1.8,1-3.7,1.8-5.2,3.2c-3.2,2.9-5.7,6.6-9.5,8.7c-1.9,1.1-4.2,1-6.3,0.9
			c-0.6-1.7-0.5-3.6,0-5.3c-2.9,4.4-5.7,8.8-8.6,13.2c5.5-3,12.3-4.3,18.3-1.9c-3.3,1.1-6.2,3-8.5,5.5c-3.3,3.4-7.7,7.1-12.8,5.8
			c-0.4-0.6-0.7-1.1-1-1.7c0.2-1.2,0.5-2.3,0.8-3.5c-3.4,3.8-6.8,7.6-10.2,11.4c4.9-0.1,10.5,0.3,14.4,3.6
			c-6.5-0.1-11.2,5.3-17.4,6.5c-2.3,0.6-4.5-0.3-6.5-1.4c-3.3,2.6-6.7,5.1-9.8,8c5.2,0.1,10.4,1.5,14.6,4.5c-1.9,0.6-3.9,0.3-5.7,1
			c-3.2,1.2-6.3,2.8-9.6,3.8c-2.9,1-6,0.5-8.5-1.1c-0.1-0.4-0.4-1.3-0.5-1.8c-3.4,2.1-6.8,4-10.2,6.2c5.1,1.3,10.3,3.7,13.2,8.2
			c-2.8-0.7-5.7-1-8.5-0.3c-4.2,0.6-9,2.3-12.9-0.2c2.4-0.6,4.8,0,7.3-0.2c3.6-0.3,7.1-1,10.7-1.4c-3.3-2.8-7.5-5-11.9-4.4
			c-2.6,0.6-4.8,2.2-7.2,3.4c0.5,0.8,1.3,1.6,1.1,2.7c-0.9-0.6-1.8-1.3-2.7-1.9c-3.8,1.2-7.2,3.3-11,4.6c0,0.3,0,0.2,0,0.6
			c5.5,1.2,10.2,4.9,13.5,9.4c-0.5,0-0.9-0.1-1.4-0.2c-5.6-2.1-11.7,0.6-17.3-1c-2.3-0.7-4.7-2.3-5-4.8c-4.6,1.6-9.5,2.7-14,4.7
			c5.2,2.9,9.9,7.3,11.5,13.2c-4-2.5-8.6-3.6-13.2-4.3c-3.7-0.5-8.3-1.9-9-6.2c-1.2,0.1-2.5,0.3-3.7,0.5c-0.2-1.3-0.1-0.7-0.4-2.1
			c2.7-0.6,5.4-1.1,8-1.9c0-0.3,0-0.2,0-0.4c-1.4-0.5-2.8-0.6-4.2-0.9c0.1-2.8,0.4-5.7,2.2-8c3.3-4.7,10.4-6.2,12-12.2
			c2,3.5,1.3,8,0,11.6c-1.4,4.1-4.6,7.5-8.6,9.3c5.9-0.7,11.5-2.9,17.1-4.7c-0.3-2.8-0.5-5.8,0.9-8.4c2.6-5.3,9.3-7.8,10-14.1
			c1.9,2.1,2.2,5.1,2.2,7.8c0.1,3.8-1.5,7.4-3.3,10.6c1.7-0.5,3.4-1.1,5-1.8c4-1.8,7.9-3.5,11.7-5.7c6.2-3.1,12.4-6.4,17.9-10.5
			c-1.1,0.3-2.2,0.5-3.3,0.8c-0.9-2.1-1.9-4.3-1.7-6.7c0.1-4.5,3-8.2,4.6-12.2c0.8-1.9,0.6-4.1,0.8-6.1c6.4,6.1,7.3,18.1,0.1,23.9
			c7.9-4.9,15.3-10.5,21.8-17.1c4.2-3.7,8.3-7.6,11.6-12c-1.4-1.6-2.8-3.3-3.3-5.4c-1.3-4.4,0.3-8.8,0.5-13.2c0.2-2-0.7-3.9-1.2-5.8
			c6.6,2.8,10.2,10.2,9.7,17.1c2.7-2.7,4.6-6.1,6.7-9.3c-1.8-1.6-3.5-3.4-4.2-5.8c-1.6-4.9,0.3-10-0.5-15c-0.4-1.3-0.9-2.5-1.3-3.7
			c4.3,1.6,7.7,5.2,9.4,9.4c0.8,1.9,1,4.1,1.7,6.1c2.9-5.5,5.5-11.2,7.2-17.2c3.1-7.5,4.8-15.5,5.6-23.5c1.3-6.3,1.5-12.7,1.4-19.1
			c-3-0.1-6.1-1.4-8-3.8c-2.7-3.3-3.5-7.6-5.8-11.2c-1-1.4-2.4-2.2-3.6-3.4c6.8-1.2,13.5,2.7,17,8.3c-0.6-4-0.5-8.1-1.5-12.1
			c-2.4-0.3-5,0-7.1-1.5c2,0.7,4.2,1,6.3,1.2c0-2.7-0.4-5.5-0.8-8.2c-0.7-4.7-2.1-9.3-3.4-13.8c-2.3,0.2-4.6,0.1-6.6-1.1
			c-5.1-2.5-7.2-9-13-10.3c-1.1-0.2-0.4-1.2,0.4-1.2c5-2.3,10.6-1.1,15.4,1.2c-1.1-3.8-2.9-7.5-4.3-11.2c-7-1.5-13.4-5.4-17.8-11.1
			C2764.1,1424.1,2761.5,1419,2760.6,1413.7z"/>
		<path class="st13" d="M2535.7,1418.1c2.9-1.5,6.1-2.9,9.4-2.8c-2.3,7.9-6.9,15.3-14.1,19.5c-2.8,1.6-5.8,3.1-9.1,3.3
			C2524,1430.3,2528.3,1422.3,2535.7,1418.1z"/>
		<path class="st13" d="M2762.1,1415.2c6.2,0.5,12.1,3.8,16,8.6c3.6,4.1,5.5,9.4,7.1,14.6c-1-0.3-2.2-0.3-2.9-1.2
			c-1.3-0.2-2.7-0.3-3.8-1.2c-6.7-2.8-11.5-8.6-14.5-15.1C2763.1,1419.2,2762.5,1417.2,2762.1,1415.2z"/>
		<path class="st14" d="M2609.5,1419c0.6-0.3,1.3-0.6,2-0.9c2.9,2.9,5.5,6,8.3,9c0.9,0.7-0.2,1.6-0.9,1.8c-1-0.4-1.7-1.5-2.4-2.2
			c-1.2,0.6-2.4,1.2-3.7,1.7c0.1,1.1,0.2,2.1,0.3,3.2c-0.7,0.2-1.4,0.5-2,0.7C2610.6,1427.9,2610,1423.4,2609.5,1419z"/>
		<path class="st15" d="M2695.2,1423.5c-0.1-2.1,1.8-3.5,3.6-4c1.3,0.6,2.7,1.1,3.5,2.4c0.9,1.2,0.5,2.8-0.1,4.1
			c-0.4-0.2-1.3-0.7-1.7-1c0.6-1.7-1.1-3.8-2.9-2.8c-0.6,2.4,2.4,3.6,2.7,5.8c0.4,2.1-1.1,4.1-3,4.8c-1.9,0.3-3.8-0.8-4.8-2.3
			c-0.8-1.4-0.3-3,0-4.4c0.7,0.2,1.4,0.4,2.1,0.7c-0.1,0.5-0.4,1.4-0.5,1.9c0.5,1.5,2.9,2.8,3.8,1
			C2698.4,1427.2,2694.9,1426,2695.2,1423.5z"/>
		<path class="st1" d="M2611.8,1421.6c1.1,1.1,2.2,2.2,3.2,3.4c-0.9,0.4-1.7,0.7-2.6,1C2612.2,1424.6,2612,1423.1,2611.8,1421.6z"/>
		<path class="st16" d="M2602,1423.1c0.6-0.2,1.1-0.4,1.7-0.7c2,3.7,4.3,7.3,6.4,11.1c-0.6,0.4-1.2,0.7-1.8,1
			c-2.6-1.5-5-3.3-7.6-4.7c1.1,2.2,2.6,4.3,3.7,6.5c0.3,0.8-0.9,1-1.3,1.5c-2.1-3.8-4.5-7.4-6.5-11.2c0.6-0.3,1.1-0.7,1.7-1
			c2.6,1.6,5.1,3.3,7.7,4.9C2604.8,1427.9,2602.9,1425.7,2602,1423.1z"/>
		<path class="st17" d="M2705.3,1425.1c0.2-0.4,0.7-1.1,0.9-1.4c2.2,1.6,4.4,3.2,6.6,4.9c-0.3,0.6-0.7,1.2-1,1.8
			c-0.9-0.6-1.8-1.2-2.7-1.8c-2,2.9-4,5.9-6.2,8.6c-0.4-0.3-1.2-0.9-1.6-1.2c2-3,4.1-5.8,6.1-8.8
			C2706.8,1426.6,2705.2,1426.3,2705.3,1425.1z"/>
		<path class="st18" d="M2622.7,1427.1c0.3-0.1,0.9-0.3,1.2-0.4l-0.1,0.5C2623.5,1427.2,2623,1427.2,2622.7,1427.1z"/>
		<path class="st19" d="M2654.8,1427.5c1.6-1.1,3.5-0.4,5.2,0c-0.4,0.1-1.1,0.3-1.5,0.3c-1-0.1-2.1-0.2-3.1-0.3H2654.8z"/>
		<path class="st20" d="M2622.7,1434.7c9.8-4.1,31.3-7.1,31.3-7.1s0,50.1,0,77.5c-25.4,0.1-50.9,0-76.3,0.1c0.3-7,1.2-13.9,2.8-20.7
			c0.3,0,0.9,0,1.2,0c0.2,0.2,0.6,0.8,0.8,1.1c-1.2,5.4-1.8,11-2.1,16.6c5.4,0,10.8,0.1,16.2,0c-0.1-3.6,0-7.1,0-10.7
			c0.5,0,1.8,0,2.3,0c-1.1-4.9-3.8-9.6-2.6-14.7c0.8-4.2,3.6-7.9,7.6-9.6c4.1-1.7,9.3-1.5,12.8,1.6c3.7,3,4.9,8.1,4.5,12.7
			c-0.7,3.4-1.8,6.7-2.8,10.1c0.5,0,1.4,0.1,1.7,0.1v14.8c1.4,0,0.8,0,2.1,0.1c0.3-5.1,0.3-10,0.3-15.1c1.4,0,2.8,0,4.2,0
			c1.6-13.7,3.1-27.2,4.7-40.9c6.5,0.2,4,0.2,10.5,0.4c0.5,13.5,0.9,27.1,1.4,40.5c1,0,3,0,3,0v10h4.8v-70.9
			c-9.4,0.6-18.6,2.6-27.3,6C2623.3,1436,2622.9,1435.1,2622.7,1434.7z"/>
		<path class="st21" d="M2654.4,1427l0.6,0.1c0,19.9,0,39.9,0,59.8c-0.1,5.5,0.2,10.9-0.1,16.4c-0.7-3.7-0.1-7.5-0.3-11.3
			c0-20.5-0.1-41,0-61.6C2654.5,1429.3,2654.5,1428.2,2654.4,1427z"/>
		<path class="st22" d="M2655.4,1427.3c1,0.1,2,0.2,3.1,0.3c16.4,1.6,32.9,7.1,45.8,17.6c10.6,8.5,18.5,20.2,22.8,33.1
			c2.9,8.1,4.2,16.7,4.7,25.2c-25.5,0-50.9,0-76.4,0c0.3-5.5,0.1-10.9,0.1-16.4C2655.4,1467.2,2655.3,1447.2,2655.4,1427.3z"/>
		<path class="st23" d="M2706.6,1439.7c2.5-3.5,4.8-7.1,7.6-10.4c0.5,0.4,1,0.9,1.5,1.3c-2.5,3.5-4.9,7-7.4,10.5
			C2707.6,1440.7,2707,1440.3,2706.6,1439.7z"/>
		<path class="st24" d="M2624.6,1438.5c8.4-3.3,17.4-5.2,26.4-5.8c0,22.8,0,72.7,0,72.7c-3,0.1-1.6,0-4.6,0.1
			c-0.2-4.7,0.1-9.2-0.1-14c-1,0-2.3,0-3.3,0c-0.5-13.5-0.9-27.1-1.4-40.5c-6.5-0.2-4-0.1-10.5-0.4c-1.6,13.7-3.1,27.2-4.7,40.9
			c-1.4,0-1.7,0-3,0c0,4.2,0,8.3-0.2,12.4c-1.5,0-0.8,0-2.3,0c-0.1-4.1,0-8.1,0-12.3c-0.5,0-1.4-0.1-1.7-0.1c1-3.3,2.1-6.7,2.8-10.1
			c0.5-4.6-0.8-9.7-4.5-12.7c-3.5-3-8.6-3.3-12.8-1.6c-3.9,1.6-6.8,5.4-7.6,9.6c-1.2,5.1,1.6,9.9,2.6,14.7h-1.9c0,3.2-0.1,6.4,0,9.6
			c-5.2,0.1-10.5,0.1-15.7,0c0.3-5,0.9-10,2-14.9c3.2-14.1,10.6-27.5,21.8-36.8C2611.6,1444.9,2617.9,1441.2,2624.6,1438.5z"/>
		<path class="st25" d="M2666.2,1430.6c2.4,0,5-0.2,7,1.4C2671,1433.8,2667.4,1433.5,2666.2,1430.6z"/>
		<path class="st26" d="M2589.8,1431.9c3,3.1,5.5,6.5,8.4,9.7c-0.5,0.6-1.1,1.1-1.7,1.5c-2.7-3.3-5.4-6.5-8.2-9.6
			C2588.9,1432.9,2589.4,1432.4,2589.8,1431.9z"/>
		<path class="st27" d="M2716.3,1433.9c0.4-0.3,1.1-1,1.5-1.3c2.1,1.9,4.1,3.7,6.1,5.6c-0.5,0.5-1,1-1.6,1.5
			c-0.7-0.7-1.5-1.3-2.2-1.9c-2.4,2.5-4.5,5.2-6.9,7.7c-0.7-0.3-1.2-0.6-1.8-1.1c2.2-2.6,4.7-5.1,6.7-7.8
			C2718,1435.4,2716.9,1434.8,2716.3,1433.9z"/>
		<path class="st28" d="M2594.8,1454.9c7.4-9,17.2-15.9,27.9-20.4c0.2,0.4,0.6,1.3,0.8,1.7c-6.9,2.8-13.4,6.6-19.1,11.4
			c-11.5,9.6-19.2,23.3-22.5,37.9c-0.2-0.2-0.6-0.7-0.8-1c-0.3,0-0.9,0-1.2,0C2582.7,1473.7,2587.6,1463.4,2594.8,1454.9z"/>
		<path class="st29" d="M2678.6,1434.1c2.2,0.1,4,1.5,6,2.3c3.5,1.7,7.2,3.3,9.8,6.3c-3.9-0.6-7.6-2.5-10.1-5.5
			C2682,1437.1,2679.6,1436.4,2678.6,1434.1z"/>
		<path class="st30" d="M2503.4,1435.3c2.3,0.6,3.6,2.8,5.1,4.5c3.1,4.1,5.4,9.6,4,14.8c-0.5,2.2-2.1,3.8-3.7,5.3
			c-1.6-1.3-3.1-2.8-3.7-4.7C2502.9,1448.8,2506.4,1441.6,2503.4,1435.3z"/>
		<path class="st31" d="M2801.5,1436.4c0.5-0.6,1.3-0.8,2.1-1.1c-2.6,5.6-0.2,11.8-1.1,17.7c-0.4,2.7-1.8,5.7-4.6,6.6
			c-1.3-1.5-3.1-2.8-3.3-5c-1-3.5-0.2-7.1,1.3-10.4C2797.3,1441.4,2799.2,1438.7,2801.5,1436.4z"/>
		<path class="st32" d="M2633.7,1441.4c2.9-3.4,7.6-4,11.8-4.4c-0.2,3.6-1,7.3-3.6,10c-2.6,2.8-6.5,3.6-10.2,3.6
			C2631.4,1447.4,2631.5,1443.9,2633.7,1441.4z"/>
		<path class="st4" d="M2582.1,1439.7c0.5-0.5,1-1.1,1.6-1.6c4,1.8,8,3.8,12,5.6c-0.5,0.6-1,1.1-1.5,1.7c-0.9-0.4-1.9-0.9-2.8-1.3
			c-0.9,1-1.8,2.1-2.7,3.1c0.5,0.8,0.9,1.7,1.4,2.6c-0.5,0.6-0.9,1.1-1.4,1.7C2586.5,1447.7,2584.4,1443.6,2582.1,1439.7z"/>
		<path class="st13" d="M2505.9,1439c0.8,0.5,1.6,1,2.1,1.9c2.2,3.2,3.9,6.9,3.8,10.9c0,2.5-1,5.3-3.3,6.6c-2-2.1-3.2-4.9-3.1-7.9
			C2505.6,1446.7,2505.7,1442.8,2505.9,1439z"/>
		<path class="st33" d="M2675.3,1439.2c2.2,0.3,4.3,1.4,5.6,3.3C2678.9,1441.7,2676.8,1440.8,2675.3,1439.2z"/>
		<path class="st34" d="M2799.3,1440.5c0.4-0.7,1.2-1.1,1.9-1.5c0,4.1,0.4,8.1,0.4,12.2c0,2.7-1.2,5.2-3,7.2
			c-2.2-1.4-3.4-4.1-3.4-6.6C2795.1,1447.7,2797.1,1443.9,2799.3,1440.5z"/>
		<path class="st35" d="M2634.5,1447.5c-0.2-4.2,3.8-6.8,7.6-7.2C2641.3,1444.1,2638.3,1447,2634.5,1447.5z"/>
		<path class="st36" d="M2718.1,1447.3c2-2.8,4.7-5,7.1-7.4c0.3,0.3,0.9,1,1.2,1.3c-1.6,2.9-4.9,4.5-6.5,7.4
			c-0.4,1.5,1.2,3.1,2.7,2.3c2.6-1.9,4.6-4.5,7-6.6c0.4,0.7,1.7,1.7,0.6,2.4c-2.3,2.2-4.3,4.6-6.9,6.4
			C2720.1,1454.9,2716,1450.3,2718.1,1447.3z"/>
		<path class="st1" d="M2585.2,1441.1c1.5,0.7,2.9,1.4,4.3,2.1c-0.6,0.6-1.3,1.3-1.9,1.9C2586.7,1443.8,2585.9,1442.4,2585.2,1441.1
			z"/>
		<path class="st37" d="M2659.4,1441.2c0.6-0.5,1.8,0.3,1.4,1.1C2660.2,1442.7,2659,1441.9,2659.4,1441.2z"/>
		<path class="st38" d="M2686.3,1443.1c7.9,3,15.7,6,23.6,8.9c0,0.4-0.1,1.2-0.1,1.6c-8.2-3-16.6-5.6-24.6-9.2
			C2685.5,1444.1,2686,1443.4,2686.3,1443.1z"/>
		<path class="st39" d="M2669.8,1444.2c0.6-0.9,1.9-0.6,2.9-0.8c0.1,0.2,0.2,0.7,0.2,0.9c0.2,1.7,0.2,3.3-0.9,5v0.4
			c0-0.1-1.1-0.1-2.1-0.2h0.2c0.8-0.1,1.7-0.2,2.9-0.3v-4.8C2671.6,1444.3,2670.7,1444.2,2669.8,1444.2z"/>
		<path class="st40" d="M2577.7,1444.1c2.2,1.3,4,3.1,5.9,4.7l0.1,0.1c1.2,0.9,2.4,1.8,3.4,2.8c1,0.6,0.1,1.9-0.8,2
			c-1.5-1-2.8-2.2-4.2-3.2c-0.8,1.1-1.7,2.2-2.5,3.2c1.4,1.2,2.8,2.3,4.3,3.5c-0.4,0.5-0.7,1.1-1.3,1.5c-3.5-2.4-6.5-5.3-9.8-8
			c0.3-0.4,0.9-1.2,1.1-1.7c1.4,1,2.7,2,4,3.2c0.9-1,1.8-2.1,2.7-3.2c-1.2-1.1-2.4-2.1-3.7-3
			C2577.1,1445.4,2577.4,1444.7,2577.7,1444.1z"/>
		<path class="st33" d="M2659.2,1444.1c1-0.3,1.4,0.1,1,1.1C2659.2,1445.5,2658.9,1445.1,2659.2,1444.1z"/>
		<path class="st41" d="M2670.2,1444.2c0.9,0.1,1.9,0.1,2.8,0.1c0,1.6,0,3.2,0,4.8c-0.8,0.1-1.7,0.2-2.5,0.3
			C2670.4,1447.7,2670.4,1445.9,2670.2,1444.2z"/>
		<path class="st42" d="M2673.2,1444.4l0.8-0.1c0,1.7,0,3.5,0,5.2h-0.7C2673.3,1447.7,2673.4,1446,2673.2,1444.4z"/>
		<path class="st43" d="M2583.6,1448.8l0.1,0.1C2583.7,1448.9,2583.6,1448.8,2583.6,1448.8z"/>
		<path class="st44" d="M2686.6,1448.7c1.9,0.2,3.5,1.2,5.3,1.9c7.1,2.6,14.4,4.4,21.4,7.3c1.9,0.5,2.8,2.4,3.8,3.9
			c-0.7,0.4-1.5,0.7-2.3,0.3c-3.7-1.2-7.2-3-10.9-4.1c-0.7-0.3-1.5-0.2-2.2,0.1c0.6,0.9,1,2.1,2.1,2.5c2,0.7,4.2,0.6,6.1,1.6
			c3.9,2,8.5,2.9,11.6,6.2c-1.5,0.5-3.1,1.4-4.6,0.5c-9.3-3.9-18.9-7.3-27.3-12.9c-1.6-1.1-3.2-2.1-4.3-3.6c5.6,0.9,9.9,6,15.7,5.7
			c0-0.2,0.1-0.6,0.1-0.9c-3.8-2.1-7.8-4.1-11.6-6.1C2688.5,1450.3,2687.1,1450,2686.6,1448.7z"/>
		<path class="st45" d="M2523.1,1449.5c2.7-0.2,5.6-0.7,8.2,0.4c-2.7,0-5.4-0.2-8,0.3L2523.1,1449.5z"/>
		<path class="st46" d="M2731.5,1450.3c0.6-0.4,1.2-0.7,1.8-1.1c1.7,2.2,3,4.7,4.5,7c-0.6,0.4-1.2,0.8-1.8,1
			c-0.6-0.7-1.1-1.6-1.6-2.3c-3.1,1.7-5.9,4-9,5.7c-0.3-0.6-0.6-1.3-0.9-1.9c2.9-2,5.8-3.8,8.7-5.8
			C2732.6,1452.1,2732,1451.2,2731.5,1450.3z"/>
		<path class="st47" d="M2523.2,1450.2c2.7-0.5,5.4-0.4,8-0.3c-3,2.6-5.6,5.5-8.3,8.3c-2,2-4.7,3.2-7.6,3c0.6-3.1,1.7-6.1,2.9-8.9
			C2519.9,1451.4,2521.5,1450.5,2523.2,1450.2z"/>
		<path class="st48" d="M2657,1451.8c-0.1-1.7,1.9-2.2,3.2-2.3c0,2-0.5,4.1,0.3,6.1c1.8,1.1,2.9-1.4,4.4-2.1
			c1.2,0.1,1.9,1.2,2.4,2.2c-0.9,0.1-1.7,0.1-2.6,0.2c0,3.6,0.3,7.2,0.3,10.8c-0.8,4.4-2.4,8.7-3,13.2c-0.3,2.1-0.4,4.4-1.4,6.4
			c-1,0.8-2.1,1.3-3.1,2C2657.3,1476.1,2657.1,1464,2657,1451.8z"/>
		<path class="st49" d="M2675.8,1449.9c2.4,1,4.6,2.3,6.8,3.7c-2.4,0.6-4.6-0.4-6.7-1.4C2675.8,1451.4,2675.8,1450.6,2675.8,1449.9z
			"/>
		<path class="st34" d="M2776,1450.1c4.7-1.2,10.1-0.1,13.7,3.1c1.3,2.4,2.1,5.2,2.5,7.9c-2.4,0-4.9-0.2-6.7-1.8
			C2782,1456.6,2779.5,1452.9,2776,1450.1z"/>
		<path class="st50" d="M2667.9,1450.7c2.2-0.2,4.4-0.2,6.7-0.2c0,1.7,0.1,3.4,0,5c-2.1,0-4.1,0-6.2,0c0-1.3-0.1-2.7,0-4
			c1.7,0.1,3.4,0.1,5.2,0.1c0.1,1,0.3,2,0.4,3.1c0.1-1.2,0.2-2.5,0.3-3.7C2672.1,1450.9,2670,1450.8,2667.9,1450.7z"/>
		<path class="st51" d="M2667.9,1451c2.1,0.2,4.2,0.2,6.3,0.3c-0.1,1.2-0.2,2.5-0.3,3.7c-0.1-1-0.3-2-0.4-3.1c-1.7,0-3.4,0-5.2-0.1
			L2667.9,1451z"/>
		<path class="st52" d="M2638.7,1455.1c0.3,11.8,0.8,23.6,1.2,35.4h-10.3c1.5-11.8,2.7-23.8,4.1-35.6
			C2636.8,1455,2635.6,1455,2638.7,1455.1z"/>
		<path class="st53" d="M2570.3,1455.3c2.1-1,4.2,0.6,4.9,2.6c2.5-0.8,5.5,1.1,5.3,3.9c-0.8,2.2-2.3,4.1-3.4,6.1
			c-3.6-2.4-7.1-4.7-10.7-7.1C2567.6,1459,2568.6,1456.8,2570.3,1455.3z"/>
		<path class="st54" d="M2668,1456.2c2.1,0.1,4.3-0.1,6.3,0.4c-2.1-0.1-4.2,0-6.3,0V1456.2z"/>
		<path class="st55" d="M2665.6,1457.3c0.9-0.6,2-0.6,3.1-0.6c2.1,0,4.2-0.1,6.3,0c0.7,0.1,1.5,0.2,2.2,0.3c0,2.5,0.6,5-0.2,7.4
			v-0.5c-0.2-2.2-0.2-4.4-0.2-6.5C2673.1,1457.5,2669.3,1457.5,2665.6,1457.3z"/>
		<path class="st12" d="M2498.7,1458.2c0.2-0.1,0.6-0.3,0.8-0.4c4.8,4.2,8.7,10.1,8.8,16.7c0.4,3.2-1.9,5.9-3.9,8.1
			c-2.7-1.5-4.3-4.4-4.6-7.4C2498.8,1469.5,2501.4,1463.5,2498.7,1458.2z"/>
		<path class="st56" d="M2569.3,1460.1c0.8-1.1,1.6-2.2,2.6-3.2c0.6,0.6,1.2,1.1,1.8,1.7c-0.6,1.1-1.3,2.2-2.1,3.3
			C2570.8,1461.3,2570,1460.7,2569.3,1460.1z"/>
		<path class="st57" d="M2665.4,1457.3c3.7,0.2,7.5,0.2,11.2,0.1c0,2.2,0,4.4,0.2,6.5c-3.6-0.1-7.2-0.2-10.8-0.2v-0.7
			c3.7,0.1,7.6,0.4,11.3,0.1c-0.1-3.3-0.1-1.8-0.2-5.1c-3.7-0.1-7.5,0.2-11.1-0.2L2665.4,1457.3z"/>
		<path class="st50" d="M2666,1457.9c3.5,0.4,7.2,0.2,10.7,0.2c0.1,3.3,0.1,1.8,0.2,5.2c-3.6,0.2-7.3-0.2-10.8-0.2
			C2666,1461.3,2665.9,1459.6,2666,1457.9z"/>
		<path class="st58" d="M2678.9,1457.7c7.1,3.1,13.8,7.1,20.7,10.7c4.6,2.6,9.4,4.8,14,7.3c2.2,1,4.6,1.4,6.3,3.2
			c1.9,1.7,4.3,2.6,6.6,3.4c-0.5,0.4-1,0.8-1.6,0.4c-15.5-5.6-29.4-14.7-43.7-22.7C2680.3,1459.5,2678.9,1459,2678.9,1457.7z"/>
		<path class="st59" d="M2686.9,1458.6c1.2-1.6,3.1-0.2,4.4,0.6c9.4,7.4,21.6,9.5,32,15c1.6,0.7,1.8,2.6,2.1,4
			c-11.9-4.6-23-11.1-34.4-16.9C2689.6,1460.6,2687.8,1460.1,2686.9,1458.6z"/>
		<path class="st60" d="M2731.9,1462.3c2.5-1.2,4.9-2.9,7.6-3.6c1,2.3,2.3,4.6,3.3,7c-0.6,0.2-1.3,0.4-1.9,0.6
			c-1.1-1.4-1.7-3.2-2.6-4.8c-0.8,0.4-1.6,0.8-2.5,1.1c0.7,1.6,1.5,3.2,2.3,4.8c-0.6,0.3-1.2,0.7-1.9,1c-0.8-1.6-1.6-3.2-2.4-4.7
			c-1,0.5-2,1-3,1.5c0.9,1.9,1.8,3.7,2.6,5.6l-1.1-0.1c-0.3,0.1-0.8,0.1-1,0.2c-1.1-2.1-2.5-4.2-3.1-6.5
			C2729.3,1463.4,2730.7,1463,2731.9,1462.3z"/>
		<path class="st61" d="M2576,1459.5l0.5-0.3l0.5,0.3v0.5c-0.2,0-0.7,0-1,0.1V1459.5z"/>
		<path class="st62" d="M2575.8,1460c0.2,0,0.7,0,1-0.1c2.6,0.9,0.4,3.5-0.5,4.9c-0.8-0.8-2.5-1-2.5-2.4
			C2574.3,1461.6,2574.9,1460.6,2575.8,1460z"/>
		<path class="st13" d="M2501.1,1461.1c4.9,4.7,8.3,13.2,3.8,19.3c-1.4,0.9-2.6-0.5-3.1-1.8
			C2499.3,1473.1,2501.5,1466.9,2501.1,1461.1z"/>
		<path class="st34" d="M2800.2,1475.6c-0.6-5.4,2-10.8,5.8-14.5c-0.3,5.6,1.6,11.5-0.5,16.9c-0.6,1.2-1.3,3.1-3,2.5
			C2801.2,1479.2,2800.3,1477.4,2800.2,1475.6z"/>
		<path class="st59" d="M2679,1462.8c0.3-0.1,1-0.2,1.3-0.3c6.7,4.3,13.5,8.4,20.3,12.6c8.2,5.1,17,9.3,26.3,12.1
			c1.7,3.5,2.6,7.4,2.9,11.3c-0.6,0.6-1.1,1.3-1.8,1.8c-3.2,0.5-6.5,0.7-9.7,0.5c-10.2,0-20.3,0.6-30.5,0.4
			c-0.5-2.1-1.1-4.3-1.6-6.4c0-0.1-0.1-0.3-0.1-0.4C2683.4,1483.9,2680.2,1473.5,2679,1462.8z"/>
		<path class="st63" d="M2666.2,1463.7c3.6,0,7.2,0.1,10.8,0.2v0.5c-3.6-0.1-7.2-0.1-10.7-0.1L2666.2,1463.7z"/>
		<path class="st64" d="M2564.3,1465.3c4,1.5,7.9,3.1,11.8,4.6c-0.1,0.5-0.4,1.5-0.6,2c-1.8-0.6-3.5-1.3-5.3-1.9
			c-0.5,1.3-0.9,2.6-1.4,3.9c1.6,0.7,3.3,1.3,4.9,1.9c-0.2,0.7-0.3,1.4-0.5,2.1c-4-1.5-7.9-3.1-11.9-4.6c0.2-0.5,0.5-1.5,0.7-2
			c1.6,0.6,3.1,1.2,4.6,1.8c0.5-1.3,1-2.5,1.5-3.8c-1.5-0.7-3-1.3-4.5-1.8C2563.9,1466.7,2564.1,1466,2564.3,1465.3z"/>
		<path class="st65" d="M2666.7,1465.5c1.5,0,2.9,0,4.3,0c0,2.3,0,4.7,0,7c-1.1,0-2.3,0-3.3,0
			C2667.3,1470.2,2666.9,1467.8,2666.7,1465.5z"/>
		<path class="st66" d="M2672.1,1465.5c1.4,0,2.9,0,4.3,0c-0.3,2.2-0.7,4.5-1,6.8c-1.1,0-2.2,0.1-3.3,0.1
			C2672,1470.1,2672,1467.8,2672.1,1465.5z"/>
		<path class="st67" d="M2602.4,1468c3.7-2.6,9.2-2.5,12.7,0.5c1.6,1.3,2.4,3.2,3.1,5c-6.7,0-13.5,0-20.2,0
			C2598.9,1471.4,2600.3,1469.3,2602.4,1468z"/>
		<path class="st68" d="M2674.2,1490.2c1.4-7.8,2-15.7,3.5-23.5c0.7,3.5,1.7,6.9,2.5,10.3c-1.8,4.1-2.6,8.5-3.9,12.8
			C2675.6,1490,2674.9,1490.1,2674.2,1490.2z"/>
		<path class="st69" d="M2731.4,1470.9c0.3,0,0.8-0.1,1-0.2C2732.2,1471.7,2731.9,1471.8,2731.4,1470.9z"/>
		<path class="st70" d="M2604.3,1470.5h7.7v2h-7.7C2604.4,1472.2,2604.3,1471.4,2604.3,1470.5z"/>
		<path class="st71" d="M2664.4,1477.5c0.4-2.2,1.1-4.2,1.4-6.4c1.4,6.3,2,12.7,2.9,19c-0.4-0.1-1.1-0.3-1.4-0.3
			C2666.4,1485.7,2665.1,1481.7,2664.4,1477.5z"/>
		<path class="st13" d="M2518.6,1471.9c3.7-1,7.7-0.3,11.2,1.4c-1,0.1-2.1,0.2-3.1,0.2c-3.1,2.6-5.8,5.7-8.7,8.4
			c-2.2,2-5.3,2.8-8.3,2.6c0.8-2.7,0.6-5.7,1.8-8.4C2513.2,1473.8,2516.2,1473.2,2518.6,1471.9z"/>
		<path class="st72" d="M2777.2,1473.2c3-1.2,6.2-2.2,9.4-1.7c3.8,0.2,7,2.3,9.9,4.6c0.4,2.7,0.8,5.4,0.8,8.2
			c-2.1-0.2-4.3-0.5-6.3-1.2c-3.7-2.2-6.1-6-9.5-8.7C2780.3,1473.4,2778.7,1473.4,2777.2,1473.2z"/>
		<path class="st73" d="M2671.8,1473.5c1.1,0,2.2,0,3.3,0c-0.3,2.3-0.7,4.7-1.1,7c-0.7,0-1.6,0-2.3,0
			C2671.8,1478.2,2671.8,1475.9,2671.8,1473.5z"/>
		<path class="st74" d="M2668.1,1473.5c1,0,1.9,0,2.9,0c0,2.5,0,4.9,0,7.4c-0.4,0-1.4-0.1-1.8-0.2
			C2668.8,1478.3,2668.5,1475.9,2668.1,1473.5z"/>
		<path class="st75" d="M2739.9,1474.8c2.3-0.6,5.2-0.7,6.8,1.3c1.8,2.1,1.4,5.5-0.8,7.2c-2.6,1.8-6.4,2.8-9.2,0.9
			c-2-1.5-2.5-4.7-1-6.7C2736.8,1476.1,2738.3,1475.3,2739.9,1474.8z"/>
		<path class="st76" d="M2600.3,1475.5h15.7v2h-15.6C2600.2,1477.2,2600.3,1476.4,2600.3,1475.5z"/>
		<path class="st24" d="M2600.4,1489.3c-1-4.4-3.2-8.5-2.8-13c0.1,1.1,0.1,2.1,0.2,3.2c6.8,0,13.7,0,20.5,0c0.1-0.9,0.1-1.7,0.2-2.6
			c0.2,4.4-1.8,8.4-2.9,12.6c-0.9,0-1.7,0-2.7,0c-0.7-3.2-1.3-6.5-1.9-9.7c-1.3,0-2.5,0-3.8,0.1c-1,3.2-1.8,6.4-2.9,9.5
			C2602.9,1489.3,2601.7,1489.3,2600.4,1489.3z"/>
		<path class="st77" d="M2740.3,1477.1c1.3-0.4,2.8-0.7,4.1,0c1.6,0.9,1.6,3.6,0,4.5c-2,1.2-5.2,2.2-6.9,0
			C2736.3,1479.5,2738.3,1477.5,2740.3,1477.1z"/>
		<path class="st78" d="M2560.1,1478.4c1.7-1.6,4.3-0.6,5.4,1.2c2.1-1.9,6-0.5,6.1,2.4c-0.2,2.2-1,4.3-1.5,6.4c-4.1-1-8-2.4-12-3.3
			C2558.4,1482.7,2558.8,1480.3,2560.1,1478.4z"/>
		<path class="st79" d="M2680.7,1479.3c0.5,1.8,1,3.5,1.3,5.3c-0.2,2-1.1,3.7-1.7,5.6c-0.9,0-1.9,0-2.8-0.1
			C2678.6,1486.4,2679.5,1482.8,2680.7,1479.3z"/>
		<path class="st80" d="M2560.6,1483.4c0.5-1.4,0.4-4.3,2.6-3.6c1.8,1,0.4,3,0.2,4.4C2562.4,1483.9,2561.5,1483.7,2560.6,1483.4z"/>
		<path class="st81" d="M2565.3,1484.5c0.6-1.4,0.9-4.8,3.2-3.8c1.8,0.9,0.3,3.2,0.2,4.7c-0.3-0.1-0.9-0.2-1.2-0.3
			c-0.5-0.4-1-0.6-1.7-0.6H2565.3z"/>
		<path class="st82" d="M2663.6,1480.7c1,3.1,1.7,6.3,2.5,9.4c-0.7,0-1.4-0.1-2.2-0.1c-0.5-1.6-1.2-3.2-1.4-4.9
			C2662.6,1483.6,2663.1,1482.1,2663.6,1480.7z"/>
		<path class="st83" d="M2606.4,1490.5c0.8-2.9,1.6-5.8,2.7-8.6c0.7,2.8,1.2,5.7,1.7,8.6C2609.3,1490.5,2607.9,1490.5,2606.4,1490.5
			z"/>
		<path class="st84" d="M2669,1481.5c1.8,0,3.4,0,5.2,0c-0.3,2.3-0.7,4.7-1,7c-1.1,0-2.2,0-3.3,0
			C2669.5,1486.2,2669.2,1483.8,2669,1481.5z"/>
		<path class="st85" d="M2490.3,1484.5c5.5,1.6,10.5,5.4,13.2,10.5c1,2.2,2.1,4.6,1.5,7.1c-0.4,1.5-1.1,2.8-1.7,4.2
			c-2.1-0.7-4.3-1.7-5.6-3.7c-3.1-4.5-2.9-10.4-5.6-15.1C2491.5,1486.5,2490.6,1485.7,2490.3,1484.5z"/>
		<path class="st12" d="M2802.3,1497.6c2.3-6.3,8-11.2,14.4-13c-0.5,1.5-1.7,2.7-2.5,4.1c-1.7,4.5-2.2,9.4-4.7,13.6
			c-1.1,2-3.2,3.1-5.3,3.9C2801.5,1504.2,2802.1,1500.6,2802.3,1497.6z"/>
		<path class="st86" d="M2565.8,1484.8c0.6,0,1.2,0.2,1.7,0.6C2566.5,1486.1,2566,1485.9,2565.8,1484.8z"/>
		<path class="st87" d="M2736.9,1488.2c4.2-0.5,8.4-1.7,12.7-1.7c0.2,2.3,0.5,4.7,0.9,7c-0.5,0-1.6,0.1-2.2,0.1
			c-0.2-1.7-0.5-3.3-0.8-5c-0.9,0.2-1.9,0.4-2.8,0.5c0.2,1.5,0.3,3,0.4,4.5c-0.7,0-1.4,0-2,0.1c-0.2-1.4-0.4-2.8-0.6-4.2
			c-1.8,0.3-3.5,0.6-5.2,0.9C2737.2,1489.6,2737,1488.9,2736.9,1488.2z"/>
		<path class="st47" d="M2803.8,1497.2c1.7-4.6,5.5-8.1,9.9-10.2c-1.6,4.2-2.4,8.6-4,12.8c-1,2.3-2.7,4.8-5.4,5
			C2803.2,1502.4,2802.7,1499.6,2803.8,1497.2z"/>
		<path class="st33" d="M2661.2,1490.2c-0.7-0.7,0.5-3.6,1.1-1.8c0,0.4,0.1,1.1,0.1,1.4C2662.2,1489.9,2661.5,1490.1,2661.2,1490.2z
			"/>
		<path class="st33" d="M2682.7,1487.4c0.4,1,0.7,1.9,0.9,2.9c-0.6-0.1-1.2-0.1-1.8-0.1C2682,1489.3,2682.3,1488.3,2682.7,1487.4z"
			/>
		<path class="st47" d="M2493.9,1487.7c2.9,0.6,4.9,3.1,6.8,5.2c2.7,3.2,4.1,7.9,2.1,11.7c-2.9-0.4-4.8-3.2-5.7-5.8
			C2495.9,1495.2,2495,1491.4,2493.9,1487.7z"/>
		<path class="st34" d="M2512.9,1492.6c2.4-1.7,5.2-3.1,8.2-3.1c-1.2,2.1-2.6,4.2-3.4,6.6c-0.9,2.5-2,5-3.9,6.9
			c-1.3,1.4-3.2,2-4.9,2.9c-1.5-1.5-0.8-3.8-0.8-5.7C2508.2,1496.9,2510.6,1494.5,2512.9,1492.6z"/>
		<path class="st88" d="M2662.5,1489.8c0.3,0,1,0.1,1.4,0.1c0.7,0.1,1.4,0.1,2.2,0.1c0.3-0.1,1-0.2,1.3-0.3c0.4,0.1,1.4-0.2,1.4-0.2
			h5.5c0,0,1.4,0.3,2.1,0.1c0.3,0.1,0.9,0.2,1.3,0.2c0.9,0.1,2.8-0.3,2.8-0.3h1.4c0,0,1.2,0.5,1.8,0.5c0.2,0.3,0.6,0.9,0.7,1.2
			c-1,0-2.9-0.7-2.9-0.7h-1.5c0,0-1.9,0.7-2.8,1h-1.3c-0.7-0.3-2.1-1-2.1-1h-1.3h-1.9h-1.4c-0.3,0.6-1,0.6-1.4,0.7
			c-0.3,0-1.3,0.3-1.3,0.3h-2.2h-1.4h-2.3c-1.2-0.3-3.4-1-3.4-1h4C2661.2,1490.5,2662.2,1489.9,2662.5,1489.8z"/>
		<path class="st89" d="M2785.9,1489.5c5.1,0.1,9.8,3.5,12.4,7.8c1.4,2.3,1.1,5.1,0.9,7.6c-3.9,0.8-6.9-2.5-8.4-5.7
			C2789.4,1495.9,2788,1492.5,2785.9,1489.5z"/>
		<path class="st90" d="M2557,1491.8c4.3-0.7,8.6-1.7,13-2.3c-0.1,0.5-0.3,1.6-0.4,2.1c-0.9,0.5-2,0.5-3,0.8
			c-0.1,1.5-0.2,2.9-0.3,4.4c0.8,0.3,1.6,0.6,2.4,1c-0.1,0.6-0.2,1.8-0.3,2.3c-4-1.9-8-4-12-5.9
			C2556.6,1493.3,2556.8,1492.5,2557,1491.8z"/>
		<path class="st91" d="M2660.6,1491.5c0.8,0,1.5,0,2.3,0c0.3,0.9,0.6,1.8,0.9,2.7c-0.6,0.1-1.2,0.1-1.9,0.2
			C2661.5,1493.4,2661,1492.5,2660.6,1491.5z"/>
		<path class="st92" d="M2662.8,1491.5c0.3,0,1.1,0,1.5,0c0.3,1,0.6,1.9,1,3h-0.6c-0.2,0-0.6,0-0.9,0
			C2663.5,1493.4,2663.1,1492.5,2662.8,1491.5z"/>
		<path class="st93" d="M2664.2,1491.5c0.7,0,1.4,0,2.2,0c0.1,0.4,0.3,1.2,0.3,1.6c0.1,0.3,0.2,0.9,0.3,1.2c-0.6,0-1.2-0.1-1.8-0.1
			C2664.9,1493.4,2664.6,1492.5,2664.2,1491.5z"/>
		<path class="st94" d="M2666.4,1491.6c0.3,0,1,0,1.3-0.1c0.3,1,0.5,2,0.8,3.1c-0.3-0.1-0.8-0.2-1.1-0.2c-0.2-0.3-0.5-0.9-0.7-1.2
			C2666.7,1492.8,2666.5,1492,2666.4,1491.6z"/>
		<path class="st95" d="M2667.7,1491.5c0.3,0,1,0,1.4-0.1c0.2,1.1,0.3,2.2,0.5,3.3l-1.1-0.2
			C2668.3,1493.6,2668,1492.5,2667.7,1491.5z"/>
		<path class="st96" d="M2669.1,1491.5c0.3,0,1,0,1.4,0c0.1,0.4,0.3,1.3,0.4,1.8c-0.2,0.7-0.6,1.3-1.3,1.5
			C2669.5,1493.7,2669.3,1492.6,2669.1,1491.5z"/>
		<path class="st33" d="M2670.5,1491.5c0.5,0,1.4,0,1.9,0c-0.1,0.4-0.3,1.3-0.5,1.8c-0.1,0.4-0.3,1.1-0.4,1.5
			c-0.2-0.5-0.4-1-0.6-1.5C2670.8,1492.8,2670.6,1491.9,2670.5,1491.5z"/>
		<path class="st97" d="M2672.4,1491.5c0.3,0,1,0,1.3,0c-0.2,1.1-0.4,2.2-0.6,3.3c-0.4-0.5-0.8-1-1.2-1.5
			C2672,1492.8,2672.3,1491.9,2672.4,1491.5z"/>
		<path class="st98" d="M2673.7,1491.5c0.7,0,1.4,0.1,2.1,0.1c-0.2,0.8-0.5,1.7-0.7,2.5c-0.5,0.2-1.5,0.5-2,0.7
			C2673.3,1493.7,2673.5,1492.6,2673.7,1491.5z"/>
		<path class="st97" d="M2675.8,1491.5c0.4,0,0.9,0,1.3,0l-0.2,0.8c-0.3,0.6-0.5,1.3-0.8,1.9c-0.2-0.1-0.7-0.2-1-0.2
			C2675.3,1493.2,2675.6,1492.3,2675.8,1491.5z"/>
		<path class="st99" d="M2677.1,1491.6c0.9,0,1.9-0.1,2.8-0.1c-0.4,0.9-0.7,1.9-1,2.8c-0.8,0-1.7,0.1-2.5,0.1
			c0.1-0.5,0.3-1.5,0.4-2.1L2677.1,1491.6z"/>
		<path class="st100" d="M2679.9,1491.5c0.4,0,1.1,0,1.5,0c-0.4,0.9-0.7,1.9-1.1,2.8c-0.5,0-0.9,0.1-1.4,0.1
			C2679.2,1493.4,2679.5,1492.4,2679.9,1491.5z"/>
		<path class="st101" d="M2681.4,1491.5c1,0,2,0,2.9,0.1c-0.5,0.9-0.9,1.9-1.4,2.8c-0.9,0-1.7-0.1-2.6-0.1
			C2680.7,1493.3,2681,1492.4,2681.4,1491.5z"/>
		<path class="st52" d="M2598.1,1492.1c6.3-0.2,12.6,0.1,18.9,0.1c0,2.7,0,5.3,0,8c-6.3,0-12.6,0.1-18.9-0.1
			C2598.1,1497.4,2598.2,1494.8,2598.1,1492.1z"/>
		<path class="st102" d="M2625.1,1492c6.3,0.1,12.6-0.1,18.9,0c0,2.7,0,5.4,0,8.2c-6.3-0.2-12.7-0.2-19,0
			C2625.1,1497.5,2625.1,1494.8,2625.1,1492z"/>
		<path class="st103" d="M2559.9,1493.6c1.5-0.5,3-0.7,4.5-0.9c-0.1,1-0.2,1.9-0.3,2.9C2562.7,1494.8,2561.3,1494.2,2559.9,1493.6z"
			/>
		<path class="st104" d="M2676.1,1494.3c0.3-0.6,0.5-1.3,0.8-1.9c-0.1,0.5-0.3,1.5-0.4,2.1c0.8,0,1.6-0.1,2.5-0.1
			c0.5,0,0.9-0.1,1.4-0.1c0.9,0.1,1.7,0.1,2.6,0.1c1,0,2.1-0.5,3.1,0c0,0.1,0.1,0.3,0.1,0.4c-0.3,0.4-0.8,1.2-1,1.7
			c-0.2-0.3-0.4-0.8-0.6-1c-0.3,0.2-0.9,0.6-1.2,0.8c-0.6-0.1-1.1-0.1-1.6,0l0.1-0.7c-0.8,0.2-1.6,0.4-2.3,0.8
			c-0.5-0.7-1-0.6-1.5,0.2l0.2-1c-0.8,0.2-1.6,0.4-2.4,0.7c-0.6-0.4-1.1-0.3-1.5,0.2c-0.2-0.2-0.5-0.6-0.7-0.8l-0.5,0.1
			c-0.6,0.2-1.2,0.6-1.7,1c-0.2-0.2-0.7-1.3-0.7-1.3h-1h-0.4c-0.1,0.8-0.2,1.4-0.3,1.7c-0.1-0.7-1.1-1.4-1.5-0.4
			c-0.1-0.2-0.3-0.6-0.4-0.8c-0.4,0-1.2-0.1-1.7-0.2c0.2,0.7,0.5,1.4,0.7,2.1c0.5,0,1.5-0.1,2-0.1c0.2,0,0.7-0.1,0.9-0.1
			c0.2-0.3,0.6-0.9,0.9-1.1c0.4,0.7,0.8,1.5,1.7,1.6c0.4-0.5,0.7-1.1,1-1.7c0,0.9,1.4,1,1.4,1h1c0,0,1.7,0.4,2.6,0.4
			c0.5,0,0.9,0,1.4-0.1c0.5,0,1.5,0.1,2,0.1c0.3,0,1.2-0.4,1.2-0.4h3.1c0,0,0.4,1.5,0.6,1.9c-1.5-0.4-3.2-0.4-4.7,0.1
			c-0.3,0-1,0.1-1.3,0.1c-0.5-0.9-2.2-0.4-1.5,0.7c-0.5-0.3-1-0.7-1.5-0.9c-0.7-0.3-1.5-0.3-2.2-0.1c-0.4,0-1.1-0.1-1.5-0.1
			c-0.3,0-0.8,0.1-1.1,0.1c-0.6,0.1-1.1,0.2-1.7,0.3c-1-0.3-1.2-0.1-0.7,0.8c-0.5-0.3-1-0.6-1.5-1c-0.7-0.4-1.3-0.4-2,0.2
			c-0.3,0-0.9-0.1-1.1-0.2c-0.3,0-1.1,0.1-1.1,0.1s-0.9,0-1.3,0c-1.5,0-2.9,0-4.3,0c-1,0-2.3,0.1-2.3-1.2c2.2-0.1,5.6,1.5,6.8-1.1
			c0.2,0.5,1.6,1.7,1.7,0.5c0.2-1-1.2-2.3-1.8-1.2c-0.6,0-1.3-0.1-1.8-0.1c-0.2-0.2-0.5-0.6-0.7-0.9c-0.2,0.2-0.6,0.6-0.9,1
			c-1.1-0.3-2.2-0.6-3.3-1.1c1-1,2.7-0.7,3.9-1.2c0.4,0.1,1.4,0.3,1.8,0.3c0.6,0,1.3-0.1,2-0.2c0.2,0,0.6,0,0.6,0h0.6
			c0.6,0.1,1.2,0.2,1.8,0.2c-0.1-0.3-0.2-0.9-0.3-1.2c0.2,0.3,0.5,0.9,0.7,1.2c0.3,0.1,0.8,0.2,1.1,0.2l1.1,0.2
			c0.7-0.3,1.1-0.8,1.3-1.5c0.2,0.5,0.4,1,0.6,1.5c0.1-0.4,0.3-1.1,0.4-1.5c0.4,0.5,0.7,1,1.2,1.5c0.5-0.2,1.5-0.5,2-0.7
			C2675.3,1494.1,2675.8,1494.2,2676.1,1494.3z"/>
		<path class="st105" d="M2659.6,1495.9c0.2-0.2,0.6-0.6,0.8-0.9c0.2,0.2,0.5,0.6,0.7,0.8c0.3,0.4,0.8,1.3,1.1,1.7
			c-1.1,0-2.2,0-3.2,0C2659.2,1497.1,2659.5,1496.3,2659.6,1495.9z"/>
		<path class="st106" d="M2662.9,1496.2c0.7-1.1,1.9,0.2,1.7,1.1c-0.1,1.1-1.4,0-1.6-0.5L2662.9,1496.2z"/>
		<path class="st107" d="M2665.5,1495.7c0.4,0,1.2,0.1,1.7,0.2c0.1,0.2,0.3,0.6,0.4,0.8c0.2,0.3,0.5,0.8,0.6,1c-0.5,0-1.5,0.1-2,0.1
			C2666,1497,2665.8,1496.3,2665.5,1495.7z"/>
		<path class="st108" d="M2667.6,1496.6c0.4-1,1.4-0.3,1.5,0.4l0.1,0.4c-0.2,0-0.7,0.1-0.9,0.1
			C2668.1,1497.4,2667.8,1496.9,2667.6,1496.6z"/>
		<path class="st109" d="M2669.3,1495.5h0.4l0.3,0.5c-0.2,0.3-0.6,0.9-0.9,1.1l-0.1-0.4C2669.1,1496.4,2669.3,1495.8,2669.3,1495.5z
			"/>
		<path class="st110" d="M2669.8,1495.5c0.2,0,0.7,0,1,0c0.2,0.2,0.5,0.6,0.7,0.8c0.5-0.4,1.1-0.8,1.7-1l-0.3,0.5
			c-0.3,0.6-0.7,1.1-1,1.7c-0.9-0.1-1.3-0.9-1.7-1.6L2669.8,1495.5z"/>
		<path class="st111" d="M2673.1,1495.7l0.5-0.1c0.2,0.2,0.5,0.6,0.7,0.8c0,0.3-0.1,0.9-0.1,1.2c-0.9,0.1-1.4-0.4-1.4-1.3
			L2673.1,1495.7z"/>
		<path class="st112" d="M2674,1496.3c0.4-0.5,0.9-0.6,1.5-0.2c-0.1,0.3-0.4,1-0.5,1.4c-0.3,0-0.8,0-1,0
			C2674,1497.2,2674,1496.6,2674,1496.3z"/>
		<path class="st113" d="M2675.8,1496.2c0.8-0.2,1.6-0.5,2.4-0.7l-0.2,1c0,0.3-0.1,0.9-0.2,1.2c-0.9,0-1.7-0.1-2.6-0.1
			C2675.4,1497.2,2675.7,1496.6,2675.8,1496.2z"/>
		<path class="st114" d="M2678,1496.6c0.5-0.8,1-0.9,1.5-0.2c-0.1,0.3-0.2,1-0.3,1.3c-0.5,0.1-0.9,0.1-1.4,0.1
			C2677.9,1497.4,2678,1496.8,2678,1496.6z"/>
		<path class="st115" d="M2679.5,1496.4c0.7-0.4,1.5-0.6,2.3-0.8l-0.1,0.7c-0.1,0.4-0.3,1.1-0.4,1.5c-0.5,0-1.5-0.1-2-0.1
			C2679.3,1497.3,2679.5,1496.7,2679.5,1496.4z"/>
		<path class="st116" d="M2681.6,1496.2c0.5-0.1,1.1-0.1,1.6,0c-0.3,0.5-0.6,1.1-0.9,1.6c-0.3,0-0.9,0-1.2-0.1
			C2681.3,1497.4,2681.5,1496.6,2681.6,1496.2z"/>
		<path class="st33" d="M2683.3,1496c0.3-0.2,0.9-0.6,1.2-0.8c0.1,0.3,0.4,0.8,0.6,1c0.1,0.3,0.4,1,0.5,1.3c-1,0-2.1,0-3.1,0
			C2682.7,1497.1,2683,1496.6,2683.3,1496z"/>
		<path class="st117" d="M2658.8,1499.3c1.3,0,2.7-0.1,4,0c0.1,0.3,0.3,0.9,0.4,1.2c-1.6,0-3.2,0-4.8,0
			C2658.5,1500.1,2658.7,1499.6,2658.8,1499.3z"/>
		<path class="st118" d="M2664.3,1499c0.3,0,0.8,0.1,1.1,0.1C2666.6,1500.6,2663.1,1500.5,2664.3,1499z"/>
		<path class="st119" d="M2666.5,1499.2c0.6-0.5,1.3-0.6,2-0.2C2669.4,1500.5,2666.3,1500.7,2666.5,1499.2z"/>
		<path class="st120" d="M2670,1500c-0.5-0.8-0.2-1.1,0.7-0.8C2670.5,1499.5,2670.2,1499.8,2670,1500z"/>
		<path class="st121" d="M2672.4,1499c0.3,0,0.8-0.1,1.1-0.1C2674.6,1500.4,2671.2,1500.6,2672.4,1499z"/>
		<path class="st122" d="M2675,1499c0.8-0.2,1.5-0.2,2.2,0.1C2677.9,1500.7,2674,1500.6,2675,1499z"/>
		<path class="st123" d="M2678.7,1500c-0.7-1.1,1-1.6,1.5-0.7c-0.2,0.2-0.7,0.6-0.9,0.9L2678.7,1500z"/>
		<path class="st124" d="M2681.5,1499.3c1.5-0.5,3.1-0.5,4.7-0.1l0.2,0.8c-1.8,0.1-3.6,0.1-5.3,0L2681.5,1499.3z"/>
		<path class="st125" d="M2749.5,1499.9c0.6-0.1,1.3-0.1,1.9,0c0.1,2.8,0.3,5.7,0.5,8.5c-0.6,0-1.7,0.1-2.2,0.1c0-1-0.1-2.1-0.1-3.1
			c-3.5,0.1-7.1,0.4-10.6,0.5c0-0.6,0-1.7,0-2.2c3.5-0.1,7-0.3,10.5-0.5c-0.1-1-0.1-2-0.1-2.9
			C2750.7,1502.1,2751.6,1499.5,2749.5,1499.9z"/>
		<path class="st126" d="M2624.6,1500.2c6.3-0.2,12.7-0.2,19,0c-3.5,1-7.2,0.3-10.8,0.5C2630.1,1500.6,2627.2,1501.4,2624.6,1500.2z
			"/>
		<path class="st127" d="M2749.2,1499.9c2.1-0.5,1.2,2.1-0.2,0.4L2749.2,1499.9z"/>
		<path class="st128" d="M2566,1505.7c0.1-1.7,0.2-3.5,0.5-5.2c0.5,0,1.5,0,2,0c-0.1,2.5-0.3,5.1-0.5,7.6c-1.8-0.1-3.6-0.2-5.5-0.4
			c1-0.1,2-0.2,3-0.3c-3.3-0.1-6.7-0.5-10-0.2c-0.1-0.5-0.2-1.5-0.2-2c3.3,0.3,6.5,0.7,9.8,0.6
			C2565.4,1505.7,2565.8,1505.7,2566,1505.7z"/>
		<path class="st129" d="M2555.4,1505.2c3.2-0.5,6.6-0.3,9.8,0.6C2561.9,1505.8,2558.6,1505.4,2555.4,1505.2z"/>
		<path class="st130" d="M2555.6,1507.2c3.3-0.3,6.7,0.1,10,0.2c-1,0.1-2,0.3-3,0.3C2560.2,1507.9,2557.9,1507.5,2555.6,1507.2z"/>
		<path class="st97" d="M2577.1,1507.1c22.4,0.1,44.7,0,67.1,0.1c1.9,0,3.9,0.2,5.8-0.4c1.2,0.2,2.3,0.3,3.5,0.5
			c0,25.4-0.1,50.8,0.1,76.2c-1.8-0.3-3.7-0.5-5.5-0.6c-18.3-2.2-36.5-9.4-49.4-22.7C2584.8,1546.1,2577.8,1526.5,2577.1,1507.1z"/>
		<path class="st131" d="M2655.3,1507.2c25.5-0.1,50.9-0.1,76.4-0.1c-0.7,13.4-4,26.8-10.7,38.5c-3.9,6.7-8.9,12.8-14.7,18
			c-1.6,1.7-3.5,3.2-5.6,4.5c-13.4,9.4-29.5,14.1-45.6,15.9c-0.2-10.8,0.2-21.6,0.1-32.4C2655.3,1536.8,2655.3,1522,2655.3,1507.2z"
			/>
		<path class="st132" d="M2595.5,1508.9c0.9-0.4,1.8-0.6,2.8-0.6c12.6,0,25.2,0.1,37.7-0.1c1.3,0.1,2.8-0.2,4,0.7
			c-1.5,0-3,0-4.6,0.1C2622.1,1508.9,2608.8,1509,2595.5,1508.9z"/>
		<path class="st133" d="M2657.1,1509c0.6-0.6,1.3-0.9,2.1-0.8c20.5,0.1,41,0.1,61.5,0.1c2.2,0.1,4.6-0.6,6.5,0.7
			C2703.9,1509,2680.5,1509.1,2657.1,1509z"/>
		<path class="st134" d="M2579.8,1508.5c4,0,7.9,0,11.9,0c-0.4,0.4-0.8,0.8-1.2,1.2c-1.8-0.6-3.9-1.2-5.7-0.3
			c-1.4,1-2.9-0.1-4.2-0.6c0.1,2.6,0.1,5.2,0.1,7.9C2580,1514.1,2580.1,1511.3,2579.8,1508.5z"/>
		<path class="st59" d="M2594.4,1508.5c0.3,0,0.8,0,1,0c13.3,0.1,26.6,0,39.9,0.1l-0.4,0.3c-3,2.9-5.3,6.4-7.9,9.6
			c-2.5-2.2-5.1-4.3-7.6-6.5c-2.2,2-4.4,4.2-6.7,6.2c-2.2-2.8-4.3-5.7-6.7-8.3c-1.9,2.1-3.8,4.3-6,6.2
			C2598.1,1513.6,2596.3,1511,2594.4,1508.5z"/>
		<path class="st48" d="M2635.4,1509c1.5,0,3-0.1,4.6-0.1c2.7,0.1,5.4,0,8.1,0.1c-2.3,3.3-4.6,6.6-7,9.9c-2.1-3.2-4.1-6.3-6-9.6
			L2635.4,1509z"/>
		<path class="st24" d="M2657.1,1509.5c23.4,0.2,46.8,0.1,70.1,0h0.6c-0.6,16.1-5.8,32.4-16.2,44.9c-2.9,3.6-6.3,6.8-9.9,9.7
			c-2.4-0.5-5-0.6-7-2.1c-1.8-1.4-3.3-3.2-4.8-4.9c-2.9,4.1-6.7,7.7-11.5,9.3c-3.7,1.3-7.8,1.8-11.6,0.9c-2.1-0.5-4.5-0.5-6.2-2
			c-1.3-1.3-2.3-2.9-3.4-4.4C2657.1,1543.8,2657.3,1526.6,2657.1,1509.5z"/>
		<path class="st12" d="M2784,1509c8,0.6,14.1,8.5,14.1,16.2c0,2.4-1.6,4.4-3.1,6.1c-1.9-1.1-3.8-2.2-5-4.1
			C2786.2,1521.8,2788.8,1514.1,2784,1509z"/>
		<path class="st135" d="M2566,1509.5h2.1c0.1,2.4,0.3,4.8,0.6,7.2c-4.2,0.6-8.5,0.8-12.7,0.7c0-1.1,0-0.6-0.1-1.7
			c3.4-0.3,6.9-0.5,10.4-0.7C2566.1,1513.1,2566,1511.3,2566,1509.5z"/>
		<path class="st136" d="M2580.6,1509.4c1.4,0.4,2.8,1.5,4.2,0.6c1.8-1,3.8-0.4,5.7,0.3c-3.2,3.2-6.2,6.5-9.6,9.5
			c-0.1-0.8-0.1-1.7-0.2-2.5C2580.7,1514.6,2580.7,1512,2580.6,1509.4z"/>
		<path class="st137" d="M2651.1,1509.8C2653.2,1509.8,2650.1,1511.7,2651.1,1509.8z"/>
		<path class="st138" d="M2738.7,1510.4c4.2,0.5,8.3,1.3,12.5,2c-0.4,2.6-0.8,5.1-1.2,7.7c-0.7-0.1-1.4-0.2-2.1-0.3
			c0.2-1.9,0.5-3.7,0.9-5.5c-0.9-0.3-1.8-0.5-2.6-0.7c-0.4,1.8-0.7,3.5-1,5.3c-0.7-0.1-1.4-0.2-2.1-0.3c0.3-1.8,0.6-3.5,0.8-5.3
			c-1.1-0.2-2.3-0.4-3.4-0.5c-0.3,1.9-0.6,3.8-0.8,5.7c-0.5,0-1.6-0.1-2.2-0.2C2737.8,1515.7,2738.3,1513,2738.7,1510.4z"/>
		<path class="st59" d="M2581.8,1522c4-3.7,7.5-7.9,11.4-11.6c2.2,3,4.5,6,6.5,9c2.2-1.9,4-4.3,6.3-6.3c2.1,2.8,4.2,5.5,6.4,8.2
			c2.2-2.2,4.4-4.4,6.7-6.5c2.6,2.2,5.1,4.6,7.7,6.7c2.2-3.1,4.7-6,7-9.1c1.7,2.7,3.3,5.3,4.9,8c-2.9,4.2-5.8,8.5-8.8,12.6
			c-0.1-3.4-0.4-6.7-0.5-10.1c2.4-0.5,4.8-1,7.1-1.6c-0.3-1.3-0.2-0.7-0.5-2c-3,0.6-5.9,1.3-8.9,1.9c0.1,3.6,0.4,7.3,0.6,10.9
			c-2.7-0.3-5.4-0.6-8.1-0.8c0.3-0.7,0.7-1.4,1-2c-0.6-0.3-1.1-0.7-1.7-1c-0.4,0.5-0.7,1.1-1.1,1.6c0-1.1,0-2.3,0-3.4h-13v3.6
			c4.2-0.1,8.5,0,12.7-0.1c-6.1,9.1-12.5,18-18.7,27.1C2590,1547.7,2584.5,1535,2581.8,1522z"/>
		<path class="st34" d="M2786.8,1510.8c3.7,1.1,6.5,4.1,8.4,7.3c2.1,3.5,2.2,8.1,0,11.6c-2.5,0-3.9-2.3-5-4.2
			C2788,1520.9,2788.9,1515.4,2786.8,1510.8z"/>
		<path class="st139" d="M2510.2,1524.6c-0.1-5.9,4.1-11.3,9.4-13.7c-0.3,4-1,7.9-1.7,11.8c-0.8,3-2.6,6.5-6,7
			C2511.1,1528.1,2510.2,1526.5,2510.2,1524.6z"/>
		<path class="st140" d="M2622.2,1573.5c9.9-20.3,19.8-40.5,29.7-60.8c0.3,8.4-0.4,16.7,0.1,25.1c0,14.2,0,28.5,0,42.7
			C2641.8,1579.8,2631.7,1577.6,2622.2,1573.5z"/>
		<path class="st141" d="M2687.9,1520c3.3-3.8,8.6-6.1,13.6-5c-0.7,4.4-1.8,8.9-4.8,12.3c2,4.1,1,8.7,1.7,13.1
			c0.5,4.8-0.8,9.6-2.3,14.1c-3.8-1.1-7.1-3.3-9.9-6c-1.3-1.5-3.5-0.8-5,0.1c-4.6,2.6-9.9,3.2-15,3.5c-0.6-6,2.5-11.4,4.2-16.9
			c-3-1.5-6.5-2.3-8.7-5.1c0.3-0.3,0.8-0.8,1.1-1.1c-0.2-0.3-0.6-0.8-0.8-1c4.6-3.5,9.6-7.2,15.5-8
			C2680.9,1519.8,2684.4,1519.2,2687.9,1520z"/>
		<path class="st142" d="M2492.8,1516.6c4.8,0.7,9.6,2.9,12.5,6.9c1.6,2.2,1.4,5,1.6,7.5c-2.9,0-5.4-1.8-7.1-4
			C2497.3,1523.6,2495.5,1519.8,2492.8,1516.6z"/>
		<path class="st13" d="M2802.1,1523.1c2.9-3.7,7.5-5.9,12.2-6.5c-3.3,3.9-5.3,8.8-8.9,12.5c-1.3,1.3-3.2,1.7-5,2.1
			C2800.7,1528.4,2800.7,1525.5,2802.1,1523.1z"/>
		<path class="st143" d="M2691,1521.1c1.9-1.9,4.4-3.2,7.1-3.4c-0.6,2.5-1.5,4.9-3,7C2693.8,1523.4,2692.4,1522.2,2691,1521.1z"/>
		<path class="st144" d="M2558.1,1525.9c3.8-2.3,7.2-5.2,11-7.4c0.1,0.5,0.4,1.6,0.6,2.1c-0.8,0.6-1.7,1.1-2.5,1.7
			c0.4,1.4,0.8,2.8,1.3,4.2c1,0,2,0,3,0c0.2,0.7,0.3,1.4,0.5,2.1c-4.2-0.2-8.3-0.2-12.5-0.3
			C2558.1,1528.3,2558.5,1526.7,2558.1,1525.9z"/>
		<path class="st145" d="M2645.3,1520.9c-0.8,2.7-2.4,5.1-3.5,7.6c-7.2,14.7-14.4,29.4-21.6,44.2c-0.8-0.4-1.6-0.7-2.4-1.1
			C2626.8,1554.7,2636.3,1537.9,2645.3,1520.9z"/>
		<path class="st146" d="M2737.4,1522.5c2.7-2.2,6.6-1,9.3,0.6c2.3,1.4,2.9,4.7,1.2,6.7c-0.8,1.3-2.5,1.3-3.9,1.6c0-0.7,0-1.4,0-2.1
			c1.1-0.4,2.7-0.8,2.7-2.3c-0.2-2.6-3.3-3.2-5.3-3.5c-1.5-0.4-2.5,0.7-3.5,1.7c0.3,1.3,1.1,2.3,2.2,3.1c-0.4,0.6-0.8,1.1-1.2,1.7
			c-1.1-0.8-2.5-1.7-2.8-3.2C2735.7,1525.4,2736.1,1523.6,2737.4,1522.5z"/>
		<path class="st147" d="M2616,1565.6c8.7-14.3,17.5-28.5,26.2-42.8c-8.4,16.1-17.4,31.8-25.9,47.8c-0.8-0.4-2.1-0.4-2.3-1.4
			C2614.4,1567.9,2615.3,1566.8,2616,1565.6z"/>
		<path class="st24" d="M2681.3,1522.8c6.2-1.8,13.1,3,13.8,9.3c0.8,5.4-3.1,11.1-8.5,12.3c-6.7,1.8-13.9-4.1-13.7-11
			C2672.9,1528.6,2676.5,1524,2681.3,1522.8z"/>
		<path class="st148" d="M2561.3,1526.7c1.3-1,2.7-1.9,4.1-2.8c0.2,0.9,0.5,1.9,0.7,2.8C2564.5,1526.8,2562.9,1526.7,2561.3,1526.7z
			"/>
		<path class="st149" d="M2664.9,1529.3c2.5-2,5.2-3.7,8.1-5.1c-1.8,2.4-3.3,5.1-3.4,8.1c-0.2-0.2-0.5-0.7-0.6-1
			C2667.5,1530.7,2666.2,1530.1,2664.9,1529.3z"/>
		<path class="st150" d="M2645.5,1532.2c1.9-2.4,3.6-5,5.5-7.4c0.2,3.5,0.2,7,0.2,10.5C2648.7,1536,2646.7,1534.3,2645.5,1532.2z"/>
		<path class="st151" d="M2586,1526.4c3.7,0,7.5-0.1,11.2,0.1c0,1.2,0,2.3-0.1,3.5c-3.7,0-7.4,0.1-11.1-0.1
			C2586,1528.8,2586,1527.6,2586,1526.4z"/>
		<path class="st20" d="M2682.1,1526.8c4.2-1.4,9.1,2.1,9,6.6c0.4,4.7-4.9,8.6-9.3,6.9c-4.1-1.2-6.2-6.5-4-10.2
			C2678.7,1528.5,2680.3,1527.3,2682.1,1526.8z"/>
		<path class="st12" d="M2515.2,1545.3c0.1-7.1,5.4-13.7,12.2-15.6c-0.2,1.1-0.7,2-1.4,2.9c-1.7,5.5,0.4,11.7-2.9,16.8
			c-1.1,1.5-2.5,3.4-4.6,3.5C2516.3,1551.1,2515.2,1548.1,2515.2,1545.3z"/>
		<path class="st152" d="M2628.5,1612.8c2.9-1.4,6.5,1.8,5.5,4.9c-0.7,2.7-4.4,4.2-6.6,2.1C2624.9,1618,2625.7,1613.8,2628.5,1612.8
			z"/>
		<path class="st12" d="M2779.7,1529.7c6.9,1.9,12.1,8.5,12.2,15.6c0,3.1-1.4,5.9-3.6,8c-2.2-1.3-4.2-3.1-5.1-5.5
			c-1.7-4.2-0.9-8.8-1.5-13.1C2781.4,1532.9,2780.1,1531.5,2779.7,1529.7z"/>
		<path class="st153" d="M2734.5,1530.7c4,1.5,7.9,3.1,11.9,4.6c-0.2,0.6-0.4,1.3-0.6,1.9c-1.7-0.5-3.3-1.1-4.9-1.6
			c-0.4,1.3-0.9,2.6-1.3,3.9c1.2,0.5,2.5,0.9,3.7,1.5c1.1,0.3,0.2,1.7,0.3,2.4c-4-1.5-8-3.1-12-4.7c0.2-0.5,0.5-1.5,0.7-2
			c1.7,0.7,3.5,1.4,5.3,1.8c0.5-1.3,0.9-2.5,1.4-3.7c-1.7-0.7-3.4-1.3-5-2C2734.1,1532.1,2734.3,1531.4,2734.5,1530.7z"/>
		<path class="st34" d="M2516.6,1547.9c-1.4-6.3,2.4-13.1,8.1-15.9c-1.3,5.6,0.6,11.8-2.6,16.9c-0.8,1.1-2,2.8-3.6,2.4
			C2517.5,1550.4,2516.8,1549.2,2516.6,1547.9z"/>
		<path class="st154" d="M2559.5,1533.1c4.4-0.8,8.8-0.7,13.2-1.2c0.3,0.7,0.5,1.5,0.8,2.2c-3.6,2.6-6.9,5.6-10.6,8.1
			c-0.1-0.8-1.2-2-0.1-2.6c2.3-1.8,4.7-3.5,6.9-5.3c-3.1,0.2-6.2,0.5-9.4,0.9C2560.2,1534.5,2559.7,1533.6,2559.5,1533.1z"/>
		<path class="st142" d="M2782.4,1532.1c5.3,2.6,9,8.6,8.3,14.5c-0.2,1.7-0.9,3.3-1.9,4.7c-1.7,0.7-2.8-1.3-3.7-2.4
			C2781.9,1543.8,2783.6,1537.6,2782.4,1532.1z"/>
		<path class="st150" d="M2599.7,1532.9c4.4-0.2,8.9,0,13.3-0.1c0,1.2,0,2.4,0,3.6c-4.4,0-8.9,0.1-13.3,0
			C2599.8,1535.2,2599.7,1534.1,2599.7,1532.9z"/>
		<path class="st155" d="M2631.5,1535.8c0.6-0.8,1.2-1.6,1.9-2.4c-7.1,11.6-14.2,23.3-21.4,34.9c-0.8-0.5-1.6-1-2.4-1.7
			C2616.9,1556.3,2624.3,1546.1,2631.5,1535.8z"/>
		<path class="st156" d="M2619.5,1533.8c3.4,0.3,6.8,0.6,10.2,1c-2.8,3.7-5.1,7.9-8.3,11.3
			C2620.7,1541.9,2620.2,1537.9,2619.5,1533.8z"/>
		<path class="st157" d="M2610.3,1545.6c2.4-3.5,4.9-6.9,7.4-10.4c0.5,3.4,1.1,6.7,1.5,10.1
			C2616.2,1545.4,2613.2,1545.5,2610.3,1545.6z"/>
		<path class="st158" d="M2643.8,1538.5c1.2,0.4,1.3,1.9,2.1,2.7c1.1,1.7,3.1,2.4,5.1,2.3c-0.1,1-0.3,2.1-0.4,3.2
			c-3.6,0.8-7.3-1-10.2-3.1C2641.4,1541.8,2642.5,1540.1,2643.8,1538.5z"/>
		<path class="st159" d="M2594.1,1543.2c0-1.2,0-2.4,0.1-3.6c4.3,0.1,8.6-0.1,12.9,0.1c0.6,1,0.2,2.4,0.3,3.6
			C2603,1543.1,2598.6,1543.1,2594.1,1543.2z"/>
		<path class="st160" d="M2730.3,1540.5c3.8,1.9,7.7,3.9,11.4,6c-0.3,0.6-0.7,1.2-1,1.9c-2.9,0-5.9-0.1-8.8,0
			c2.2,1.5,4.6,2.5,6.9,3.8c-0.2,0.5-0.6,1.4-0.8,1.8c-3.8-1.9-7.6-3.9-11.4-5.9c0.3-0.6,0.7-1.2,1-1.9c2.8,0,5.6,0.1,8.4-0.1
			c-1.9-1.6-4.2-2.4-6.4-3.6C2729.9,1541.8,2730.1,1541.1,2730.3,1540.5z"/>
		<path class="st161" d="M2498.8,1540.8c1.4-0.1,2.9,0,4.1,0.8c2.8,0.4,5.6,1.6,7.5,3.8c1.3,2.6,1.9,5.4,2.8,8.1c-4,0.4-6.7-3-9-5.7
			C2502.4,1545.5,2500.5,1543.2,2498.8,1540.8z"/>
		<path class="st162" d="M2671.4,1540.8c2,2.3,4.2,4.4,6.7,6c-2.9,1.2-5.9,1.9-9,2.1C2669.5,1546.1,2670.4,1543.4,2671.4,1540.8z"/>
		<path class="st72" d="M2799.6,1543.1c2.7-1.5,5.8-2.4,8.9-2.3c-3.2,3.7-5.7,8-9.6,11.1c-1.3,1.2-3.1,1.6-4.8,1.6
			c0.9-2.5,1.8-5,2.6-7.5C2797.1,1544.5,2798.5,1543.8,2799.6,1543.1z"/>
		<path class="st163" d="M2576,1541.6c0.5,0.6,1,1.3,1.5,1.9c-0.7,2.2-3.2,4.4-2.1,6.7c1.9-0.2,3.2-2,5-2.4c0.2,0.6,0.5,1.1,0.7,1.7
			c-3.5,2.4-7,4.7-10.6,7c-1.2-2-2.9-3.9-3.4-6.2c-0.1-2.3,2.2-3.5,4.1-3.9c0.7,0.3,1.4,0.6,2.1,0.9
			C2574,1545.3,2575,1543.4,2576,1541.6z"/>
		<path class="st164" d="M2689.5,1547.2c2.3-1.4,4.4-3.1,6.2-5.2c-0.2,2.9-0.5,5.8-1.4,8.5
			C2692.6,1549.6,2690.5,1548.8,2689.5,1547.2z"/>
		<path class="st33" d="M2610.1,1548c3.6-0.2,7.1-0.2,10.7-0.4c-3.2,4.2-6.1,8.6-9.2,12.9c-0.2,0-0.5,0-0.6,0
			C2610.1,1556.4,2610.5,1552.1,2610.1,1548z"/>
		<path class="st165" d="M2639.2,1547.2c1.6,3.2,3.9,6.9,8,6.8c-0.2,1-0.5,2.1-0.7,3.1c-4.2,0.8-8.1-1.2-11.7-3
			C2636.2,1551.8,2637.7,1549.5,2639.2,1547.2z"/>
		<path class="st166" d="M2570.2,1549.1c1.7-1.4,2.9,1.4,3.6,2.6c-0.7,0.7-1.6,1.3-2.6,1.7
			C2570.4,1552.3,2568.5,1550.3,2570.2,1549.1z"/>
		<path class="st48" d="M2600.6,1559.2c2.5-3.4,4.7-7,7.4-10.2c0.1,3.9,0.5,7.9,0.6,11.8c0.7,0.1,1.4,0.2,2.1,0.3
			c-0.2,1.4-2,2.9-2.7,4.4C2605.3,1563.7,2602.9,1561.4,2600.6,1559.2z"/>
		<path class="st167" d="M2581.6,1550.6c0.5,0.6,1.1,1.2,1.6,1.9c-0.6,0.8-1.1,1.6-1.7,2.4c0.9,1.1,1.7,2.2,2.6,3.3
			c0.9-0.4,1.9-0.8,2.8-1.1c0.4,0.6,0.8,1.2,1.2,1.9c-4.1,1.5-8.2,3.1-12.1,4.9c-0.4-0.7-1.8-1.2-1.3-2.2
			C2576.9,1558,2579.5,1554.4,2581.6,1550.6z"/>
		<path class="st168" d="M2724.7,1551.9c3.7-0.8,7.2,2.1,8.6,5.3c1.4,3.2-1.7,7.2-5.1,6.5c-2.7-0.6-5.1-2.5-6.4-5
			S2722,1552.7,2724.7,1551.9z"/>
		<path class="st169" d="M2724.8,1554.4c2.1-1.2,4.5,0.8,5.9,2.4c1.3,1.4,0.9,4-1.1,4.5c-2.3,0.3-4.2-1.4-5.4-3.1
			C2723.3,1557.1,2723.3,1555.1,2724.8,1554.4z"/>
		<path class="st13" d="M2776.9,1561.7c0.3-2.7,0-5.4,0.1-8.1c3.9,2.7,6.6,7.1,7.1,11.9c0.3,3.1-0.6,6.5-3.1,8.5
			c-1.2,0.1-1.9-1.3-2.6-2.1C2776.4,1568.8,2776.5,1565.1,2776.9,1561.7z"/>
		<path class="st139" d="M2523.3,1569.6c-1.3-5.4,1.2-11.3,5.3-14.9c0.4-0.1,1.1-0.3,1.4-0.5c-0.3,4.4,0.6,8.9,0.2,13.3
			c-0.4,2.6-1.7,5.3-4.1,6.5C2524.9,1572.8,2523.7,1571.4,2523.3,1569.6z"/>
		<path class="st1" d="M2577.7,1561c0.8-1.3,1.6-2.7,2.5-4c0.5,0.7,1.8,1.2,1.6,2.2C2580.4,1559.9,2579,1560.4,2577.7,1561z"/>
		<path class="st150" d="M2633.2,1557.2c2.8,3.8,7.5,5.9,12.2,5.3c-0.3,1.6-0.5,3.1-0.8,4.7c-5.6,0.6-10.5-2.7-15.6-4.4
			C2630.4,1560.9,2631.8,1559.1,2633.2,1557.2z"/>
		<path class="st170" d="M2718.4,1559.3c3.1,3,6.2,5.9,9,9c-0.5,0.5-1,0.9-1.6,1.4c-2.4-2.5-4.9-5-7.5-7.4c-1.1,1.3-2.3,2.6-3.6,3.8
			c-0.5-0.5-1-1-1.4-1.5C2715.1,1562.8,2716.7,1561,2718.4,1559.3z"/>
		<path class="st171" d="M2581.6,1568c1-3.2,3.9-5.8,7.2-6.5c2.7,0.2,4.2,2.8,5.9,4.6c-3.1,2.9-6.1,6-9.4,8.8
			C2583.9,1572.8,2580.8,1571,2581.6,1568z"/>
		<path class="st172" d="M2680.6,1568.1c3.7-1.5,6.8-4,9.4-7c2.1,2.4,4.9,4.4,8.2,4.8c-2.9,2.3-6.4,3.8-9.7,5.5
			c-9.6,4.5-19.8,8-30.4,9.1c0-4.2,0.1-8.4,0-12.6C2665.3,1570.5,2673.5,1571.1,2680.6,1568.1z"/>
		<path class="st169" d="M2588.1,1564c1.6-0.9,2.7,1.1,3.8,2c-1.9,1.8-3.8,3.7-5.8,5.5c-1.1,0.5-1.6-1-2.1-1.7
			C2583.3,1567.1,2586.1,1565.2,2588.1,1564z"/>
		<path class="st173" d="M2500.9,1564.6c6-1.3,12.7-0.4,17.6,3.5c1.9,1.2,2.3,3.6,3.6,5.3c0.3,1.2,0.5,2.7,0,3.8
			c-2.4,1-5.3,0.4-7.4-1c-3.7-2.5-6.2-6.4-9.7-9.1C2503.7,1566.1,2502,1565.8,2500.9,1564.6z"/>
		<path class="st142" d="M2505.1,1565.2c3.7-0.2,7.4,0.8,10.7,2.5c3.2,1.6,5.3,5,5.3,8.6c-4.1,0.9-7.3-2.1-9.9-4.8
			C2509.2,1569.3,2507,1567.5,2505.1,1565.2z"/>
		<path class="st174" d="M2792.2,1567.1c2.7-1.4,5.9-1.5,8.9-1.6c-0.4,1.4-1.5,2.3-2.4,3.2c-2.6,2.4-4.7,5.4-7.9,7.1
			c-1.6,0.8-3.4,0.6-5.1,0.6C2785.8,1572.3,2788.6,1568.7,2792.2,1567.1z"/>
		<path class="st175" d="M2595.5,1567.3c0.7,0.4,1.4,0.8,2.1,1.2c-0.2,1.9-0.6,3.8-0.5,5.8c0.1,0.7,0.9,1.5,1.5,0.9
			c1.1-1.2,1.9-2.6,2.8-3.9c0.6,0.5,1.1,1,1.7,1.5c-2.7,3.3-4.7,7.1-7.7,10.3c-1.5-1.3-3.2-2.4-4.7-3.8c-2.3-2.6,1.1-6.8,4.2-5.8
			C2594.8,1571.4,2595.1,1569.3,2595.5,1567.3z"/>
		<path class="st176" d="M2624.3,1570.1c1.2-1.2,2.6-2.2,4-3.2c4.4,4.8,11.5,5.8,17.7,5.8c0,1.4,0,2.7,0,4.1
			C2638.3,1577,2630.5,1574.6,2624.3,1570.1z"/>
		<path class="st177" d="M2709.8,1567.8c1.7-0.8,3.8-0.3,5.2,0.9c1.9,1.6,3.6,3.6,3.8,6.2c0.2,2.1-1.3,3.9-3.1,4.7
			c-1.7,0.6-3.6,0.1-5-1c-2.1-1.6-3.9-4.1-3.8-6.9C2707,1569.9,2708.3,1568.6,2709.8,1567.8z"/>
		<path class="st178" d="M2710.2,1570.1c2.3-1.3,4.5,0.9,5.6,2.7c1.2,1.4,1,3.9-0.8,4.7c-2.3,0.7-4.1-1.5-5.2-3.2
			C2708.9,1573,2708.9,1571.1,2710.2,1570.1z"/>
		<path class="st34" d="M2536.1,1576.2c1.2-2,2.2-4.4,4.5-5.2c-0.3,5.2,2,10.3,0.7,15.4c-0.7,1.8-1.6,4.6-4,4
			C2533.6,1586.7,2533.6,1580.5,2536.1,1576.2z"/>
		<path class="st89" d="M2766.4,1570.6c2.5,1.5,4,4.2,5.2,6.8c2,4.5,1.5,10.6-2.7,13.7c-2.1-1.6-3.4-4.1-3.6-6.8
			C2764.9,1579.7,2766.8,1575.3,2766.4,1570.6z"/>
		<path class="st179" d="M2604,1573.4c0.7,0.4,1.3,0.8,2,1.2c-0.2,0.9-0.5,1.9-0.6,2.8c1,1,2.3,1.6,3.5,2.3c0.8-0.7,1.5-1.5,2.3-2.2
			c0.5,0.5,1.1,1,1.6,1.5c-3.4,2.8-6.5,5.9-9.8,8.7c-0.7-0.3-1.3-0.7-2-1C2602,1582.3,2603.1,1577.9,2604,1573.4z"/>
		<path class="st36" d="M2696.4,1579.2c0.4-2.3,2.5-4.4,4.9-4.6c3.1-0.2,5.4,2.6,6.4,5.2c1.4,2.6,0.4,6.2-2.4,7.3
			c-1.8,1-3.8,0.1-5.1-1.3c0.3-0.3,1-1,1.4-1.3c1.1,0.3,2.3,1.1,3.4,0.2c1.5-1,1.5-3.2,0.6-4.6c-0.8-1.4-1.8-3.1-3.6-3.2
			c-1.9-0.3-3.8,2.1-2.6,3.7c0.9-0.3,1.7-0.6,2.6-0.9c0.2,0.7,0.4,1.3,0.6,2c-1.2,0.7-2.4,1.4-3.7,2.1
			C2698,1582.2,2696.9,1580.8,2696.4,1579.2z"/>
		<path class="st180" d="M2593.4,1575.6c1.3-0.3,2.4,0.8,3.4,1.5c0.3,1.1-0.9,2-1.6,2.8C2593.6,1579.2,2591,1577.1,2593.4,1575.6z"
			/>
		<path class="st1" d="M2604.7,1579.8c0.8,0.5,1.6,0.9,2.4,1.4c-1,1.1-2.1,2.1-3.2,3.1C2604.1,1582.8,2604.4,1581.3,2604.7,1579.8z"
			/>
		<path class="st181" d="M2612.3,1586.6c-1.5-2.4,0.3-5.9,3-6.3c1.5-0.1,3,0.8,4,1.9c1.1,1.2,0.6,3,0.6,4.5c-0.5-0.1-1.5-0.3-2-0.4
			c0-1.3-0.1-3.2-1.7-3.5c-1.2-0.5-2.7,0.8-2.1,2.1c0.9,1.2,2.1,2.1,3,3.3c0.9,1.8,0.2,4.3-1.7,5.3c-2.8,1.1-6.6-1.7-5.4-4.8
			c0.3,0,0.8,0,1,0.1l0.7-0.2c0.4,0.8,0.1,2.1,1,2.5c0.9,0.7,1.9,0.2,2.9-0.3C2614.9,1589,2613.4,1587.9,2612.3,1586.6z"/>
		<path class="st182" d="M2689.5,1581c0.5-0.1,1.4-0.4,1.8-0.6c0.8,1.6,1.4,3.2,2.2,4.7c1.7,1.9,4,3.2,5.8,5c0.1,1-1.1,1-1.8,1.4
			c-1.3-1.3-2.7-2.5-4.2-3.5c-0.1,1.7,0,3.5-0.2,5.2c-0.4,0.8-1.5,0.8-2.1,1.2c-0.1-2.8,0.4-5.5,0.3-8.3
			C2690.9,1584.4,2690,1582.8,2689.5,1581z"/>
		<path class="st12" d="M2555.2,1581.9c0.2,0.2,0.5,0.5,0.7,0.6c-1.4,4.4,1.5,8.4,2.7,12.5c1.3,3.4,1.2,7.6-1,10.7
			c-1.4,1.8-3.4-0.4-4.8-1.1C2547.1,1598.1,2548.9,1587.4,2555.2,1581.9z"/>
		<path class="st12" d="M2751.5,1581.7c5.4,4.3,7.7,12.2,5.4,18.8c-0.9,1.9-1.7,4.1-3.7,5c-1,0.5-2,0.9-3,1.4
			c-2.3-3.2-3.2-7.4-1.8-11.2c1.1-4,3.9-7.7,3.1-11.9C2751.3,1583,2751.3,1582.3,2751.5,1581.7z"/>
		<path class="st183" d="M2646.1,1583.4c0.7-0.2,1.3-0.4,2-0.6c1.8,0.1,3.7,0.3,5.5,0.6C2651.1,1584.1,2648.6,1583.4,2646.1,1583.4z
			"/>
		<path class="st13" d="M2515.9,1583.9c3.6-0.6,7.4-0.5,10.7,1.1c3.4,1.4,6.4,4.4,6.7,8.2c-0.9,1.4-3.3,0.6-4.7,0.4
			C2523.5,1591.5,2520.6,1586.5,2515.9,1583.9z"/>
		<path class="st47" d="M2779.6,1585.4c3.5-1.7,7.6-2.4,11.3-1.4c-4.3,2.6-7.2,6.9-11.6,9.3c-1.7,0.8-3.7,0.6-5.5,0.6
			C2773.8,1590.2,2776.4,1586.9,2779.6,1585.4z"/>
		<path class="st13" d="M2550.5,1596.9c-0.5-4.3,0.8-8.7,3.5-12.1c0.8,3.7,2.3,7.2,3.6,10.7c1.1,3.3,1.1,7.3-1.3,10
			C2553,1603.9,2550.8,1600.5,2550.5,1596.9z"/>
		<path class="st13" d="M2753.1,1584.7c2.3,3.3,3.9,7.4,3.4,11.5c-0.1,3.8-2.2,8.3-6.3,9.1c-1.6-3.2-1.9-6.9-0.7-10.3
			C2750.9,1591.7,2752.3,1588.3,2753.1,1584.7z"/>
		<path class="st184" d="M2530.7,1585.7C2531,1586,2531,1586,2530.7,1585.7z"/>
		<path class="st185" d="M2681.3,1586.3c2.5-1.5,5.9,0.8,5.9,3.6c0.1,3-3.8,5.3-6.3,3.3C2678.3,1591.7,2678.5,1587.5,2681.3,1586.3z
			"/>
		<path class="st186" d="M2668.7,1589c2.6-0.7,5.1-1.5,7.8-2.1c0.1,0.8,0.1,1.5,0.2,2.3c-0.8,0.2-1.6,0.3-2.4,0.5
			c0.2,3.6,1.7,7,2.3,10.6c-0.7,0.1-1.3,0.2-2,0.3c-0.7-3.3-1.8-6.5-2.4-9.8c-1.1,0.1-2.2,0.2-3.3,0.3
			C2668.9,1590.4,2668.8,1589.7,2668.7,1589z"/>
		<path class="st187" d="M2610.1,1588.5c0.4-0.9,0.8-0.9,1,0.1C2610.9,1588.5,2610.4,1588.5,2610.1,1588.5z"/>
		<path class="st188" d="M2632.8,1593.8c-1.9-2-0.4-6.1,2.5-6c2.6,0,4.7,2.3,4.2,5c-0.5-0.1-1.5-0.3-2-0.3c-0.2-0.7-0.4-1.4-0.7-2.1
			c-0.8-0.4-1.7-0.3-2.6-0.3c-0.7,2.4,2.2,3,3.4,4.6c0,0,0,0.1,0.1,0.1c1.5,1.9,0.6,5-1.4,6.2c-1.6,0.6-3.5,0.2-4.8-0.9
			c-1.2-1.1-1.2-2.8-1.3-4.3c0.5,0,1.4,0.1,1.9,0.1c0.2,1.4,0.8,3.4,2.6,3.1c1.2,0,1.4-1.2,1.8-2
			C2635.2,1595.9,2633.9,1595,2632.8,1593.8z"/>
		<path class="st189" d="M2623.6,1588.8c2.7-1.8,6.5,1.1,5.9,4.2c-0.4,2.9-4.3,4.6-6.5,2.5
			C2620.6,1593.9,2621.1,1590.1,2623.6,1588.8z"/>
		<path class="st60" d="M2640.9,1599.4c0-3.5,0.4-7,1.1-10.4c0.5,0.1,1.4,0.4,1.9,0.6c-0.3,3.1-0.9,6.1-0.9,9.2
			c-0.2,1.9,3.1,2.3,3.5,0.6c0.8-3.1,0.9-6.3,1.3-9.4c0.5,0,1.5,0,2,0.1c-0.3,3.5-0.5,7-1.4,10.5
			C2647.2,1604.1,2640.9,1603.1,2640.9,1599.4z"/>
		<path class="st190" d="M2664,1588.8c0.5,0,1.6-0.1,2.2-0.1c1.7,4.1,3.6,8.1,5.4,12.2c-0.5,0.1-1.6,0.4-2.1,0.5
			c-0.4-0.9-0.8-1.9-1.2-2.8c-1.4,0.1-2.8,0.2-4.2,0.4c-0.1,1-0.3,2-0.4,3c-1.9,0-3.8-0.1-5.7,0.2c-1.3-1.9-1.9-5.1-4.7-5.2
			c0.1,1.8,0.2,3.7,0.3,5.5c-0.5,0-1.6,0-2.1,0c-0.2-4.3-0.4-8.5-0.6-12.8c2.3,0,4.7-0.6,7,0.2c2.3,1.6,1.9,5.5-0.6,6.8
			c1.2,1.6,2,3.4,3.3,4.9l1,0.1C2662.5,1597.4,2663.1,1593.1,2664,1588.8z"/>
		<path class="st191" d="M2669.5,1590.1c0.7-0.5,1.9-0.5,2.7-0.1C2672,1590.9,2669.7,1591,2669.5,1590.1z"/>
		<path class="st192" d="M2653.1,1592c1.3,0,2.6,0,3.9,0.1c0.1,0.9,0.1,1.7,0.1,2.6c-1.3,0.3-2.6,0.5-3.9,0.6
			C2653.2,1594.2,2653.1,1593.1,2653.1,1592z"/>
		<path class="st1" d="M2665.3,1592.4c0.7,1.4,1.4,2.8,2,4.2c-0.9,0-1.8,0.1-2.8,0.1C2664.8,1595.3,2665.1,1593.8,2665.3,1592.4z"/>
		<path class="st193" d="M2638,1594.6C2638,1594.6,2638,1594.7,2638,1594.6C2638,1594.7,2638,1594.6,2638,1594.6z"/>
		<path class="st194" d="M2572.1,1597.7c0.2,0.1,0.6,0.4,0.8,0.5c-1.1,4.5,2.2,8.2,3.7,12.1c1.8,3.5,1.8,7.8-0.1,11.3
			c-0.4,0.2-1.3,0.5-1.7,0.7c-1.7-0.8-3.4-1.6-4.6-3.1C2565.8,1612.7,2566.9,1603.5,2572.1,1597.7z"/>
		<path class="st89" d="M2568.5,1611.3c-0.2-3.7,0.7-7.5,2.7-10.6c1.4,5.8,6.3,10.7,5.6,16.9c-0.1,1.2-0.7,3.4-2.3,2.9
			C2570.7,1619.3,2569,1615,2568.5,1611.3z"/>
		<path class="st34" d="M2730.6,1613c1.4-4.3,4.1-8,5.2-12.4c3.2,4.8,3.9,11.5,0.9,16.6c-1.1,2-3.1,3.1-5.1,4
			C2730.1,1618.8,2729.7,1615.7,2730.6,1613z"/>
		<path class="st195" d="M2536.7,1602.6c3.9-0.7,8.2-0.8,11.7,1.4c1.9,1.1,2.9,3.1,3.9,4.9c-1.8,1.6-4.5,1.4-6.7,0.9
			c-4-1.4-7.6-4-11.6-5.5C2534.7,1603.4,2535.6,1602.7,2536.7,1602.6z"/>
		<path class="st13" d="M2754.8,1609c1.4-3.9,5.2-6.5,9.3-6.7c3.2-0.1,6.7-0.3,9.4,1.7c-3.9,1.5-7.5,3.8-11.3,5.6
			C2759.9,1610.3,2756.8,1610.7,2754.8,1609z"/>
		<path class="st196" d="M2586.6,1610.1c0.3-0.6,0.5-1.5,1.4-1.2c0.1,5.2,4.8,8.2,7.3,12.3c2.1,2.8,2.3,6.5,1.5,9.9
			c-0.3,0.2-0.8,0.6-1.1,0.8c-3-0.3-5.9-1.6-7.6-4.1C2584.4,1622.8,2584,1615.7,2586.6,1610.1z"/>
		<path class="st197" d="M2719.1,1608.7c0.7,0.3,1.2,0.9,1.4,1.6c2.7,5.7,2.2,12.9-1.8,17.9c-1.8,2.6-5,3.8-8.1,3.8
			c-0.8-2.7-1.1-5.6-0.1-8.2c1.7-4.3,5.4-7.2,7.8-11.1C2718.6,1611.4,2718.9,1610,2719.1,1608.7z"/>
		<path class="st34" d="M2587.1,1611.9c2,4.4,6,7.4,8.1,11.8c1,2.1,0.8,4.6,0.6,6.9c-3.3,0.3-6.3-1.9-7.7-4.7
			C2585.7,1621.6,2585.3,1616.4,2587.1,1611.9z"/>
		<path class="st198" d="M2712,1623.3c2.2-4.1,5.9-7.1,8-11.3c2.1,5.5,1.1,12.5-3.3,16.6c-1.4,1.5-3.5,1.9-5.5,1.9
			C2711.1,1628.1,2710.8,1625.5,2712,1623.3z"/>
		<path class="st13" d="M2552.3,1621.7c2.8-1.7,6.2-2.4,9.5-2.6c3.3-0.2,6,2.2,8.4,4c1.1,0.6,1.4,2.5,0.1,2.9
			c-2.3,0.8-5,0.7-7.3-0.2C2559.5,1624.5,2556,1622.8,2552.3,1621.7z"/>
		<path class="st12" d="M2606.1,1619.3c1,1,0.9,2.6,1.7,3.8c2.6,4,7.2,6.5,9.1,11c1,2.1,0.8,4.5,0.6,6.8c-2.8,1.8-6.7,0.4-8.6-2.1
			C2604.1,1633.7,2603,1625.5,2606.1,1619.3z"/>
		<path class="st47" d="M2737.5,1622.4c2.4-1.8,5.2-3.8,8.3-3.3c3.2,0.6,6.5,0.9,9.4,2.5c-5.6,1.1-10.4,5.3-16.3,5
			c-1.2-0.2-3.3-0.4-3.1-2C2735.9,1623.6,2736.9,1623,2737.5,1622.4z"/>
		<path class="st142" d="M2606,1622.5c2,3.3,5,5.8,7.6,8.6c1.9,2.1,3.2,4.9,3.1,7.8c-0.1,2.3-3,1.5-4.3,0.9
			C2606.4,1636.7,2604.4,1628.7,2606,1622.5z"/>
		<path class="st72" d="M2693.7,1632.5c2.6-2.6,5.3-5.1,7.4-8.2c1.2,4.9,0.2,10.5-3,14.5c-1.7,2.2-4.6,2.8-7.1,3.5
			C2689.1,1639.1,2691.5,1635.2,2693.7,1632.5z"/>
		<path class="st12" d="M2625.8,1627.6c0.9,1.6,1.5,3.5,3,4.7c3.3,2.9,7.8,4.8,9.9,8.9c1,2.1,1.9,4.7,0.7,6.9
			c-2.7,0.9-5.9,0.4-8.1-1.5C2625.8,1642.3,2623.1,1634.2,2625.8,1627.6z"/>
		<path class="st198" d="M2672.8,1637.5c2.8-2.1,5.9-4,8.2-6.7c1,5.1-1.3,10.3-4.9,13.8c-2.1,2-5.1,2.6-7.9,2.1
			C2667.9,1643.1,2669.9,1639.6,2672.8,1637.5z"/>
		<path class="st47" d="M2625.9,1631.1c3.2,3.1,7,5.3,10.2,8.3c2.1,1.9,2.6,4.8,2.9,7.5c-2.9,1.1-6-0.2-8.2-2.2
			C2627.2,1641.2,2625.3,1636.1,2625.9,1631.1z"/>
		<path class="st142" d="M2573.1,1636.8c3.2-2.9,7.5-5.2,12-4.5c2.5,0.8,4.8,2.3,7.1,3.5c-0.8,0.9-1.5,2-2.8,2.1
			C2584,1639,2578.6,1636.9,2573.1,1636.8z"/>
		<path class="st47" d="M2714.9,1635.6c2.4-1.1,4.6-2.8,7.2-3.4c4.4-0.6,8.6,1.6,11.9,4.4c-3.6,0.5-7.1,1.2-10.7,1.4
			c-2.4,0.2-4.9-0.4-7.3,0.2C2716.1,1637.2,2715.4,1636.4,2714.9,1635.6z"/>
		<path class="st199" d="M2651.8,1637.7c0.3,0.1,0.9,0.4,1.1,0.6c3.6,4.2,7.9,8.7,8,14.6c0,5.7-4.5,10-8.9,13
			c-3.8-2.7-7.5-6.4-7.8-11.4C2643.8,1647.9,2647.9,1642.4,2651.8,1637.7z"/>
		<path class="st200" d="M2594.5,1648.6c3.3-2.7,6.9-5.6,11.3-6c3-0.4,5.7,1.3,8.2,2.8c-1.4,2.7-4.7,3.9-7.6,3.7
			C2602.5,1649,2598.5,1649.2,2594.5,1648.6z"/>
		<path class="st89" d="M2693,1645.8c2.1-2.1,5.2-3.5,8.2-3.1c4.2,0.8,8.3,2.7,11,6.1c-4.5,0-9,0.6-13.5,0.2
			C2696.4,1649,2694.6,1647.4,2693,1645.8z"/>
		<path class="st201" d="M2648.3,1652.7c-0.5-3.4,4-6.5,6.9-4.3c1.8,0.9,2.6,3,2.3,4.9c0.1,1.9-1.8,2.9-3,4
			c-0.9,0.1-1.7,0.2-2.6,0.3C2650,1656.7,2648.2,1654.9,2648.3,1652.7z"/>
		<path class="st89" d="M2669.1,1652c2.1-0.5,4.3-1.1,6.4-1.5c4.9,1.1,9,4.8,11.2,9.3c-3.3-0.6-6.6-1.7-9.9-2.1
			c-3.2-0.5-6.5-1.5-8.5-4.2C2668.5,1653,2668.9,1652.3,2669.1,1652z"/>
		<path class="st195" d="M2628.2,1652c2.7-1.6,5.9-0.9,8.7-0.3c0.9,0.1,1.4,0.9,2,1.6c-1.8,3.1-5.4,4.3-8.8,4.6
			c-3.5,0.4-6.7,1.7-10.1,2.3C2621.9,1656.8,2624.8,1653.9,2628.2,1652z"/>
		<path class="st202" d="M2554.2,1657.1c9.6,4.8,18.8,10.2,28.4,15.1c0-1.9,0-3.8,0.1-5.7c2.5,0.8,4.8,2.3,7.1,3.4
			c10.5,5.3,21.5,9.7,32.9,12.2c11.7,2.8,23.8,3.3,35.8,2.4c23.1-2,45.2-9.1,67.5-14.8c0.1,1.5,0.3,3,0.4,4.5
			c9.3-4.8,18.2-10.4,27.5-15.2c-0.7,3.4-2.7,6.4-3.2,9.9c2.9,0.9,5.9,1.7,8.8,2.9c0.2,1-0.9,1.4-1.6,1.9
			c-10.9,6.9-21.6,14.2-32.5,21c-0.2-1.8-0.2-3.5-0.2-5.3c-13.3,5.3-27.2,9.5-41.3,11.9c-7.8,1.5-15.7,1.9-23.5,2.7
			c-3.9-0.3-8-0.7-11.9,0.3c-1.2-0.4-2.5-0.8-3.8-0.8c-12.8-0.7-25.5-3-37.8-6.6c-7.8-2.1-15.3-5.2-22.9-8.2c0,1,0,2,0,3
			c-1.1-0.2-2-0.6-2.9-1.2c-11-6.8-22.2-13.3-33.1-20.3c3.1-1.3,6.3-2.2,9.4-3.2C2556.8,1663.6,2554.9,1660.5,2554.2,1657.1z"/>
		<path class="st203" d="M2555.5,1659.2c8.9,4.7,17.7,9.6,26.6,14.3c0.3,5.6-0.2,11.2,0.2,16.7c-10.8-6.7-21.7-13.2-32.6-19.9
			c2.9-1.1,5.9-1.7,8.7-3.1C2557.5,1664.7,2556.4,1662,2555.5,1659.2z"/>
		<path class="st203" d="M2725.3,1675.9c8.7-4.8,17.5-9.8,26.1-14.7c-0.7,2.8-1.9,5.4-2.9,8.1c2.8,1.4,5.8,2,8.7,3.1
			c-10.4,7-21,13.6-31.4,20.5c0.2-2.7-0.6-5.4-0.6-8.1C2725.3,1681.8,2725.3,1678.9,2725.3,1675.9z"/>
		<path class="st204" d="M2583.3,1668c12.2,6.6,25.1,12.2,38.6,15.2c14.5,3.4,29.5,3.6,44.2,1.5c19.9-2.7,39.1-8.6,58.5-13.7
			c0.3,5.6,0.3,11.3,0.3,16.9c-27.7,11.5-58.3,16.9-88.3,13.7c-13-1.4-25.9-4.3-38.3-8.6c-5.3-1.7-10.3-4-15.5-6
			c0.2-5.2-0.5-10.4,0.6-15.5C2583.3,1670.4,2583.3,1669.2,2583.3,1668z"/>
		<path class="st205" d="M2589.3,1674.1c0.1-1,1.3-0.6,1.9-0.3c3,1.4,5.1,4,7.5,6.2c-0.5,0.3-1,0.6-1.5,0.9c1,2.2,0.3,4.7,0.4,7.1
			c-0.4-0.1-1.2-0.4-1.6-0.5c0-0.7,0-1.4,0-2.1c-2.1-0.6-4.2-2-4.7-4.3c-0.3-2.8,4.4-1.4,4.5,0.6c-1.2-0.4-2.5-0.7-3.7-0.9
			c-0.2,2.2,2.2,2.8,3.8,3.2c0.1-1.2,0.1-2.5,0.1-3.7c0.4-0.3,0.8-0.6,1.3-0.9c-2-1.6-3.8-3.7-6.3-4.3c-0.4,3.3-0.2,6.6-0.3,9.9
			c-0.4-0.2-1.2-0.5-1.7-0.6C2589.1,1680.8,2588.9,1677.5,2589.3,1674.1z"/>
		<path class="st12" d="M2713,1677.2c0.3,0,1,0,1.4,0.1c0,2.8,0,5.7-0.2,8.5c-0.5-0.2-0.9-0.5-1.3-0.8
			C2712.9,1682.5,2713,1679.9,2713,1677.2z"/>
		<path class="st206" d="M2709.2,1678.7c0.4,0.1,0.9,0.3,1.3,0.4c0.1,2.7-0.1,5.4-0.1,8.1c-0.4-0.1-1.1-0.1-1.4-0.2
			C2709.1,1684.3,2709.1,1681.5,2709.2,1678.7z"/>
		<path class="st207" d="M2598.8,1683.6c-0.7-1.2,1-2.1,2-1.6c1.4,0.7,2.5,2,3.9,2.8l0.2-1.4c0.6,0.4,1.1,0.8,1.7,1.2
			c-0.1,2.3-0.1,4.6-0.3,6.9c-2.7-0.6-1.1-3.7-1.5-5.6c-2-0.8-3.1-3.3-5.5-3.3c0.7,2.1,4.8,2.1,3.8,4.9c-0.4,0.2-1.3,0.6-1.8,0.8
			c1,0.4,2,0.9,2.5,1.8c-2.5-0.1-3.9-2.6-5.3-4.4c1.5-0.2,2.6,1.2,4.2,1.1C2601.7,1685.5,2599.2,1685.5,2598.8,1683.6z"/>
		<path class="st12" d="M2615.4,1685c0.3-1,0.9-1.7,1.9-1.1c0.2,0.4,0.5,1.3,0.7,1.8C2617.1,1685.8,2616.2,1685.4,2615.4,1685z"/>
		<path class="st208" d="M2700.2,1683.5c0.4,0,1.2,0,1.6,0c0.1,2.3,0,4.5-0.1,6.8c-0.2,0.2-0.7,0.7-1,1c1.2,0.3,2.4,0.5,3.6,0.8
			c-1.4,1-3.2,0.4-4.8,0.3c0.7-1.7,0.5-3.5,0.5-5.2c-1.3,0.5-3.4,0.6-3.5,2.4c0.4,0.8,0.8,1.6,1.3,2.4c-1.5-0.4-3-2-2.3-3.6
			c0.8-1.8,3-2,4.6-2.6C2700.2,1685,2700.2,1684.3,2700.2,1683.5z"/>
		<path class="st209" d="M2607.9,1684.4c0.5,0.4,1.1,0.8,1.6,1.3c0,2.3,0,4.6-0.1,6.8c-0.6-0.3-1.9-0.3-1.6-1.3
			C2607.8,1688.9,2607.9,1686.6,2607.9,1684.4z"/>
		<path class="st210" d="M2692.6,1686.1c0.4,0,1.2,0.1,1.7,0.2c0,2.3,0,4.6-0.1,6.9c-0.4,0.1-1.2,0.3-1.7,0.4
			C2692.6,1691.1,2692.6,1688.6,2692.6,1686.1z"/>
		<path class="st211" d="M2690,1686.9c0.2,0.1,0.8,0.2,1.3,0.3c0,2.2-0.1,4.5-0.1,6.8c-0.4,0.1-1.2,0.3-2.2,0.4v-2.1
			c-0.9,0.7-2.8,1.2-4-0.4l-0.8,0.7c0.1-0.6,0.2-1.2,0.3-1.8c0.9-0.3,1.7-0.8,2-1.7c-0.5-0.5-1-1-1.5-1.4c1,0.1,2,0.2,3,0.5
			c0,1.5-1.1,2.6-2.1,3.6c1.5,0.6,2.7-0.3,4.1-1.2V1686.9L2690,1686.9z"/>
		<path class="st212" d="M2615.2,1686.7c0.4,0.3,1.2,0.9,1.6,1.2c0,2.2-0.1,4.5-0.1,6.7c-0.4-0.1-1.3-0.4-1.7-0.5c0-1.4,0-2.8,0-4.2
			c-0.6-0.2-1.8-0.5-2.4-0.7c-0.1,0.4-0.2,1.2-0.2,1.6c-1.1-0.9-1.9-2.1-2.6-3.4c1.7,0.3,3.4,0.8,5.1,1.3
			C2615.1,1688.2,2615.2,1687.2,2615.2,1686.7z"/>
		<path class="st213" d="M2643.2,1688.8c0.8-1,2.3-0.7,3.4-0.5c2.3,0.6,4.4,1.8,6.2,3.3c-2.6-0.6-4.6-3-7.5-2.5
			c-0.2,0.2-0.5,0.5-0.7,0.7c-0.2,2.9-0.1,5.8-0.2,8.7c-0.4,0-1.3,0-1.7,0.1C2642.9,1695.3,2642.7,1692,2643.2,1688.8z"/>
		<path class="st214" d="M2623.6,1688.8c2.1-0.4,4.8,1.2,4.4,3.5c0,1.2-1.4,1.3-2.1,1.8c0.7,0.8,1.6,1.4,2.8,1.2
			c0.1,0.6,0.2,1.1,0.2,1.7c-2.5-0.4-3.3-3-5.2-4.2c-0.2-2.2,2.5,0.5,3.3-1.2C2627.7,1689.1,2623.8,1691.1,2623.6,1688.8z"/>
		<path class="st213" d="M2679.4,1689.4c1.7-0.9,4.1-0.8,4.6,1.4c-0.6,1.2-1.6,2.1-2.2,3.3c0.7,0.5,1.6,0.5,2.5,0.1
			c0.1,0.3,0.4,0.9,0.5,1.2c-1.5,0.7-3,0-3.8-1.4c-0.4-0.1-1.2-0.2-1.6-0.2c0.2-0.6,0.1-1.7,1.1-1.6c1.6,0.2,2.6-1.2,2.4-2.7
			c-1,0.2-1.9,0.5-2.8,0.8C2679.9,1690.1,2679.6,1689.6,2679.4,1689.4z"/>
		<path class="st215" d="M2629.7,1689.9c0.4,0.2,1.2,0.5,1.5,0.7c0.2,2.3,0.1,4.6,0,6.8c-2.3,0.2-1.6-2-1.6-3.5
			c-2.2,0.3-0.6-1.2,0-1.6C2629.6,1691.4,2629.7,1690.7,2629.7,1689.9z"/>
		<path class="st216" d="M2632.8,1690.3c0.5,0.3,1.1,0.6,1.7,0.9c0,2.2-0.1,4.3-0.1,6.5c-0.6-0.1-1.1-0.1-1.7-0.2
			C2632.7,1695.1,2632.7,1692.7,2632.8,1690.3z"/>
		<path class="st217" d="M2635.5,1691.7c1.7-2.3,6.2,0.1,5.1,2.9c-0.7,0.6-1.5,1-2.2,1.5c0.6,1.1,1.9,1,2.9,1.2
			c0.2,0.4,0.4,0.8,0.7,1.3c-2.9,0.5-4-2.7-6.4-3.6c-0.2-1.8,2.1-0.8,2.9-0.4c0.5-0.5,2.3-1.2,1.1-2.1
			C2638.3,1691.7,2636.8,1692.1,2635.5,1691.7z"/>
		<path class="st218" d="M2645.1,1692.2c1.1-1,3-1.1,3.9,0.3c0.7,1.9-1.5,2.7-2.7,3.7c1.2,0.2,2.5-0.1,2.7-0.5v-3.9
			c1.6,0.2,2.1,0.4,2.7,0.6c0,2.2,0,4.4-0.2,6.5c-0.4,0-1.2-0.1-1.5-0.1v-1.8c-1.9,0.5-3.6-0.1-4.7-1.6
			C2646.2,1694.4,2645.7,1693.2,2645.1,1692.2z"/>
		<path class="st12" d="M2667.3,1691.1c0.4,0.1,1.2,0.3,1.6,0.5c0,2.2-0.1,4.4-0.1,6.5c-0.4,0-1.3,0.1-1.7,0.2c0-1.4,0-2.7,0.1-4.1
			c-1.3,0.2-3.2-0.2-2.7,1.8c-1-0.6-1.8-1.3-2.6-2.2c1.6-0.8,3.4-0.6,5.2-0.7C2667.1,1692.4,2667.2,1691.7,2667.3,1691.1z"/>
		<path class="st12" d="M2670.5,1692.8c-0.1-1.4,2.4-2.3,2.4-0.5C2672.4,1693.3,2671.4,1693.1,2670.5,1692.8z"/>
		<path class="st219" d="M2646.8,1692.4c1-0.3,1.3,0.1,0.9,1.2C2646.7,1693.8,2646.4,1693.4,2646.8,1692.4z"/>
		<path class="st12" d="M2654.5,1692.6c0.7-0.1,1.2,0.4,1.4,1c-0.6,0.7-1.4,1-2.2,0.4C2653.4,1693.2,2653.7,1692.7,2654.5,1692.6z"
			/>
		<path class="st12" d="M2671.4,1695.2c1.5-0.8,1.9,1.4,0.4,1.6C2670.6,1697.3,2670.2,1695.4,2671.4,1695.2z"/>
		<path class="st12" d="M2653.7,1697.8c-0.8-1.6,1.1-1.6,2.1-1.3C2655.7,1697.6,2654.9,1698.3,2653.7,1697.8z"/>
		<rect x="2120.3" y="767.2" class="st220" width="6" height="6"/>
		<g class="st221">
		</g>
		<g class="st221">
		</g>
		<polygon class="st220" points="203,833.2 212,833.2 212,833.2 		"/>
	</g>
	<text transform="matrix(1 0 0 1 53.1039 223.7515)"><tspan x="0" y="0" class="st222 st223 st224">IETE STUDENTS FORUM</tspan><tspan x="0" y="120" class="st225 st223 st226">PRESENTS</tspan></text>
	<text transform="matrix(1 0 0 1 756.25 1056.6001)" class="st227 st223 st228 st229">SMPC</text>
	<text transform="matrix(1 0 0 1 1226.2504 1248.6187)" class="st230 st223 st224">2K19</text>
	<text transform="matrix(1 0 0 1 53.1038 1551.9093)"><tspan x="0" y="0" class="st231 st223 st232">9 FEB </tspan><tspan x="0" y="153" class="st231 st223 st232">NEW ECED DEPT</tspan></text>
</g>
</svg>
